<svg xmlns="http://www.w3.org/2000/svg" id="レイヤー_1" data-name="レイヤー 1" viewBox="0 0 612.19 297.26"><defs><style>.cls-1{fill:#fff}</style></defs><path d="M235.86,16.82,100.46,2.16c-3.32-.35-4,3.82-.8,4.83l94.92,30.6.33.1A71.39,71.39,0,0,0,220.05,40c7.81-.62,25.22-4.1,23.67-15.45A9.21,9.21,0,0,0,235.86,16.82Z" class="cls-1"/><path d="M108.25,233.08A24.56,24.56,0,0,0,96,220.53L17,184.07a3.11,3.11,0,0,0-3.39,5.14l105,94.29a5.54,5.54,0,0,0,8.79-6.33Z" class="cls-1"/><circle cx="114.25" cy="212.62" r="9.82" class="cls-1" transform="translate(-116.88 143.07) rotate(-45)"/><path d="M81,11c5.32-2.38,8.83-6.11,7.84-8.32S81.9-1.22,76.58,1.16s-8,7.94-7,10.15S75.67,13.38,81,11Z" class="cls-1"/><path d="M9,180.68c2.36-.55,3.2-5.6,1.88-11.28s-4.3-9.84-6.66-9.29-5.15,6-3.83,11.73S6.59,181.22,9,180.68Z" class="cls-1"/><path d="M139,286.48c-5.82-.37-10.67,1.28-10.83,3.7s4.31,6.67,10.13,7.05,10.79-3.27,10.95-5.68S144.8,286.86,139,286.48Z" class="cls-1"/><path d="M297.27,188.77c-2.31-.74-5.73,3.13-7.5,8.69s-1.22,10.69,1.08,11.43,7.52-2.57,9.3-8.12S299.58,189.5,297.27,188.77Z" class="cls-1"/><path d="M249.69,20.61c-1.67,1.76.41,6.44,4.65,10.45s9,5.83,10.68,4.07,1-7.89-3.28-11.89S251.35,18.85,249.69,20.61Z" class="cls-1"/><path d="M189.25,48.75l-91-35.39a11.1,11.1,0,0,0-15,12.18L111.18,190a5.59,5.59,0,0,0,10.23,2.07L197.06,73.18A16.5,16.5,0,0,0,189.25,48.75Z" class="cls-1"/><path d="M39.76,186.69,92.13,204a5.78,5.78,0,0,0,7.47-6.32L75.12,25.21a6.41,6.41,0,0,0-12.2-1.7L14.77,132C4.9,154.18,15.88,178.07,39.76,186.69Z" class="cls-1"/><path d="M289.93,178.27a3.11,3.11,0,0,0,5.84-2C288.93,144.19,276.42,86.6,269,51.89,266,38,248.55,34.21,238.73,44.6c-5,5.82-6.31,15.61-3,22.25Z" class="cls-1"/><path d="M283.56,181.69,225.23,77.56a7.48,7.48,0,0,0-12.74-.38L130.68,201.87a5,5,0,0,0,4.45,7.73L272.4,202A13.65,13.65,0,0,0,283.56,181.69Z" class="cls-1"/><path d="M172.19,280.87l108.3-62a5.44,5.44,0,0,0-3.27-10.14L133,223.71c-7.06.74-11.17,6.55-9.62,13.47l5.65,24.68C134.14,282.13,155.08,290.67,172.19,280.87Z" class="cls-1"/><circle cx="216.83" cy="56.57" r="9.82" class="cls-1" transform="translate(-6.26 35.46) rotate(-9.22)"/><path d="M355.45,189.67V95.22h18.06l38,55.91h.76V95.22h21.18v94.45h-18l-38.06-56.46h-.83v56.46Z" class="cls-1"/><path d="M506.66,126.42c-1-8-6.85-14.18-17-14.18-12,0-18.61,8.72-18.61,24.08v11.42c0,14.18,5,24.91,19.24,24.91,10.79,0,17-6.85,17-14.81v-4H491V137.77h37.92v18.34c0,18.41-12.53,35.29-39.1,35.29-29.2,0-41.79-18.89-41.79-43.59v-11.7c0-25.12,14.81-42.56,41.86-42.56,25.33,0,38.55,15.71,39,32.87Z" class="cls-1"/><path d="M563.61,189.67V113.9H537.94V95.22h74.25V113.9H586.45v75.77Z" class="cls-1"/></svg>