<svg id="レイヤー_1" data-name="レイヤー 1" xmlns="http://www.w3.org/2000/svg" xmlns:xlink="http://www.w3.org/1999/xlink" viewBox="0 0 300.77 380.47"><defs><style>.cls-1{fill:url(#名称未設定グラデーション_9);}.cls-2{fill:url(#名称未設定グラデーション_9-2);}.cls-3{fill:url(#名称未設定グラデーション_9-3);}.cls-4{fill:url(#名称未設定グラデーション_9-4);}.cls-5{fill:url(#名称未設定グラデーション_9-5);}.cls-6{fill:url(#名称未設定グラデーション_9-6);}.cls-7{fill:url(#名称未設定グラデーション_9-7);}.cls-8{fill:url(#名称未設定グラデーション_9-8);}.cls-9{fill:url(#名称未設定グラデーション_9-9);}.cls-10{fill:url(#名称未設定グラデーション_9-10);}.cls-11{fill:url(#名称未設定グラデーション_9-11);}.cls-12{fill:url(#名称未設定グラデーション_9-12);}.cls-13{fill:url(#名称未設定グラデーション_9-13);}.cls-14{fill:url(#名称未設定グラデーション_9-14);}.cls-15{fill:#303030;}</style><linearGradient id="名称未設定グラデーション_9" x1="86.22" y1="-70.69" x2="368.75" y2="211.85" gradientUnits="userSpaceOnUse"><stop offset="0" stop-color="#f03"/><stop offset="1" stop-color="#ab0000"/></linearGradient><linearGradient id="名称未設定グラデーション_9-2" x1="-66.73" y1="82.27" x2="215.8" y2="364.8" xlink:href="#名称未設定グラデーション_9"/><linearGradient id="名称未設定グラデーション_9-3" x1="-41.42" y1="56.95" x2="241.12" y2="339.48" gradientTransform="translate(183.81 -18.51) rotate(45)" xlink:href="#名称未設定グラデーション_9"/><linearGradient id="名称未設定グラデーション_9-4" x1="43.88" y1="-28.34" x2="326.41" y2="254.19" xlink:href="#名称未設定グラデーション_9"/><linearGradient id="名称未設定グラデーション_9-5" x1="-74.4" y1="89.94" x2="208.13" y2="372.47" xlink:href="#名称未設定グラデーション_9"/><linearGradient id="名称未設定グラデーション_9-6" x1="-68.45" y1="83.99" x2="214.08" y2="366.52" xlink:href="#名称未設定グラデーション_9"/><linearGradient id="名称未設定グラデーション_9-7" x1="55.4" y1="-39.87" x2="337.94" y2="242.66" xlink:href="#名称未設定グラデーション_9"/><linearGradient id="名称未設定グラデーション_9-8" x1="123.21" y1="-107.68" x2="405.75" y2="174.86" xlink:href="#名称未設定グラデーション_9"/><linearGradient id="名称未設定グラデーション_9-9" x1="23.31" y1="-7.77" x2="305.84" y2="274.76" xlink:href="#名称未設定グラデーション_9"/><linearGradient id="名称未設定グラデーション_9-10" x1="-17.62" y1="33.15" x2="264.92" y2="315.69" xlink:href="#名称未設定グラデーション_9"/><linearGradient id="名称未設定グラデーション_9-11" x1="90.86" y1="-75.33" x2="373.4" y2="207.21" xlink:href="#名称未設定グラデーション_9"/><linearGradient id="名称未設定グラデーション_9-12" x1="25.57" y1="-10.04" x2="308.1" y2="272.5" xlink:href="#名称未設定グラデーション_9"/><linearGradient id="名称未設定グラデーション_9-13" x1="-9.22" y1="24.76" x2="273.31" y2="307.29" xlink:href="#名称未設定グラデーション_9"/><linearGradient id="名称未設定グラデーション_9-14" x1="87.9" y1="-72.36" x2="370.43" y2="210.17" gradientTransform="translate(11.86 -34) rotate(9.22)" xlink:href="#名称未設定グラデーション_9"/></defs><path class="cls-1" d="M235.86,16.82,100.46,2.16c-3.32-.35-4,3.82-.8,4.83l94.92,30.6.33.1A71.39,71.39,0,0,0,220.05,40c7.81-.62,25.22-4.1,23.67-15.45A9.21,9.21,0,0,0,235.86,16.82Z"/><path class="cls-2" d="M108.25,233.08A24.56,24.56,0,0,0,96,220.53L17,184.07a3.11,3.11,0,0,0-3.39,5.14l105,94.29a5.54,5.54,0,0,0,8.79-6.33Z"/><circle class="cls-3" cx="114.25" cy="212.62" r="9.82" transform="translate(-116.88 143.07) rotate(-45)"/><path class="cls-4" d="M81,11c5.32-2.38,8.83-6.11,7.84-8.32S81.9-1.22,76.58,1.16s-8,7.94-7,10.15S75.67,13.38,81,11Z"/><path class="cls-5" d="M9,180.68c2.36-.55,3.2-5.6,1.88-11.28s-4.3-9.84-6.66-9.29-5.15,6-3.83,11.73S6.59,181.22,9,180.68Z"/><path class="cls-6" d="M139,286.48c-5.82-.37-10.67,1.28-10.83,3.7s4.31,6.67,10.13,7.05,10.79-3.27,10.95-5.68S144.8,286.86,139,286.48Z"/><path class="cls-7" d="M297.27,188.77c-2.31-.74-5.73,3.13-7.5,8.69s-1.22,10.69,1.08,11.43,7.52-2.57,9.3-8.12S299.58,189.5,297.27,188.77Z"/><path class="cls-8" d="M249.69,20.61c-1.67,1.76.41,6.44,4.65,10.45s9,5.83,10.68,4.07,1-7.89-3.28-11.89S251.35,18.85,249.69,20.61Z"/><path class="cls-9" d="M189.25,48.75l-91-35.39a11.1,11.1,0,0,0-15,12.18L111.18,190a5.59,5.59,0,0,0,10.23,2.07L197.06,73.18A16.5,16.5,0,0,0,189.25,48.75Z"/><path class="cls-10" d="M39.76,186.69,92.13,204a5.78,5.78,0,0,0,7.47-6.32L75.12,25.21a6.41,6.41,0,0,0-12.2-1.7L14.77,132C4.9,154.18,15.88,178.07,39.76,186.69Z"/><path class="cls-11" d="M289.93,178.27a3.11,3.11,0,0,0,5.84-2C288.93,144.19,276.42,86.6,269,51.89,266,38,248.55,34.21,238.73,44.6c-5,5.82-6.31,15.61-3,22.25Z"/><path class="cls-12" d="M283.56,181.69,225.23,77.56a7.48,7.48,0,0,0-12.74-.38L130.68,201.87a5,5,0,0,0,4.45,7.73L272.4,202A13.65,13.65,0,0,0,283.56,181.69Z"/><path class="cls-13" d="M172.19,280.87l108.3-62a5.44,5.44,0,0,0-3.27-10.14L133,223.71c-7.06.74-11.17,6.55-9.62,13.47l5.65,24.68C134.14,282.13,155.08,290.67,172.19,280.87Z"/><circle class="cls-14" cx="216.83" cy="56.57" r="9.82" transform="translate(-6.26 35.46) rotate(-9.22)"/><path class="cls-15" d="M80.17,379.49V326.17H90.36l21.45,31.56h.43V326.17h12v53.32H114L92.55,347.61h-.47v31.88Z"/><path class="cls-15" d="M165.52,343.79c-.55-4.53-3.87-8-9.57-8-6.8,0-10.51,4.92-10.51,13.59v6.45c0,8,2.81,14.06,10.86,14.06,6.09,0,9.61-3.87,9.61-8.36v-2.26h-9.26v-9.07h21.41v10.35c0,10.4-7.07,19.93-22.07,19.93-16.49,0-23.6-10.67-23.6-24.61v-6.6c0-14.18,8.36-24,23.64-24,14.29,0,21.76,8.87,22,18.56Z"/><path class="cls-15" d="M197.91,379.49V336.72h-14.5V326.17h41.92v10.55H210.8v42.77Z"/></svg>