<svg xmlns="http://www.w3.org/2000/svg" xmlns:xlink="http://www.w3.org/1999/xlink" width="1280" height="960">\n<path  d="M 0 0
L 1280 0
L 1280 960
L 0 960
L 0 0" style="stroke-width:0;stroke:rgba(255,255,255,1.0);fill:rgba(255,255,255,1.0)"/><path  d="M 18 56
L 1239 56
L 1239 933
L 18 933
L 18 56" style="stroke-width:0;stroke:rgba(255,255,255,1.0);fill:rgba(255,255,255,1.0)"/><path  d="M 18 933
L 1239 933" style="stroke-width:1;stroke:rgba(51,51,51,1.0);fill:none"/><path  d="M 18 933
L 18 938" style="stroke-width:1;stroke:rgba(51,51,51,1.0);fill:none"/><text x="5" y="955" style="stroke-width:0;stroke:none;fill:rgba(51,51,51,1.0);font-size:12.8px;font-family:'Roboto Medium',sans-serif">0.00</text><path  d="M 70 933
L 70 938" style="stroke-width:1;stroke:rgba(51,51,51,1.0);fill:none"/><text x="57" y="955" style="stroke-width:0;stroke:none;fill:rgba(51,51,51,1.0);font-size:12.8px;font-family:'Roboto Medium',sans-serif">0.04</text><path  d="M 121 933
L 121 938" style="stroke-width:1;stroke:rgba(51,51,51,1.0);fill:none"/><text x="108" y="955" style="stroke-width:0;stroke:none;fill:rgba(51,51,51,1.0);font-size:12.8px;font-family:'Roboto Medium',sans-serif">0.08</text><path  d="M 171 933
L 171 938" style="stroke-width:1;stroke:rgba(51,51,51,1.0);fill:none"/><text x="158" y="955" style="stroke-width:0;stroke:none;fill:rgba(51,51,51,1.0);font-size:12.8px;font-family:'Roboto Medium',sans-serif">0.12</text><path  d="M 222 933
L 222 938" style="stroke-width:1;stroke:rgba(51,51,51,1.0);fill:none"/><text x="209" y="955" style="stroke-width:0;stroke:none;fill:rgba(51,51,51,1.0);font-size:12.8px;font-family:'Roboto Medium',sans-serif">0.17</text><path  d="M 274 933
L 274 938" style="stroke-width:1;stroke:rgba(51,51,51,1.0);fill:none"/><text x="261" y="955" style="stroke-width:0;stroke:none;fill:rgba(51,51,51,1.0);font-size:12.8px;font-family:'Roboto Medium',sans-serif">0.21</text><path  d="M 324 933
L 324 938" style="stroke-width:1;stroke:rgba(51,51,51,1.0);fill:none"/><text x="311" y="955" style="stroke-width:0;stroke:none;fill:rgba(51,51,51,1.0);font-size:12.8px;font-family:'Roboto Medium',sans-serif">0.25</text><path  d="M 375 933
L 375 938" style="stroke-width:1;stroke:rgba(51,51,51,1.0);fill:none"/><text x="362" y="955" style="stroke-width:0;stroke:none;fill:rgba(51,51,51,1.0);font-size:12.8px;font-family:'Roboto Medium',sans-serif">0.29</text><path  d="M 426 933
L 426 938" style="stroke-width:1;stroke:rgba(51,51,51,1.0);fill:none"/><text x="413" y="955" style="stroke-width:0;stroke:none;fill:rgba(51,51,51,1.0);font-size:12.8px;font-family:'Roboto Medium',sans-serif">0.33</text><path  d="M 476 933
L 476 938" style="stroke-width:1;stroke:rgba(51,51,51,1.0);fill:none"/><text x="463" y="955" style="stroke-width:0;stroke:none;fill:rgba(51,51,51,1.0);font-size:12.8px;font-family:'Roboto Medium',sans-serif">0.38</text><path  d="M 528 933
L 528 938" style="stroke-width:1;stroke:rgba(51,51,51,1.0);fill:none"/><text x="515" y="955" style="stroke-width:0;stroke:none;fill:rgba(51,51,51,1.0);font-size:12.8px;font-family:'Roboto Medium',sans-serif">0.42</text><path  d="M 579 933
L 579 938" style="stroke-width:1;stroke:rgba(51,51,51,1.0);fill:none"/><text x="566" y="955" style="stroke-width:0;stroke:none;fill:rgba(51,51,51,1.0);font-size:12.8px;font-family:'Roboto Medium',sans-serif">0.46</text><path  d="M 629 933
L 629 938" style="stroke-width:1;stroke:rgba(51,51,51,1.0);fill:none"/><text x="616" y="955" style="stroke-width:0;stroke:none;fill:rgba(51,51,51,1.0);font-size:12.8px;font-family:'Roboto Medium',sans-serif">0.50</text><path  d="M 680 933
L 680 938" style="stroke-width:1;stroke:rgba(51,51,51,1.0);fill:none"/><text x="667" y="955" style="stroke-width:0;stroke:none;fill:rgba(51,51,51,1.0);font-size:12.8px;font-family:'Roboto Medium',sans-serif">0.54</text><path  d="M 732 933
L 732 938" style="stroke-width:1;stroke:rgba(51,51,51,1.0);fill:none"/><text x="719" y="955" style="stroke-width:0;stroke:none;fill:rgba(51,51,51,1.0);font-size:12.8px;font-family:'Roboto Medium',sans-serif">0.58</text><path  d="M 782 933
L 782 938" style="stroke-width:1;stroke:rgba(51,51,51,1.0);fill:none"/><text x="769" y="955" style="stroke-width:0;stroke:none;fill:rgba(51,51,51,1.0);font-size:12.8px;font-family:'Roboto Medium',sans-serif">0.62</text><path  d="M 833 933
L 833 938" style="stroke-width:1;stroke:rgba(51,51,51,1.0);fill:none"/><text x="820" y="955" style="stroke-width:0;stroke:none;fill:rgba(51,51,51,1.0);font-size:12.8px;font-family:'Roboto Medium',sans-serif">0.67</text><path  d="M 884 933
L 884 938" style="stroke-width:1;stroke:rgba(51,51,51,1.0);fill:none"/><text x="871" y="955" style="stroke-width:0;stroke:none;fill:rgba(51,51,51,1.0);font-size:12.8px;font-family:'Roboto Medium',sans-serif">0.71</text><path  d="M 934 933
L 934 938" style="stroke-width:1;stroke:rgba(51,51,51,1.0);fill:none"/><text x="921" y="955" style="stroke-width:0;stroke:none;fill:rgba(51,51,51,1.0);font-size:12.8px;font-family:'Roboto Medium',sans-serif">0.75</text><path  d="M 986 933
L 986 938" style="stroke-width:1;stroke:rgba(51,51,51,1.0);fill:none"/><text x="973" y="955" style="stroke-width:0;stroke:none;fill:rgba(51,51,51,1.0);font-size:12.8px;font-family:'Roboto Medium',sans-serif">0.79</text><path  d="M 1037 933
L 1037 938" style="stroke-width:1;stroke:rgba(51,51,51,1.0);fill:none"/><text x="1024" y="955" style="stroke-width:0;stroke:none;fill:rgba(51,51,51,1.0);font-size:12.8px;font-family:'Roboto Medium',sans-serif">0.83</text><path  d="M 1087 933
L 1087 938" style="stroke-width:1;stroke:rgba(51,51,51,1.0);fill:none"/><text x="1074" y="955" style="stroke-width:0;stroke:none;fill:rgba(51,51,51,1.0);font-size:12.8px;font-family:'Roboto Medium',sans-serif">0.88</text><path  d="M 1138 933
L 1138 938" style="stroke-width:1;stroke:rgba(51,51,51,1.0);fill:none"/><text x="1125" y="955" style="stroke-width:0;stroke:none;fill:rgba(51,51,51,1.0);font-size:12.8px;font-family:'Roboto Medium',sans-serif">0.92</text><path  d="M 1189 933
L 1189 938" style="stroke-width:1;stroke:rgba(51,51,51,1.0);fill:none"/><text x="1176" y="955" style="stroke-width:0;stroke:none;fill:rgba(51,51,51,1.0);font-size:12.8px;font-family:'Roboto Medium',sans-serif">0.96</text><path  d="M 1239 933
L 1239 938" style="stroke-width:1;stroke:rgba(51,51,51,1.0);fill:none"/><text x="1226" y="955" style="stroke-width:0;stroke:none;fill:rgba(51,51,51,1.0);font-size:12.8px;font-family:'Roboto Medium',sans-serif">1.00</text><path  d="M 1240 933
L 1240 56" style="stroke-width:1;stroke:rgba(51,51,51,1.0);fill:none"/><path  d="M 1240 933
L 1245 933" style="stroke-width:1;stroke:rgba(51,51,51,1.0);fill:none"/><text x="1250" y="939" style="stroke-width:0;stroke:none;fill:rgba(51,51,51,1.0);font-size:12.8px;font-family:'Roboto Medium',sans-serif">6.50</text><path  d="M 1240 894
L 1245 894" style="stroke-width:1;stroke:rgba(51,51,51,1.0);fill:none"/><text x="1250" y="900" style="stroke-width:0;stroke:none;fill:rgba(51,51,51,1.0);font-size:12.8px;font-family:'Roboto Medium',sans-serif">6.58</text><path  d="M 1240 859
L 1245 859" style="stroke-width:1;stroke:rgba(51,51,51,1.0);fill:none"/><text x="1250" y="865" style="stroke-width:0;stroke:none;fill:rgba(51,51,51,1.0);font-size:12.8px;font-family:'Roboto Medium',sans-serif">6.65</text><path  d="M 1240 825
L 1245 825" style="stroke-width:1;stroke:rgba(51,51,51,1.0);fill:none"/><text x="1250" y="831" style="stroke-width:0;stroke:none;fill:rgba(51,51,51,1.0);font-size:12.8px;font-family:'Roboto Medium',sans-serif">6.72</text><path  d="M 1240 791
L 1245 791" style="stroke-width:1;stroke:rgba(51,51,51,1.0);fill:none"/><text x="1250" y="797" style="stroke-width:0;stroke:none;fill:rgba(51,51,51,1.0);font-size:12.8px;font-family:'Roboto Medium',sans-serif">6.79</text><path  d="M 1240 752
L 1245 752" style="stroke-width:1;stroke:rgba(51,51,51,1.0);fill:none"/><text x="1250" y="758" style="stroke-width:0;stroke:none;fill:rgba(51,51,51,1.0);font-size:12.8px;font-family:'Roboto Medium',sans-serif">6.87</text><path  d="M 1240 718
L 1245 718" style="stroke-width:1;stroke:rgba(51,51,51,1.0);fill:none"/><text x="1250" y="724" style="stroke-width:0;stroke:none;fill:rgba(51,51,51,1.0);font-size:12.8px;font-family:'Roboto Medium',sans-serif">6.94</text><path  d="M 1240 684
L 1245 684" style="stroke-width:1;stroke:rgba(51,51,51,1.0);fill:none"/><text x="1250" y="690" style="stroke-width:0;stroke:none;fill:rgba(51,51,51,1.0);font-size:12.8px;font-family:'Roboto Medium',sans-serif">7.01</text><path  d="M 1240 650
L 1245 650" style="stroke-width:1;stroke:rgba(51,51,51,1.0);fill:none"/><text x="1250" y="656" style="stroke-width:0;stroke:none;fill:rgba(51,51,51,1.0);font-size:12.8px;font-family:'Roboto Medium',sans-serif">7.08</text><path  d="M 1240 616
L 1245 616" style="stroke-width:1;stroke:rgba(51,51,51,1.0);fill:none"/><text x="1250" y="622" style="stroke-width:0;stroke:none;fill:rgba(51,51,51,1.0);font-size:12.8px;font-family:'Roboto Medium',sans-serif">7.15</text><path  d="M 1240 577
L 1245 577" style="stroke-width:1;stroke:rgba(51,51,51,1.0);fill:none"/><text x="1250" y="583" style="stroke-width:0;stroke:none;fill:rgba(51,51,51,1.0);font-size:12.8px;font-family:'Roboto Medium',sans-serif">7.23</text><path  d="M 1240 543
L 1245 543" style="stroke-width:1;stroke:rgba(51,51,51,1.0);fill:none"/><text x="1250" y="549" style="stroke-width:0;stroke:none;fill:rgba(51,51,51,1.0);font-size:12.8px;font-family:'Roboto Medium',sans-serif">7.30</text><path  d="M 1240 509
L 1245 509" style="stroke-width:1;stroke:rgba(51,51,51,1.0);fill:none"/><text x="1250" y="515" style="stroke-width:0;stroke:none;fill:rgba(51,51,51,1.0);font-size:12.8px;font-family:'Roboto Medium',sans-serif">7.37</text><path  d="M 1240 475
L 1245 475" style="stroke-width:1;stroke:rgba(51,51,51,1.0);fill:none"/><text x="1250" y="481" style="stroke-width:0;stroke:none;fill:rgba(51,51,51,1.0);font-size:12.8px;font-family:'Roboto Medium',sans-serif">7.44</text><path  d="M 1240 440
L 1245 440" style="stroke-width:1;stroke:rgba(51,51,51,1.0);fill:none"/><text x="1250" y="446" style="stroke-width:0;stroke:none;fill:rgba(51,51,51,1.0);font-size:12.8px;font-family:'Roboto Medium',sans-serif">7.51</text><path  d="M 1240 401
L 1245 401" style="stroke-width:1;stroke:rgba(51,51,51,1.0);fill:none"/><text x="1250" y="407" style="stroke-width:0;stroke:none;fill:rgba(51,51,51,1.0);font-size:12.8px;font-family:'Roboto Medium',sans-serif">7.59</text><path  d="M 1240 367
L 1245 367" style="stroke-width:1;stroke:rgba(51,51,51,1.0);fill:none"/><text x="1250" y="373" style="stroke-width:0;stroke:none;fill:rgba(51,51,51,1.0);font-size:12.8px;font-family:'Roboto Medium',sans-serif">7.66</text><path  d="M 1240 333
L 1245 333" style="stroke-width:1;stroke:rgba(51,51,51,1.0);fill:none"/><text x="1250" y="339" style="stroke-width:0;stroke:none;fill:rgba(51,51,51,1.0);font-size:12.8px;font-family:'Roboto Medium',sans-serif">7.73</text><path  d="M 1240 299
L 1245 299" style="stroke-width:1;stroke:rgba(51,51,51,1.0);fill:none"/><text x="1250" y="305" style="stroke-width:0;stroke:none;fill:rgba(51,51,51,1.0);font-size:12.8px;font-family:'Roboto Medium',sans-serif">7.80</text><path  d="M 1240 265
L 1245 265" style="stroke-width:1;stroke:rgba(51,51,51,1.0);fill:none"/><text x="1250" y="271" style="stroke-width:0;stroke:none;fill:rgba(51,51,51,1.0);font-size:12.8px;font-family:'Roboto Medium',sans-serif">7.87</text><path  d="M 1240 226
L 1245 226" style="stroke-width:1;stroke:rgba(51,51,51,1.0);fill:none"/><text x="1250" y="232" style="stroke-width:0;stroke:none;fill:rgba(51,51,51,1.0);font-size:12.8px;font-family:'Roboto Medium',sans-serif">7.95</text><path  d="M 1240 192
L 1245 192" style="stroke-width:1;stroke:rgba(51,51,51,1.0);fill:none"/><text x="1250" y="198" style="stroke-width:0;stroke:none;fill:rgba(51,51,51,1.0);font-size:12.8px;font-family:'Roboto Medium',sans-serif">8.02</text><path  d="M 1240 158
L 1245 158" style="stroke-width:1;stroke:rgba(51,51,51,1.0);fill:none"/><text x="1250" y="164" style="stroke-width:0;stroke:none;fill:rgba(51,51,51,1.0);font-size:12.8px;font-family:'Roboto Medium',sans-serif">8.09</text><path  d="M 1240 124
L 1245 124" style="stroke-width:1;stroke:rgba(51,51,51,1.0);fill:none"/><text x="1250" y="130" style="stroke-width:0;stroke:none;fill:rgba(51,51,51,1.0);font-size:12.8px;font-family:'Roboto Medium',sans-serif">8.16</text><path  d="M 1240 90
L 1245 90" style="stroke-width:1;stroke:rgba(51,51,51,1.0);fill:none"/><text x="1250" y="96" style="stroke-width:0;stroke:none;fill:rgba(51,51,51,1.0);font-size:12.8px;font-family:'Roboto Medium',sans-serif">8.23</text><path  d="M 1240 56
L 1245 56" style="stroke-width:1;stroke:rgba(51,51,51,1.0);fill:none"/><text x="1250" y="62" style="stroke-width:0;stroke:none;fill:rgba(51,51,51,1.0);font-size:12.8px;font-family:'Roboto Medium',sans-serif">8.30</text><path  d="M 318 76
L 493 107
L 606 157
L 683 146
L 742 185
L 786 204
L 821 92
L 848 134
L 871 135
L 891 120
L 903 144
L 914 116
L 922 130
L 930 186
L 938 195
L 946 179
L 954 197
L 959 229
L 965 219
L 971 246
L 975 253
L 980 239
L 985 256
L 989 315
L 993 325
L 997 267
L 1000 303
L 1003 317
L 1007 323
L 1010 333
L 1013 348
L 1016 345
L 1018 365
L 1020 362
L 1022 386
L 1024 377
L 1026 356
L 1028 417
L 1029 426
L 1032 420
L 1033 411
L 1036 420
L 1037 382
L 1038 401
L 1040 444
L 1041 448
L 1042 467
L 1044 466
L 1044 468
L 1046 474
L 1047 486
L 1048 435
L 1049 486
L 1050 488
L 1051 508
L 1052 504
L 1053 517
L 1054 517
L 1056 522
L 1057 554
L 1058 537
L 1059 535
L 1060 553
L 1061 631
L 1061 638
L 1062 633
L 1063 570
L 1064 588
L 1065 611
L 1066 627
L 1067 492
L 1067 499
L 1068 505
L 1069 498
L 1069 504
L 1070 510
L 1071 517
L 1071 521
L 1072 517
L 1073 522
L 1073 528
L 1074 533
L 1075 582
L 1075 715
L 1076 719
L 1076 658
L 1077 628
L 1077 624
L 1078 665
L 1079 672
L 1079 854
L 1079 679
L 1080 676
L 1080 661
L 1081 661
L 1081 662
L 1081 608
L 1082 656
L 1082 927
L 1083 775" style="stroke-width:1;stroke:rgba(0,116,217,1.0);fill:none"/><text x="564" y="33" style="stroke-width:0;stroke:none;fill:rgba(51,51,51,1.0);font-size:23.0px;font-family:'Roboto Medium',sans-serif">QPS per Recall</text></svg>