<svg xmlns="http://www.w3.org/2000/svg" xmlns:xlink="http://www.w3.org/1999/xlink" id="レイヤー_1" width="302.059" height="403.249" data-name="レイヤー 1" viewBox="0 0 302.059 403.249"><defs><style>.cls-1{fill:#303030}.cls-2{fill:url(#名称未設定グラデーション_77)}.cls-3{fill:url(#名称未設定グラデーション_77-2)}.cls-4{fill:url(#名称未設定グラデーション_77-3)}.cls-5{fill:url(#名称未設定グラデーション_77-4)}</style><linearGradient id="名称未設定グラデーション_77" x1="121.555" x2="254.18" y1="57.564" y2="57.564" data-name="名称未設定グラデーション 77" gradientUnits="userSpaceOnUse"><stop offset="0" stop-color="#00bab1"/><stop offset="1" stop-color="#006076"/></linearGradient><linearGradient id="名称未設定グラデーション_77-2" x1="0" x2="147.796" y1="112.284" y2="112.284" xlink:href="#名称未設定グラデーション_77"/><linearGradient id="名称未設定グラデーション_77-3" x1=".25" x2="230.582" y1="221.287" y2="221.287" xlink:href="#名称未設定グラデーション_77"/><linearGradient id="名称未設定グラデーション_77-4" x1="178.537" x2="302.059" y1="163.339" y2="163.339" xlink:href="#名称未設定グラデーション_77"/></defs><title>vald_color_1_nospace</title><g><path d="M87.61,381.96L70.657,328.639h15l10.156,39.454H96.36l10-39.454h14.219L103.86,381.96H87.61Z" class="cls-1"/><path d="M133.824,382.585c-8.164,0-13.789-4.727-13.789-12.656,0-7.617,5.273-12.461,15-12.461h9.648v-3.477c0-3.4-2.109-5.273-5.625-5.273-3.555,0-5.664,1.953-5.82,4.8h-11.68c0.234-6.8,4.414-13.907,17.656-13.907,10,0,17.813,4.219,17.813,14.532V381.96H145.269v-5h-0.547C143.316,379.85,139.957,382.585,133.824,382.585Zm10.859-14.219v-4.1h-6.328c-3.867,0-5.977,1.875-5.977,4.688,0,3.281,2.813,4.922,5.742,4.922C141.675,373.874,144.683,371.686,144.683,368.366Z" class="cls-1"/><path d="M166.05,325.826h12.539V381.96H166.05V325.826Z" class="cls-1"/><path d="M213.707,346.569h0.547V325.826h12.539V381.96H214.332V375.4h-0.508c-1.8,4.3-6.133,6.992-11.875,6.992-9.727,0-15.508-7.266-15.508-19.648v-3.359c0-12.266,5.9-19.61,15.508-19.61C207.652,339.772,211.988,342.506,213.707,346.569Zm-14.375,13.2v2.656c0,6.914,3.125,10.273,7.383,10.273,4.531,0,7.578-3.477,7.578-10.234v-2.7c0-6.6-3.086-10.273-7.617-10.273C202.457,349.5,199.332,352.9,199.332,359.772Z" class="cls-1"/></g><g><path d="M130.912,67.076l6.819,11.509,3.434,5.725,3.49,5.722c2.328,3.788,4.663,7.543,7.159,11.03a52.708,52.708,0,0,0,8.227,9.38,22.194,22.194,0,0,0,7.669,3.889,28.855,28.855,0,0,0,2.846.562,19.544,19.544,0,0,0,5.6.061,52.624,52.624,0,0,0,11.937-3.785c3.951-1.687,7.869-3.694,11.842-5.743q5.928-3.068,11.831-6.214l11.789-6.33L247.128,80.15l7.052-3.83L210.73,0,180.714,52.722,150.7,0,121.555,51.189Z" class="cls-2"/><path d="M0,221.761l7.406-4.5c7.641-4.644,15.348-9.173,23.024-13.754s15.406-9.065,23.1-13.607l23.124-13.551,23.082-13.594,11.509-6.82,5.725-3.434,5.721-3.49c3.788-2.328,7.543-4.663,11.03-7.159a52.7,52.7,0,0,0,9.38-8.227,24.123,24.123,0,0,0,4.444-9.746c0.121-.89.2-1.779,0.24-2.66a21.7,21.7,0,0,0-.045-2.25l-0.03-.516c-0.02-.2-0.063-0.44-0.093-0.658l-0.1-.672-0.025-.168-0.006-.04-0.062-.3a43.032,43.032,0,0,0-1.265-4.882,79.7,79.7,0,0,0-3.888-9.63c-1.5-3.184-3.162-6.4-4.817-9.615s-3.317-6.422-5-9.623L127.51,73.5,125.6,70.137c-2.2-3.894-4.355-7.816-6.513-11.732l-6.453-11.759-6.422-11.773L99.864,23.06c-3.6-6.752-7.218-13.491-10.8-20.253l-67.2,118.041H49.774Z" class="cls-3"/><path d="M222.432,240.217L215.6,228.68,208.839,217.1q-6.744-11.592-13.41-23.24l-1.616-2.888-5.745-9.556q-2.8-4.628-5.659-9.256c-1.892-3.075-3.79-6.157-5.74-9.09a79.125,79.125,0,0,0-6.23-8.308c-0.558-.641-1.137-1.254-1.718-1.864l-0.854-.848c-0.289-.286-0.652-0.61-0.975-0.913a20.668,20.668,0,0,0-3.729-2.665,28.5,28.5,0,0,0-4.5-1.986,28.886,28.886,0,0,0-4.786-.6,21.568,21.568,0,0,0-2.251.045l-0.516.03c-0.2.02-.44,0.063-0.658,0.093l-0.672.1-0.168.025-0.034,0-0.3.063A43.009,43.009,0,0,0,144.4,147.5a79.649,79.649,0,0,0-9.63,3.888c-3.184,1.5-6.4,3.162-9.615,4.818s-6.422,3.317-9.623,5l-9.364,4.949-3.364,1.914c-3.894,2.2-7.816,4.355-11.732,6.513L79.31,181.034l-11.773,6.422L55.723,193.8c-7.889,4.2-15.753,8.45-23.666,12.608s-15.8,8.365-23.733,12.481L0.25,223.105H70.814v71.906a1.7,1.7,0,0,0,1.695,1.695h36.316a1.7,1.7,0,0,0,1.695-1.695V223.105h20.327v71.906a1.7,1.7,0,0,0,1.695,1.695h36.316a1.7,1.7,0,0,0,1.695-1.695V223.105h20.327v71.906a1.7,1.7,0,0,0,1.695,1.695h36.316a1.7,1.7,0,0,0,1.695-1.695V253.906Q226.5,247.063,222.432,240.217Z" class="cls-4"/><path d="M279.531,120.848L256.713,80.769l-6.953,4.057q-11.593,6.744-23.241,13.41l-2.889,1.617-9.555,5.744q-4.628,2.8-9.257,5.659c-3.074,1.893-6.157,3.79-9.09,5.74a79.107,79.107,0,0,0-8.308,6.23c-0.641.558-1.254,1.137-1.864,1.718l-0.848.854c-0.286.289-.61,0.652-0.914,0.975a20.669,20.669,0,0,0-2.664,3.729,27.6,27.6,0,0,0-1.239,2.582,30.653,30.653,0,0,0-1.12,4.809,19.544,19.544,0,0,0-.061,5.6,52.625,52.625,0,0,0,3.786,11.937c1.687,3.951,3.694,7.869,5.742,11.842q3.068,5.928,6.214,11.831l6.33,11.79,12.731,23.569,12.791,23.553q2.13,3.95,4.276,7.891v-22.8h71.477L251.623,120.848h27.907Z" class="cls-5"/></g></svg>