<svg xmlns="http://www.w3.org/2000/svg" xmlns:xlink="http://www.w3.org/1999/xlink" id="layer1" x="0" y="0" version="1.1" viewBox="0 0 400 300" xml:space="preserve" style="enable-background:new 0 0 400 300"><style type="text/css">.st0{fill:#303030}.st1{fill:url(#SVGID_1_)}.st2{fill:url(#SVGID_2_)}.st3{fill:url(#SVGID_3_)}.st4{fill:url(#SVGID_4_)}</style><g><g><path d="M231,174l-15-47.1h13.3l9,34.9h0.5l8.8-34.9h12.6L245.4,174H231z" class="st0"/><path d="M271.9,174.6c-7.2,0-12.2-4.2-12.2-11.2c0-6.7,4.7-11,13.3-11h8.5v-3.1c0-3-1.9-4.7-5-4.7s-5,1.7-5.1,4.2H261 c0.2-6,3.9-12.3,15.6-12.3c8.8,0,15.7,3.7,15.7,12.8V174H282v-4.4h-0.5C280.3,172.2,277.3,174.6,271.9,174.6z M281.5,162v-3.6 h-5.6c-3.4,0-5.3,1.7-5.3,4.1c0,2.9,2.5,4.3,5.1,4.3C278.8,166.9,281.5,165,281.5,162L281.5,162z" class="st0"/><path d="M300.4,124.4h11.1V174h-11.1V124.4z" class="st0"/><path d="M342.5,142.8h0.5v-18.3h11V174h-11v-5.8h-0.4c-1.6,3.8-5.4,6.2-10.5,6.2c-8.6,0-13.7-6.4-13.7-17.4v-3 c0-10.8,5.2-17.3,13.7-17.3C337.1,136.8,341,139.2,342.5,142.8z M329.8,154.4v2.3c0,6.1,2.8,9.1,6.5,9.1c4,0,6.7-3.1,6.7-9v-2.4 c0-5.8-2.7-9.1-6.7-9.1C332.5,145.4,329.8,148.4,329.8,154.4L329.8,154.4z" class="st0"/></g><g><linearGradient id="SVGID_1_" x1="106.6" x2="172.8" y1="882.758" y2="882.758" gradientTransform="matrix(1 0 0 1 0 -778)" gradientUnits="userSpaceOnUse"><stop offset="0" style="stop-color:#00bab1"/><stop offset="1" style="stop-color:#006076"/></linearGradient><path d="M111.3,109.5l3.4,5.7l1.7,2.9l1.7,2.9c1.2,1.9,2.3,3.8,3.6,5.5c1.2,1.7,2.6,3.3,4.1,4.7 c1.1,0.9,2.4,1.5,3.8,1.9c0.5,0.1,0.9,0.2,1.4,0.3c0.9,0.1,1.9,0.2,2.8,0c2.1-0.4,4.1-1,6-1.9c2-0.8,3.9-1.8,5.9-2.9 s3.9-2.1,5.9-3.1l5.9-3.2l11.8-6.3l3.5-1.9L151.1,76l-15,26.3l-15-26.3l-14.5,25.5L111.3,109.5z" class="st1"/><linearGradient id="SVGID_2_" x1="46" x2="119.7" y1="909.95" y2="909.95" gradientTransform="matrix(1 0 0 1 0 -778)" gradientUnits="userSpaceOnUse"><stop offset="0" style="stop-color:#00bab1"/><stop offset="1" style="stop-color:#006076"/></linearGradient><path d="M46,186.6l3.7-2.2c3.8-2.3,7.7-4.6,11.5-6.9s7.7-4.5,11.5-6.8l11.5-6.8l11.5-6.8l5.7-3.4l2.9-1.7l2.9-1.7 c1.9-1.2,3.8-2.3,5.5-3.6c1.7-1.2,3.3-2.6,4.7-4.1c1.1-1.4,1.9-3.1,2.2-4.9c0.1-0.4,0.1-0.9,0.1-1.3c0-0.4,0-0.7,0-1.1V135 c0-0.1,0-0.2,0-0.3l-0.1-0.3v-0.1l0,0v-0.1c-0.2-0.8-0.4-1.6-0.6-2.4c-0.5-1.6-1.2-3.2-1.9-4.8c-0.7-1.6-1.6-3.2-2.4-4.8 s-1.7-3.2-2.5-4.8l-2.5-4.7l-1-1.7c-1.1-1.9-2.2-3.9-3.2-5.9l-3.2-5.9l-3.2-5.9l-3.2-5.9c-1.8-3.4-3.6-6.7-5.4-10.1L57,136.2h13.9 L46,186.6z" class="st2"/><linearGradient id="SVGID_3_" x1="46.095" x2="160.973" y1="964.35" y2="964.35" gradientTransform="matrix(1 0 0 1 0 -778)" gradientUnits="userSpaceOnUse"><stop offset="0" style="stop-color:#00bab1"/><stop offset="1" style="stop-color:#006076"/></linearGradient><path d="M156.9,195.8l-3.4-5.8l-3.4-5.8c-2.2-3.9-4.5-7.7-6.7-11.6l-0.8-1.4l-2.9-4.8c-0.9-1.5-1.9-3.1-2.8-4.6 c-0.9-1.5-1.9-3.1-2.9-4.5c-0.9-1.4-2-2.8-3.1-4.1c-0.3-0.3-0.6-0.6-0.9-0.9l-0.4-0.4c-0.1-0.1-0.3-0.3-0.5-0.5 c-0.6-0.5-1.2-1-1.9-1.3c-0.7-0.4-1.5-0.7-2.2-1c-0.8-0.2-1.6-0.3-2.4-0.3c-0.4,0-0.7,0-1.1,0h-0.3c-0.1,0-0.2,0-0.3,0l-0.3,0.1 h-0.1l0,0h-0.2c-0.8,0.2-1.6,0.4-2.4,0.6c-1.6,0.5-3.2,1.2-4.8,1.9c-1.6,0.7-3.2,1.6-4.8,2.4s-3.2,1.7-4.8,2.5l-4.7,2.5l-1.7,1 c-1.9,1.1-3.9,2.2-5.9,3.2l-5.9,3.2l-5.9,3.2l-5.9,3.2c-3.9,2.1-7.9,4.2-11.8,6.3s-7.9,4.2-11.8,6.2l-4,2.1h35.2v35.9 c0,0.5,0.4,0.8,0.8,0.8l0,0H100c0.5,0,0.8-0.4,0.8-0.8l0,0v-35.9h10.1v35.9c0,0.5,0.4,0.8,0.8,0.8l0,0h18.1c0.5,0,0.8-0.4,0.8-0.8 l0,0v-35.9h10.1v35.9c0,0.5,0.4,0.8,0.8,0.8l0,0h18.1c0.5,0,0.8-0.4,0.8-0.8l0,0v-20.5C159.6,200.4,158.3,198.1,156.9,195.8z" class="st3"/><linearGradient id="SVGID_4_" x1="135.015" x2="196.624" y1="935.55" y2="935.55" gradientTransform="matrix(1 0 0 1 0 -778)" gradientUnits="userSpaceOnUse"><stop offset="0" style="stop-color:#00bab1"/><stop offset="1" style="stop-color:#006076"/></linearGradient><path d="M185.4,136.3l-11.4-20l-3.5,2c-3.9,2.2-7.7,4.5-11.6,6.7l-1.4,0.8l-4.8,2.9c-1.5,0.9-3.1,1.9-4.6,2.8 c-1.5,0.9-3.1,1.9-4.5,2.9c-1.4,0.9-2.8,2-4.1,3.1c-0.3,0.3-0.6,0.6-0.9,0.9l-0.4,0.4c-0.1,0.1-0.3,0.3-0.5,0.5 c-0.5,0.6-1,1.2-1.3,1.9c-0.2,0.4-0.4,0.8-0.6,1.3c-0.3,0.8-0.4,1.6-0.6,2.4c-0.1,0.9-0.2,1.9,0,2.8c0.4,2.1,1,4.1,1.9,6 c0.8,2,1.8,3.9,2.9,5.9s2.1,3.9,3.1,5.9l3.2,5.9l6.4,11.8l6.4,11.7c0.7,1.3,1.4,2.6,2.1,3.9v-11.4h35.7l-25.2-51L185.4,136.3 L185.4,136.3z" class="st4"/></g></g></svg>