<?xml version="1.0" encoding="utf-8"?>
<!-- Generator: Adobe Illustrator 24.1.0, SVG Export Plug-In . SVG Version: 6.00 Build 0)  -->
<svg version="1.1" id="Yahoo_x21__JAPAN" xmlns="http://www.w3.org/2000/svg" xmlns:xlink="http://www.w3.org/1999/xlink" x="0px"
	 y="0px" viewBox="0 0 285 71.75" style="enable-background:new 0 0 285 71.75;" xml:space="preserve">
<style type="text/css">
	.st0{fill:#FF0031;}
	.st1{fill:#FF0033;}
	.st2{fill:#FFFFFF;}
</style>
<g>
	<path class="st0" d="M183.04,46.93c-0.71,0.17-3.3,1.06-4.06,1.27c-0.08,2.39-0.46,13.09-0.46,13.09
		c-0.21,4.98-2.37,8.27-8.1,10.46l-2.07-0.51c2.79-1.66,4.02-3.11,4.37-4.33c0.57-1.57,0.86-5.21,0.86-11.91
		c0,0-0.06-5.06-0.19-6.77c-0.86-0.14-4.38-1-5.46-1.24l-0.05-1.59c2.24,0.07,7.13,0.14,9.06,0.14c1.93,0,4.27-0.1,6.24-0.14
		L183.04,46.93z"/>
	<path class="st0" d="M274.37,50.18c-0.42,0.1-1.62,0.37-2.67,0.6c-0.06,1.73,0.13,14.43,0.16,17.46c0,0.44-0.49,0.66-0.88,0.26
		c-2.75-2.69-11.5-12.61-14.42-16.2c-0.01,2.25,0.11,11.29,0.14,12.96c1.1,0.3,3.64,0.91,4.11,1.01l0.11,1.81
		c-2.21-0.02-9.53-0.02-9.66,0l0.03-1.75c0.95-0.4,1.84-0.73,2.69-1.06c0.12-1.06,0.1-13.57,0.11-14.37
		c-0.72-0.07-2.16-0.1-3.16-0.15v-2.17c1.2-0.02,4.91-0.01,6.94,0c2.53,2.87,8.58,9.63,11.65,13.06c0.03-2.9-0.17-9.69-0.21-10.86
		c-0.52-0.1-1.71-0.21-3.02-0.48l-0.17-1.71c0.52,0.05,3.82,0.1,4.43,0.1c0.62,0,3.37-0.16,3.94-0.21L274.37,50.18z"/>
	<path class="st0" d="M222.46,55.26c0,2.41-2.24,3.41-4.69,3.8v1.7c5.15-0.52,8.44-2.57,8.44-5.59v-0.15c0-3.51-2.33-6.55-7.83-6.66
		c0,0-1.98-0.08-3.12-0.08h-7.41l0.32,1.93c1.03,0.11,2.4,0.23,3.27,0.29c0.08,2.41,0.32,12.35,0.16,15.17
		c-0.59,0.13-2.53,0.52-3.28,0.71l-0.18,1.69c0.73-0.05,11.36-0.04,12.14,0l-0.09-1.45c-0.76-0.2-3.49-0.7-4.18-0.87
		c-0.09-0.67-0.29-14.73-0.24-15.34c1.1,0,3.12,0.05,4,0.28c2.1,0.56,2.7,2.83,2.7,4.25"/>
	<path class="st0" d="M79.21,10.18c-1.4,0.14-7.21,1.44-9.16,1.86c-2.09,0.56-22.16,16.26-23.42,19.89c-0.28,1.26,0,14.76,0,14.76
		l11.35,0.76l-0.4,3.74c-1.63-0.11-12.16-0.09-18.76-0.09c-3.35,0-13.56,0.37-17,0.27l0.43-3.57c2.15,0.18,5.43-0.16,7.45-0.69
		c2.01-0.53,3.45-1.33,3.45-3.35V32.03c-0.7-2.09-17.39-23.11-21.71-26.45C10.18,5.16,1.95,4.26,0,3.85l0.41-3.52H38.5l-0.55,3.24
		c-1.67,0.42-9.73,0.58-11.83,1.13c5.44,8.09,14.04,18.5,16.83,22.55c1.53-2.23,16.13-12.45,16.55-15.65
		c-2.09-0.42-9.02-1.42-10.13-1.42L48.7,6.59h32.89L79.21,10.18z"/>
	<path class="st0" d="M160.34,40.71c-6-0.36-16.53-0.21-22.74,0l0.37-3.18c0.93-0.09,5.84-0.87,7.09-1.05V25.62
		c-2.99,0-19.68,0.36-22.31,1.04v9.76c0,0,7.19,0.83,8.87,1.01l-0.38,3.3c-6.55-0.37-19.57-0.38-25.76-0.02l0.41-3.54
		c1.94-0.05,7.14-0.65,8.35-0.84c0.19-2.42,0.28-6.25,0.28-10.26v-4.95c0-1.68-0.09-6.53-0.19-8.21c-1.43,0-7.39-0.56-9.07-0.65
		l0.41-3.13c5.38,0.3,21.98,0.29,26.56,0.01l-0.47,2.92c-1.3,0.07-7.19,0.94-9,0.95v8.66h22.31V9.01c-1.64-0.17-5.66-1.07-7.44-1.15
		l0.35-2.91c3.73,0.28,18.48,0.23,22.43,0L160.11,8c-1.21,0.1-5.54,0.83-6.96,0.93v27.66c0,0,6.3,0.77,7.61,0.95L160.34,40.71z"/>
	<path class="st0" d="M272.87,43.98l-4.12,0.17l0.79-6.96l4.1,0.2l3.84-0.14l-0.81,6.81L272.87,43.98z M277.39,31.5h-6V0H285
		l-1.22,4.73L277.39,31.5z"/>
	<path class="st0" d="M186.43,37.36c-0.5,0.01-0.99,0.04-1.48,0.07c-0.49-0.02-0.98-0.05-1.48-0.07
		c-5.04-0.14-14.78-3.02-14.78-11.71c0-0.13,0-0.42,0-0.43s0-0.31,0-0.44c0-8.69,9.74-11.57,14.78-11.71
		c0.5-0.01,0.99-0.04,1.48-0.07c0.49,0.02,0.98,0.05,1.48,0.07c5.04,0.14,14.79,3.02,14.79,11.71c0,0.13,0,0.42,0,0.44
		c0,0.02,0,0.3,0,0.43C201.21,34.34,191.47,37.22,186.43,37.36 M209.79,25.01c0-9.99-9.57-16.05-24.14-16.35c0,0-0.52,0-0.71,0
		c-0.19,0-0.71,0-0.71,0c-15.46,0.32-24.01,6.42-24.01,16.4c0,0.05-0.01,0.1-0.01,0.15c0,0.05,0,0.1,0.01,0.15
		c0.1,9.4,9.44,16.09,24.01,16.4c0,0,0.52,0.01,0.71,0c0.19,0,0.71,0,0.71,0c14.57-0.3,23.96-6.6,24.14-16.36
		C209.79,25.35,209.79,25.06,209.79,25.01"/>
	<path class="st0" d="M241.56,34.15c-0.75,0.05-1.49,0.08-2.22,0.08c-0.73-0.01-1.47-0.03-2.22-0.08
		c-5.51-0.38-15.5-3.76-15.71-13.1c0.21-9.34,10.2-12.58,15.71-12.95c0.75-0.05,1.48-0.07,2.22-0.08c0.73,0.01,1.47,0.03,2.22,0.08
		c5.51,0.38,15.5,3.61,15.71,12.95C257.07,30.39,247.08,33.77,241.56,34.15 M266.66,21.05c0-0.06-0.01-0.18-0.01-0.18
		c-0.37-10.45-10.44-17.2-26.64-17.54c0,0-0.44-0.01-0.66-0.01c-0.22,0-0.66,0.01-0.66,0.01c-16.21,0.34-26.32,6.63-26.64,17.54
		v0.18v0.16c0.32,10.91,10.43,17.35,26.64,17.69c0,0,0.44,0.01,0.66,0.01c0.22,0,0.66-0.01,0.66-0.01
		c16.21-0.34,26.32-6.78,26.64-17.69C266.65,21.22,266.66,21.11,266.66,21.05"/>
	<path class="st0" d="M79.04,32c0.53-1.41,5.27-11.48,5.27-11.48L88.77,32H79.04z M103.45,45.2c-1.69-2.77-8.06-18.47-10.91-25.58
		l5.23-0.82l0.63-2.68h-7.96l0.01,0.03c-3.02,0.04-15.34-0.07-16.69-0.15l-0.23,2.79l6.32,1.51c0,0-9.25,18.29-11.1,20.93
		c-1.64,0.36-5.66,1.32-7.17,1.5l-0.43,3.38c1.25-0.18,17.4-0.08,18.89,0l0.35-3.05l-5.63-1.33c0,0,2.56-5.32,2.91-5.93
		c1.85-0.35,12.35-0.51,12.35-0.51l3.74,10.15c0,0-4.45,0.69-6.21,0.77l-0.4,3.33c1.32,0,22.65-0.09,23.26,0l0.36-2.99
		C109.18,46.47,104.95,45.46,103.45,45.2"/>
	<path class="st0" d="M246.58,65.79c-2.11-4.4-5.64-13.04-6.59-15.37l2.52-0.34l0.17-1.69l-10.42,0.36l-0.04,1.41l2.7,0.47
		c-1.79,3.9-6.38,13.86-7.18,15.03c-0.7,0.25-1.55,0.51-2.39,0.82l-0.17,1.58c2.39-0.13,7.55-0.05,8.36,0l0.04-1.42L231,65.91
		c0,0,1.61-3.9,2.2-5.08c2.01-0.03,7.32,0.02,7.32,0.02l1.97,5.17c0,0-1.84,0.39-3.2,0.65l-0.24,1.38c0.71,0,10.15-0.05,10.48,0
		l0.18-1.63C248.84,66.25,246.58,65.79,246.58,65.79z M233.89,59.1c0.42-1.03,3.14-7.41,3.14-7.41l2.88,7.43L233.89,59.1z"/>
	<path class="st0" d="M202.93,65.79c-1.32-2.75-4.91-11.35-6.55-15.37l2.73-0.49l0.08-1.53l-10.58,0.36l-0.02,1.4l2.7,0.47
		c-1.79,3.9-6.4,13.87-7.2,15.05c-0.88,0.32-1.64,0.56-2.39,0.82l-0.17,1.58c2.36-0.08,7.56-0.05,8.36,0l0.04-1.42l-2.59-0.74
		c0,0,1.62-3.9,2.2-5.07c2.01-0.03,7.32,0.02,7.32,0.02l1.97,5.17c0,0-1.84,0.39-3.2,0.65l-0.23,1.38c0.71,0,10.15-0.05,10.48,0
		l0.18-1.63C205.19,66.25,202.93,65.79,202.93,65.79z M190.24,59.11c0.42-1.03,3.14-7.41,3.14-7.41l2.88,7.43L190.24,59.11z"/>
</g>
</svg>
