<svg width="1275" height="554" viewBox="0 0 1275 554" fill="none" xmlns="http://www.w3.org/2000/svg">
<rect width="1275" height="554" fill="#F8F8F8"/>
<path d="M117.67 152.545L121.889 165.807H122.051L126.278 152.545H130.369L124.352 170H119.597L113.571 152.545H117.67ZM134.682 170.247C133.847 170.247 133.102 170.102 132.449 169.812C131.795 169.517 131.278 169.082 130.898 168.509C130.523 167.929 130.335 167.207 130.335 166.344C130.335 165.616 130.469 165.006 130.736 164.511C131.003 164.017 131.366 163.619 131.827 163.318C132.287 163.017 132.81 162.79 133.395 162.636C133.986 162.483 134.605 162.375 135.253 162.312C136.014 162.233 136.628 162.159 137.094 162.091C137.56 162.017 137.898 161.909 138.108 161.767C138.318 161.625 138.423 161.415 138.423 161.136V161.085C138.423 160.545 138.253 160.128 137.912 159.832C137.577 159.537 137.099 159.389 136.48 159.389C135.827 159.389 135.307 159.534 134.92 159.824C134.534 160.108 134.278 160.466 134.153 160.898L130.795 160.625C130.966 159.83 131.301 159.142 131.801 158.562C132.301 157.977 132.946 157.528 133.736 157.216C134.531 156.898 135.452 156.739 136.497 156.739C137.224 156.739 137.92 156.824 138.585 156.994C139.256 157.165 139.849 157.429 140.366 157.787C140.889 158.145 141.301 158.605 141.602 159.168C141.903 159.724 142.054 160.392 142.054 161.17V170H138.611V168.185H138.509C138.298 168.594 138.017 168.955 137.665 169.267C137.312 169.574 136.889 169.815 136.395 169.991C135.901 170.162 135.33 170.247 134.682 170.247ZM135.722 167.741C136.256 167.741 136.727 167.636 137.136 167.426C137.545 167.21 137.866 166.92 138.099 166.557C138.332 166.193 138.449 165.781 138.449 165.321V163.932C138.335 164.006 138.179 164.074 137.98 164.136C137.787 164.193 137.568 164.247 137.324 164.298C137.08 164.344 136.835 164.386 136.591 164.426C136.347 164.46 136.125 164.491 135.926 164.52C135.5 164.582 135.128 164.682 134.81 164.818C134.491 164.955 134.244 165.139 134.068 165.372C133.892 165.599 133.804 165.884 133.804 166.224C133.804 166.719 133.983 167.097 134.341 167.358C134.705 167.614 135.165 167.741 135.722 167.741ZM148.501 152.545V170H144.871V152.545H148.501ZM156.234 170.213C155.239 170.213 154.339 169.957 153.532 169.446C152.731 168.929 152.094 168.17 151.623 167.17C151.157 166.165 150.924 164.932 150.924 163.472C150.924 161.972 151.165 160.724 151.648 159.73C152.131 158.73 152.773 157.983 153.575 157.489C154.381 156.989 155.265 156.739 156.225 156.739C156.958 156.739 157.569 156.864 158.058 157.114C158.552 157.358 158.95 157.665 159.251 158.034C159.558 158.398 159.79 158.756 159.95 159.108H160.06V152.545H163.683V170H160.103V167.903H159.95C159.779 168.267 159.538 168.628 159.225 168.986C158.918 169.338 158.518 169.631 158.023 169.864C157.535 170.097 156.938 170.213 156.234 170.213ZM157.384 167.324C157.969 167.324 158.464 167.165 158.867 166.847C159.276 166.523 159.589 166.071 159.805 165.491C160.026 164.912 160.137 164.233 160.137 163.455C160.137 162.676 160.029 162 159.813 161.426C159.597 160.852 159.285 160.409 158.876 160.097C158.467 159.784 157.969 159.628 157.384 159.628C156.788 159.628 156.285 159.79 155.876 160.114C155.467 160.437 155.157 160.886 154.947 161.46C154.737 162.034 154.631 162.699 154.631 163.455C154.631 164.216 154.737 164.889 154.947 165.474C155.163 166.054 155.472 166.509 155.876 166.838C156.285 167.162 156.788 167.324 157.384 167.324ZM178.137 170.256C176.796 170.256 175.643 169.972 174.677 169.403C173.717 168.83 172.978 168.034 172.461 167.017C171.95 166 171.694 164.83 171.694 163.506C171.694 162.165 171.952 160.989 172.469 159.977C172.992 158.96 173.734 158.168 174.694 157.599C175.654 157.026 176.796 156.739 178.12 156.739C179.262 156.739 180.262 156.946 181.12 157.361C181.978 157.776 182.657 158.358 183.157 159.108C183.657 159.858 183.933 160.739 183.984 161.75H180.558C180.461 161.097 180.205 160.571 179.79 160.173C179.381 159.77 178.844 159.568 178.18 159.568C177.617 159.568 177.126 159.722 176.705 160.028C176.29 160.33 175.967 160.77 175.734 161.349C175.501 161.929 175.384 162.631 175.384 163.455C175.384 164.29 175.498 165 175.725 165.585C175.958 166.17 176.285 166.616 176.705 166.923C177.126 167.23 177.617 167.384 178.18 167.384C178.594 167.384 178.967 167.298 179.296 167.128C179.631 166.957 179.907 166.71 180.123 166.386C180.344 166.057 180.489 165.662 180.558 165.202H183.984C183.927 166.202 183.654 167.082 183.165 167.844C182.683 168.599 182.015 169.19 181.163 169.616C180.31 170.043 179.302 170.256 178.137 170.256ZM189.939 152.545V170H186.308V152.545H189.939ZM201.242 164.426V156.909H204.873V170H201.387V167.622H201.251C200.955 168.389 200.464 169.006 199.776 169.472C199.094 169.937 198.262 170.17 197.279 170.17C196.404 170.17 195.634 169.972 194.969 169.574C194.305 169.176 193.785 168.611 193.41 167.878C193.04 167.145 192.853 166.267 192.847 165.244V156.909H196.478V164.597C196.484 165.369 196.691 165.98 197.1 166.429C197.509 166.878 198.058 167.102 198.745 167.102C199.183 167.102 199.592 167.003 199.972 166.804C200.353 166.599 200.66 166.298 200.893 165.901C201.131 165.503 201.248 165.011 201.242 164.426ZM218.669 160.642L215.345 160.847C215.288 160.562 215.166 160.307 214.979 160.08C214.791 159.847 214.544 159.662 214.237 159.526C213.936 159.384 213.575 159.312 213.155 159.312C212.592 159.312 212.118 159.432 211.732 159.67C211.345 159.903 211.152 160.216 211.152 160.608C211.152 160.92 211.277 161.185 211.527 161.401C211.777 161.616 212.206 161.79 212.814 161.92L215.183 162.398C216.456 162.659 217.405 163.08 218.03 163.659C218.655 164.239 218.967 165 218.967 165.943C218.967 166.801 218.714 167.554 218.209 168.202C217.709 168.849 217.021 169.355 216.146 169.719C215.277 170.077 214.274 170.256 213.138 170.256C211.405 170.256 210.024 169.895 208.996 169.173C207.973 168.446 207.374 167.457 207.197 166.207L210.768 166.02C210.876 166.548 211.138 166.952 211.553 167.23C211.967 167.503 212.499 167.639 213.146 167.639C213.783 167.639 214.294 167.517 214.68 167.273C215.072 167.023 215.271 166.702 215.277 166.31C215.271 165.98 215.132 165.71 214.859 165.5C214.587 165.284 214.166 165.119 213.598 165.006L211.331 164.554C210.053 164.298 209.101 163.855 208.476 163.224C207.857 162.594 207.547 161.79 207.547 160.812C207.547 159.972 207.774 159.247 208.229 158.639C208.689 158.031 209.334 157.562 210.163 157.233C210.999 156.903 211.976 156.739 213.095 156.739C214.749 156.739 216.05 157.088 216.999 157.787C217.953 158.486 218.51 159.437 218.669 160.642ZM228.217 156.909V159.636H220.333V156.909H228.217ZM222.123 153.773H225.754V165.977C225.754 166.312 225.805 166.574 225.907 166.761C226.009 166.943 226.151 167.071 226.333 167.145C226.521 167.219 226.737 167.256 226.981 167.256C227.151 167.256 227.322 167.241 227.492 167.213C227.663 167.179 227.793 167.153 227.884 167.136L228.455 169.838C228.273 169.895 228.018 169.96 227.688 170.034C227.359 170.114 226.958 170.162 226.487 170.179C225.612 170.213 224.844 170.097 224.185 169.83C223.532 169.562 223.023 169.148 222.66 168.585C222.296 168.023 222.117 167.312 222.123 166.455V153.773ZM236.407 170.256C235.06 170.256 233.901 169.983 232.93 169.438C231.964 168.886 231.219 168.108 230.697 167.102C230.174 166.091 229.913 164.895 229.913 163.514C229.913 162.168 230.174 160.986 230.697 159.969C231.219 158.952 231.955 158.159 232.904 157.591C233.859 157.023 234.978 156.739 236.262 156.739C237.126 156.739 237.93 156.878 238.674 157.156C239.424 157.429 240.077 157.841 240.634 158.392C241.197 158.943 241.634 159.636 241.947 160.472C242.259 161.301 242.415 162.273 242.415 163.386V164.384H231.362V162.134H238.998C238.998 161.611 238.884 161.148 238.657 160.744C238.43 160.341 238.114 160.026 237.711 159.798C237.313 159.565 236.85 159.449 236.322 159.449C235.771 159.449 235.282 159.577 234.856 159.832C234.435 160.082 234.106 160.42 233.867 160.847C233.629 161.267 233.506 161.736 233.501 162.253V164.392C233.501 165.04 233.62 165.599 233.859 166.071C234.103 166.543 234.447 166.906 234.89 167.162C235.333 167.418 235.859 167.545 236.467 167.545C236.87 167.545 237.239 167.489 237.575 167.375C237.91 167.261 238.197 167.091 238.435 166.864C238.674 166.636 238.856 166.358 238.981 166.028L242.339 166.25C242.168 167.057 241.819 167.761 241.29 168.364C240.768 168.96 240.092 169.426 239.262 169.761C238.438 170.091 237.487 170.256 236.407 170.256ZM244.785 170V156.909H248.305V159.193H248.441C248.68 158.381 249.08 157.767 249.643 157.352C250.205 156.932 250.853 156.722 251.586 156.722C251.768 156.722 251.964 156.733 252.174 156.756C252.384 156.778 252.569 156.81 252.728 156.849V160.071C252.558 160.02 252.322 159.974 252.021 159.935C251.719 159.895 251.444 159.875 251.194 159.875C250.66 159.875 250.183 159.991 249.762 160.224C249.347 160.452 249.018 160.77 248.773 161.179C248.535 161.588 248.415 162.06 248.415 162.594V170H244.785ZM262.363 161.392V164.273H254.403V161.392H262.363ZM272.266 170.384C270.8 170.378 269.539 170.017 268.482 169.301C267.431 168.585 266.621 167.548 266.053 166.19C265.491 164.832 265.212 163.199 265.218 161.29C265.218 159.386 265.499 157.764 266.062 156.423C266.63 155.082 267.44 154.062 268.491 153.364C269.548 152.659 270.806 152.307 272.266 152.307C273.727 152.307 274.982 152.659 276.033 153.364C277.09 154.068 277.903 155.091 278.471 156.432C279.039 157.767 279.32 159.386 279.315 161.29C279.315 163.205 279.031 164.841 278.462 166.199C277.9 167.557 277.093 168.594 276.042 169.31C274.991 170.026 273.732 170.384 272.266 170.384ZM272.266 167.324C273.266 167.324 274.065 166.821 274.661 165.815C275.258 164.81 275.553 163.301 275.548 161.29C275.548 159.966 275.411 158.864 275.138 157.983C274.871 157.102 274.491 156.44 273.996 155.997C273.508 155.554 272.931 155.332 272.266 155.332C271.272 155.332 270.477 155.83 269.88 156.824C269.283 157.818 268.982 159.307 268.977 161.29C268.977 162.631 269.11 163.75 269.377 164.648C269.65 165.54 270.033 166.21 270.528 166.659C271.022 167.102 271.602 167.324 272.266 167.324ZM289.54 152.545V170H285.849V156.048H285.747L281.75 158.554V155.281L286.071 152.545H289.54Z" fill="#333333"/>
<rect x="96" y="130" width="456" height="315" rx="3" stroke="#CCCCCC" stroke-width="2"/>
<path d="M748.67 152.545L752.889 165.807H753.051L757.278 152.545H761.369L755.352 170H750.597L744.571 152.545H748.67ZM765.682 170.247C764.847 170.247 764.102 170.102 763.449 169.812C762.795 169.517 762.278 169.082 761.898 168.509C761.523 167.929 761.335 167.207 761.335 166.344C761.335 165.616 761.469 165.006 761.736 164.511C762.003 164.017 762.366 163.619 762.827 163.318C763.287 163.017 763.81 162.79 764.395 162.636C764.986 162.483 765.605 162.375 766.253 162.312C767.014 162.233 767.628 162.159 768.094 162.091C768.56 162.017 768.898 161.909 769.108 161.767C769.318 161.625 769.423 161.415 769.423 161.136V161.085C769.423 160.545 769.253 160.128 768.912 159.832C768.577 159.537 768.099 159.389 767.48 159.389C766.827 159.389 766.307 159.534 765.92 159.824C765.534 160.108 765.278 160.466 765.153 160.898L761.795 160.625C761.966 159.83 762.301 159.142 762.801 158.562C763.301 157.977 763.946 157.528 764.736 157.216C765.531 156.898 766.452 156.739 767.497 156.739C768.224 156.739 768.92 156.824 769.585 156.994C770.256 157.165 770.849 157.429 771.366 157.787C771.889 158.145 772.301 158.605 772.602 159.168C772.903 159.724 773.054 160.392 773.054 161.17V170H769.611V168.185H769.509C769.298 168.594 769.017 168.955 768.665 169.267C768.312 169.574 767.889 169.815 767.395 169.991C766.901 170.162 766.33 170.247 765.682 170.247ZM766.722 167.741C767.256 167.741 767.727 167.636 768.136 167.426C768.545 167.21 768.866 166.92 769.099 166.557C769.332 166.193 769.449 165.781 769.449 165.321V163.932C769.335 164.006 769.179 164.074 768.98 164.136C768.787 164.193 768.568 164.247 768.324 164.298C768.08 164.344 767.835 164.386 767.591 164.426C767.347 164.46 767.125 164.491 766.926 164.52C766.5 164.582 766.128 164.682 765.81 164.818C765.491 164.955 765.244 165.139 765.068 165.372C764.892 165.599 764.804 165.884 764.804 166.224C764.804 166.719 764.983 167.097 765.341 167.358C765.705 167.614 766.165 167.741 766.722 167.741ZM779.501 152.545V170H775.871V152.545H779.501ZM787.234 170.213C786.239 170.213 785.339 169.957 784.532 169.446C783.731 168.929 783.094 168.17 782.623 167.17C782.157 166.165 781.924 164.932 781.924 163.472C781.924 161.972 782.165 160.724 782.648 159.73C783.131 158.73 783.773 157.983 784.575 157.489C785.381 156.989 786.265 156.739 787.225 156.739C787.958 156.739 788.569 156.864 789.058 157.114C789.552 157.358 789.95 157.665 790.251 158.034C790.558 158.398 790.79 158.756 790.95 159.108H791.06V152.545H794.683V170H791.103V167.903H790.95C790.779 168.267 790.538 168.628 790.225 168.986C789.918 169.338 789.518 169.631 789.023 169.864C788.535 170.097 787.938 170.213 787.234 170.213ZM788.384 167.324C788.969 167.324 789.464 167.165 789.867 166.847C790.276 166.523 790.589 166.071 790.805 165.491C791.026 164.912 791.137 164.233 791.137 163.455C791.137 162.676 791.029 162 790.813 161.426C790.597 160.852 790.285 160.409 789.876 160.097C789.467 159.784 788.969 159.628 788.384 159.628C787.788 159.628 787.285 159.79 786.876 160.114C786.467 160.437 786.157 160.886 785.947 161.46C785.737 162.034 785.631 162.699 785.631 163.455C785.631 164.216 785.737 164.889 785.947 165.474C786.163 166.054 786.472 166.509 786.876 166.838C787.285 167.162 787.788 167.324 788.384 167.324ZM809.137 170.256C807.796 170.256 806.643 169.972 805.677 169.403C804.717 168.83 803.978 168.034 803.461 167.017C802.95 166 802.694 164.83 802.694 163.506C802.694 162.165 802.952 160.989 803.469 159.977C803.992 158.96 804.734 158.168 805.694 157.599C806.654 157.026 807.796 156.739 809.12 156.739C810.262 156.739 811.262 156.946 812.12 157.361C812.978 157.776 813.657 158.358 814.157 159.108C814.657 159.858 814.933 160.739 814.984 161.75H811.558C811.461 161.097 811.205 160.571 810.79 160.173C810.381 159.77 809.844 159.568 809.18 159.568C808.617 159.568 808.126 159.722 807.705 160.028C807.29 160.33 806.967 160.77 806.734 161.349C806.501 161.929 806.384 162.631 806.384 163.455C806.384 164.29 806.498 165 806.725 165.585C806.958 166.17 807.285 166.616 807.705 166.923C808.126 167.23 808.617 167.384 809.18 167.384C809.594 167.384 809.967 167.298 810.296 167.128C810.631 166.957 810.907 166.71 811.123 166.386C811.344 166.057 811.489 165.662 811.558 165.202H814.984C814.927 166.202 814.654 167.082 814.165 167.844C813.683 168.599 813.015 169.19 812.163 169.616C811.31 170.043 810.302 170.256 809.137 170.256ZM820.939 152.545V170H817.308V152.545H820.939ZM832.242 164.426V156.909H835.873V170H832.387V167.622H832.251C831.955 168.389 831.464 169.006 830.776 169.472C830.094 169.937 829.262 170.17 828.279 170.17C827.404 170.17 826.634 169.972 825.969 169.574C825.305 169.176 824.785 168.611 824.41 167.878C824.04 167.145 823.853 166.267 823.847 165.244V156.909H827.478V164.597C827.484 165.369 827.691 165.98 828.1 166.429C828.509 166.878 829.058 167.102 829.745 167.102C830.183 167.102 830.592 167.003 830.972 166.804C831.353 166.599 831.66 166.298 831.893 165.901C832.131 165.503 832.248 165.011 832.242 164.426ZM849.669 160.642L846.345 160.847C846.288 160.562 846.166 160.307 845.979 160.08C845.791 159.847 845.544 159.662 845.237 159.526C844.936 159.384 844.575 159.312 844.155 159.312C843.592 159.312 843.118 159.432 842.732 159.67C842.345 159.903 842.152 160.216 842.152 160.608C842.152 160.92 842.277 161.185 842.527 161.401C842.777 161.616 843.206 161.79 843.814 161.92L846.183 162.398C847.456 162.659 848.405 163.08 849.03 163.659C849.655 164.239 849.967 165 849.967 165.943C849.967 166.801 849.714 167.554 849.209 168.202C848.709 168.849 848.021 169.355 847.146 169.719C846.277 170.077 845.274 170.256 844.138 170.256C842.405 170.256 841.024 169.895 839.996 169.173C838.973 168.446 838.374 167.457 838.197 166.207L841.768 166.02C841.876 166.548 842.138 166.952 842.553 167.23C842.967 167.503 843.499 167.639 844.146 167.639C844.783 167.639 845.294 167.517 845.68 167.273C846.072 167.023 846.271 166.702 846.277 166.31C846.271 165.98 846.132 165.71 845.859 165.5C845.587 165.284 845.166 165.119 844.598 165.006L842.331 164.554C841.053 164.298 840.101 163.855 839.476 163.224C838.857 162.594 838.547 161.79 838.547 160.812C838.547 159.972 838.774 159.247 839.229 158.639C839.689 158.031 840.334 157.562 841.163 157.233C841.999 156.903 842.976 156.739 844.095 156.739C845.749 156.739 847.05 157.088 847.999 157.787C848.953 158.486 849.51 159.437 849.669 160.642ZM859.217 156.909V159.636H851.333V156.909H859.217ZM853.123 153.773H856.754V165.977C856.754 166.312 856.805 166.574 856.907 166.761C857.009 166.943 857.151 167.071 857.333 167.145C857.521 167.219 857.737 167.256 857.981 167.256C858.151 167.256 858.322 167.241 858.492 167.213C858.663 167.179 858.793 167.153 858.884 167.136L859.455 169.838C859.273 169.895 859.018 169.96 858.688 170.034C858.359 170.114 857.958 170.162 857.487 170.179C856.612 170.213 855.844 170.097 855.185 169.83C854.532 169.562 854.023 169.148 853.66 168.585C853.296 168.023 853.117 167.312 853.123 166.455V153.773ZM867.407 170.256C866.06 170.256 864.901 169.983 863.93 169.438C862.964 168.886 862.219 168.108 861.697 167.102C861.174 166.091 860.913 164.895 860.913 163.514C860.913 162.168 861.174 160.986 861.697 159.969C862.219 158.952 862.955 158.159 863.904 157.591C864.859 157.023 865.978 156.739 867.262 156.739C868.126 156.739 868.93 156.878 869.674 157.156C870.424 157.429 871.077 157.841 871.634 158.392C872.197 158.943 872.634 159.636 872.947 160.472C873.259 161.301 873.415 162.273 873.415 163.386V164.384H862.362V162.134H869.998C869.998 161.611 869.884 161.148 869.657 160.744C869.43 160.341 869.114 160.026 868.711 159.798C868.313 159.565 867.85 159.449 867.322 159.449C866.771 159.449 866.282 159.577 865.856 159.832C865.435 160.082 865.106 160.42 864.867 160.847C864.629 161.267 864.506 161.736 864.501 162.253V164.392C864.501 165.04 864.62 165.599 864.859 166.071C865.103 166.543 865.447 166.906 865.89 167.162C866.333 167.418 866.859 167.545 867.467 167.545C867.87 167.545 868.239 167.489 868.575 167.375C868.91 167.261 869.197 167.091 869.435 166.864C869.674 166.636 869.856 166.358 869.981 166.028L873.339 166.25C873.168 167.057 872.819 167.761 872.29 168.364C871.768 168.96 871.092 169.426 870.262 169.761C869.438 170.091 868.487 170.256 867.407 170.256ZM875.785 170V156.909H879.305V159.193H879.441C879.68 158.381 880.08 157.767 880.643 157.352C881.205 156.932 881.853 156.722 882.586 156.722C882.768 156.722 882.964 156.733 883.174 156.756C883.384 156.778 883.569 156.81 883.728 156.849V160.071C883.558 160.02 883.322 159.974 883.021 159.935C882.719 159.895 882.444 159.875 882.194 159.875C881.66 159.875 881.183 159.991 880.762 160.224C880.347 160.452 880.018 160.77 879.773 161.179C879.535 161.588 879.415 162.06 879.415 162.594V170H875.785ZM893.363 161.392V164.273H885.403V161.392H893.363ZM903.266 170.384C901.8 170.378 900.539 170.017 899.482 169.301C898.431 168.585 897.621 167.548 897.053 166.19C896.491 164.832 896.212 163.199 896.218 161.29C896.218 159.386 896.499 157.764 897.062 156.423C897.63 155.082 898.44 154.062 899.491 153.364C900.548 152.659 901.806 152.307 903.266 152.307C904.727 152.307 905.982 152.659 907.033 153.364C908.09 154.068 908.903 155.091 909.471 156.432C910.039 157.767 910.32 159.386 910.315 161.29C910.315 163.205 910.031 164.841 909.462 166.199C908.9 167.557 908.093 168.594 907.042 169.31C905.991 170.026 904.732 170.384 903.266 170.384ZM903.266 167.324C904.266 167.324 905.065 166.821 905.661 165.815C906.258 164.81 906.553 163.301 906.548 161.29C906.548 159.966 906.411 158.864 906.138 157.983C905.871 157.102 905.491 156.44 904.996 155.997C904.508 155.554 903.931 155.332 903.266 155.332C902.272 155.332 901.477 155.83 900.88 156.824C900.283 157.818 899.982 159.307 899.977 161.29C899.977 162.631 900.11 163.75 900.377 164.648C900.65 165.54 901.033 166.21 901.528 166.659C902.022 167.102 902.602 167.324 903.266 167.324ZM912.946 170V167.341L919.159 161.588C919.688 161.077 920.131 160.616 920.489 160.207C920.852 159.798 921.128 159.398 921.315 159.006C921.503 158.608 921.597 158.179 921.597 157.719C921.597 157.207 921.48 156.767 921.247 156.398C921.014 156.023 920.696 155.736 920.293 155.537C919.889 155.332 919.432 155.23 918.92 155.23C918.386 155.23 917.92 155.338 917.523 155.554C917.125 155.77 916.818 156.08 916.602 156.483C916.386 156.886 916.278 157.366 916.278 157.923H912.776C912.776 156.781 913.034 155.79 913.551 154.949C914.068 154.108 914.793 153.457 915.724 152.997C916.656 152.537 917.73 152.307 918.946 152.307C920.196 152.307 921.284 152.528 922.21 152.972C923.142 153.409 923.866 154.017 924.384 154.795C924.901 155.574 925.159 156.466 925.159 157.472C925.159 158.131 925.028 158.781 924.767 159.423C924.511 160.065 924.054 160.778 923.395 161.562C922.736 162.341 921.807 163.276 920.608 164.366L918.06 166.864V166.983H925.389V170H912.946Z" fill="#333333"/>
<rect x="727" y="130" width="456" height="315" rx="3" stroke="#CCCCCC" stroke-width="2"/>
<rect x="165.712" y="200.712" width="313.577" height="62.5767" rx="7.28833" fill="white"/>
<path d="M263.398 216.35C263.115 216.366 262.831 216.445 262.579 216.572L251.454 221.918C250.872 222.204 250.447 222.743 250.305 223.362L247.551 235.404C247.425 235.959 247.536 236.546 247.835 237.022C247.882 237.086 247.929 237.133 247.96 237.213L255.656 246.843C256.065 247.351 256.694 247.652 257.324 247.652H269.677C270.306 247.652 270.935 247.351 271.345 246.843L279.04 237.181C279.433 236.689 279.59 236.023 279.449 235.404L276.695 223.362C276.553 222.743 276.128 222.204 275.546 221.918L264.421 216.572C264.106 216.413 263.744 216.334 263.398 216.35Z" fill="#2875E2"/>
<path d="M269.085 239.55H265.026L256.286 228.834H253.761V225.346H257.868L266.624 236.046H269.085V233.277L274.63 237.798L269.085 242.319V239.55ZM264.675 231.275L266.624 228.881H269.085V231.65L274.63 227.129L269.085 222.608V225.377H265.026L262.454 228.553L264.675 231.275ZM258.283 233.652L256.286 236.093H253.761V239.581H257.868L260.504 236.374L258.283 233.652Z" fill="white"/>
<path d="M290.913 225.045H293.805L296.617 234.88L299.456 225.045H302.269L297.848 238H295.29L290.913 225.045ZM303.051 229.457C303.713 228.613 304.85 228.191 306.461 228.191C307.51 228.191 308.441 228.399 309.256 228.815C310.07 229.231 310.478 230.017 310.478 231.171V235.565C310.478 235.87 310.483 236.239 310.495 236.673C310.513 237.001 310.562 237.224 310.645 237.341C310.727 237.458 310.85 237.555 311.014 237.631V238H308.289C308.213 237.807 308.16 237.625 308.131 237.455C308.102 237.285 308.078 237.092 308.061 236.875C307.715 237.25 307.316 237.569 306.865 237.833C306.326 238.144 305.717 238.299 305.037 238.299C304.17 238.299 303.452 238.053 302.884 237.561C302.321 237.062 302.04 236.359 302.04 235.451C302.04 234.273 302.494 233.421 303.402 232.894C303.9 232.606 304.633 232.401 305.6 232.278L306.452 232.173C306.915 232.114 307.246 232.041 307.445 231.953C307.803 231.801 307.981 231.563 307.981 231.241C307.981 230.849 307.844 230.579 307.568 230.433C307.299 230.28 306.9 230.204 306.373 230.204C305.781 230.204 305.362 230.351 305.116 230.644C304.94 230.86 304.823 231.153 304.765 231.522H302.348C302.4 230.685 302.635 229.996 303.051 229.457ZM304.914 236.189C305.148 236.383 305.436 236.479 305.775 236.479C306.314 236.479 306.81 236.321 307.261 236.005C307.718 235.688 307.955 235.111 307.973 234.273V233.342C307.814 233.441 307.653 233.523 307.489 233.588C307.331 233.646 307.111 233.702 306.83 233.755L306.268 233.86C305.74 233.954 305.362 234.068 305.134 234.203C304.747 234.432 304.554 234.786 304.554 235.267C304.554 235.694 304.674 236.002 304.914 236.189ZM312.763 225.045H315.268V238H312.763V225.045ZM326.438 225.062V238H324.004V236.673C323.646 237.241 323.239 237.654 322.782 237.912C322.325 238.17 321.757 238.299 321.077 238.299C319.958 238.299 319.015 237.848 318.247 236.945C317.485 236.037 317.104 234.874 317.104 233.456C317.104 231.821 317.479 230.535 318.229 229.598C318.985 228.66 319.993 228.191 321.253 228.191C321.833 228.191 322.349 228.32 322.8 228.578C323.251 228.83 323.617 229.182 323.898 229.633V225.062H326.438ZM319.688 233.271C319.688 234.156 319.864 234.862 320.216 235.39C320.562 235.923 321.089 236.189 321.798 236.189C322.507 236.189 323.046 235.926 323.415 235.398C323.784 234.871 323.969 234.188 323.969 233.351C323.969 232.179 323.673 231.341 323.081 230.837C322.718 230.532 322.296 230.38 321.815 230.38C321.083 230.38 320.544 230.658 320.198 231.215C319.858 231.766 319.688 232.451 319.688 233.271ZM333.725 225.045H336.414V238H333.725V225.045ZM343.252 230.274C342.402 230.274 341.819 230.635 341.503 231.355C341.339 231.736 341.257 232.223 341.257 232.814V238H338.761V228.438H341.178V229.835C341.5 229.343 341.805 228.988 342.092 228.771C342.607 228.385 343.261 228.191 344.052 228.191C345.042 228.191 345.851 228.452 346.478 228.974C347.11 229.489 347.427 230.348 347.427 231.549V238H344.86V232.173C344.86 231.669 344.793 231.282 344.658 231.013C344.412 230.521 343.943 230.274 343.252 230.274ZM352.454 239.679C352.724 239.907 353.178 240.021 353.816 240.021C354.719 240.021 355.322 239.72 355.627 239.116C355.826 238.729 355.926 238.079 355.926 237.165V236.55C355.686 236.96 355.428 237.268 355.152 237.473C354.654 237.854 354.007 238.044 353.21 238.044C351.979 238.044 350.995 237.613 350.257 236.752C349.524 235.885 349.158 234.713 349.158 233.236C349.158 231.812 349.513 230.617 350.222 229.65C350.931 228.678 351.936 228.191 353.236 228.191C353.717 228.191 354.136 228.265 354.493 228.411C355.103 228.663 355.595 229.126 355.97 229.8V228.42H358.404V237.508C358.404 238.744 358.196 239.676 357.78 240.303C357.065 241.381 355.694 241.92 353.667 241.92C352.442 241.92 351.443 241.68 350.67 241.199C349.896 240.719 349.469 240.001 349.387 239.046H352.111C352.182 239.339 352.296 239.55 352.454 239.679ZM352.032 234.73C352.372 235.539 352.981 235.943 353.86 235.943C354.446 235.943 354.941 235.724 355.346 235.284C355.75 234.839 355.952 234.133 355.952 233.166C355.952 232.258 355.759 231.566 355.372 231.092C354.991 230.617 354.479 230.38 353.834 230.38C352.955 230.38 352.349 230.793 352.015 231.619C351.839 232.059 351.751 232.601 351.751 233.245C351.751 233.802 351.845 234.297 352.032 234.73ZM365.567 230.731C364.56 230.731 363.883 231.06 363.537 231.716C363.344 232.085 363.247 232.653 363.247 233.421V238H360.725V228.42H363.115V230.09C363.502 229.451 363.839 229.015 364.126 228.78C364.595 228.388 365.204 228.191 365.954 228.191C366.001 228.191 366.039 228.194 366.068 228.2C366.104 228.2 366.177 228.203 366.288 228.209V230.775C366.13 230.758 365.989 230.746 365.866 230.74C365.743 230.734 365.644 230.731 365.567 230.731ZM375.965 235.188C375.9 235.756 375.604 236.333 375.077 236.919C374.257 237.851 373.108 238.316 371.632 238.316C370.413 238.316 369.338 237.924 368.406 237.139C367.475 236.354 367.009 235.076 367.009 233.307C367.009 231.648 367.428 230.377 368.266 229.492C369.109 228.607 370.202 228.165 371.544 228.165C372.341 228.165 373.059 228.314 373.697 228.613C374.336 228.912 374.863 229.384 375.279 230.028C375.654 230.597 375.897 231.256 376.009 232.006C376.073 232.445 376.1 233.078 376.088 233.904H369.531C369.566 234.865 369.868 235.539 370.437 235.926C370.782 236.166 371.198 236.286 371.685 236.286C372.2 236.286 372.619 236.14 372.941 235.847C373.117 235.688 373.272 235.469 373.407 235.188H375.965ZM373.486 232.252C373.445 231.59 373.243 231.089 372.88 230.749C372.522 230.403 372.077 230.23 371.544 230.23C370.964 230.23 370.513 230.412 370.19 230.775C369.874 231.139 369.675 231.631 369.593 232.252H373.486ZM384.385 228.859C385.135 229.34 385.565 230.166 385.677 231.338H383.172C383.137 231.016 383.046 230.761 382.899 230.573C382.624 230.233 382.155 230.063 381.493 230.063C380.948 230.063 380.559 230.148 380.324 230.318C380.096 230.488 379.981 230.688 379.981 230.916C379.981 231.203 380.104 231.411 380.351 231.54C380.597 231.675 381.467 231.906 382.961 232.234C383.957 232.469 384.704 232.823 385.202 233.298C385.694 233.778 385.94 234.379 385.94 235.1C385.94 236.049 385.586 236.825 384.877 237.429C384.174 238.026 383.084 238.325 381.607 238.325C380.102 238.325 378.988 238.009 378.268 237.376C377.553 236.737 377.195 235.926 377.195 234.941H379.735C379.788 235.387 379.902 235.703 380.078 235.891C380.389 236.225 380.963 236.392 381.801 236.392C382.293 236.392 382.683 236.318 382.97 236.172C383.263 236.025 383.409 235.806 383.409 235.513C383.409 235.231 383.292 235.018 383.058 234.871C382.823 234.725 381.953 234.473 380.447 234.115C379.363 233.846 378.599 233.509 378.153 233.104C377.708 232.706 377.485 232.132 377.485 231.382C377.485 230.497 377.831 229.738 378.522 229.105C379.22 228.467 380.198 228.147 381.458 228.147C382.653 228.147 383.629 228.385 384.385 228.859ZM394.404 228.859C395.154 229.34 395.585 230.166 395.696 231.338H393.191C393.156 231.016 393.065 230.761 392.919 230.573C392.644 230.233 392.175 230.063 391.513 230.063C390.968 230.063 390.578 230.148 390.344 230.318C390.115 230.488 390.001 230.688 390.001 230.916C390.001 231.203 390.124 231.411 390.37 231.54C390.616 231.675 391.486 231.906 392.98 232.234C393.977 232.469 394.724 232.823 395.222 233.298C395.714 233.778 395.96 234.379 395.96 235.1C395.96 236.049 395.605 236.825 394.896 237.429C394.193 238.026 393.104 238.325 391.627 238.325C390.121 238.325 389.008 238.009 388.287 237.376C387.572 236.737 387.215 235.926 387.215 234.941H389.755C389.808 235.387 389.922 235.703 390.098 235.891C390.408 236.225 390.982 236.392 391.82 236.392C392.312 236.392 392.702 236.318 392.989 236.172C393.282 236.025 393.429 235.806 393.429 235.513C393.429 235.231 393.312 235.018 393.077 234.871C392.843 234.725 391.973 234.473 390.467 234.115C389.383 233.846 388.618 233.509 388.173 233.104C387.728 232.706 387.505 232.132 387.505 231.382C387.505 230.497 387.851 229.738 388.542 229.105C389.239 228.467 390.218 228.147 391.478 228.147C392.673 228.147 393.648 228.385 394.404 228.859Z" fill="#333333"/>
<rect x="165.712" y="200.712" width="313.577" height="62.5767" rx="7.28833" stroke="#CCCCCC" stroke-width="1.42334"/>
<rect x="796.712" y="200.712" width="314.577" height="62.5767" rx="7.28833" fill="white"/>
<path d="M894.898 216.35C894.615 216.366 894.331 216.445 894.079 216.572L882.954 221.918C882.372 222.204 881.947 222.743 881.805 223.362L879.051 235.404C878.925 235.959 879.036 236.546 879.335 237.022C879.382 237.086 879.429 237.133 879.46 237.213L887.156 246.843C887.565 247.351 888.194 247.652 888.824 247.652H901.177C901.806 247.652 902.435 247.351 902.845 246.843L910.54 237.181C910.933 236.689 911.09 236.023 910.949 235.404L908.195 223.362C908.053 222.743 907.628 222.204 907.046 221.918L895.921 216.572C895.606 216.413 895.244 216.334 894.898 216.35Z" fill="#2875E2"/>
<path d="M900.585 239.55H896.526L887.786 228.834H885.261V225.346H889.368L898.124 236.046H900.585V233.277L906.13 237.798L900.585 242.319V239.55ZM896.175 231.275L898.124 228.881H900.585V231.65L906.13 227.129L900.585 222.608V225.377H896.526L893.954 228.553L896.175 231.275ZM889.783 233.652L887.786 236.093H885.261V239.581H889.368L892.004 236.374L889.783 233.652Z" fill="white"/>
<path d="M922.413 225.045H925.305L928.117 234.88L930.956 225.045H933.769L929.348 238H926.79L922.413 225.045ZM934.551 229.457C935.213 228.613 936.35 228.191 937.961 228.191C939.01 228.191 939.941 228.399 940.756 228.815C941.57 229.231 941.978 230.017 941.978 231.171V235.565C941.978 235.87 941.983 236.239 941.995 236.673C942.013 237.001 942.062 237.224 942.145 237.341C942.227 237.458 942.35 237.555 942.514 237.631V238H939.789C939.713 237.807 939.66 237.625 939.631 237.455C939.602 237.285 939.578 237.092 939.561 236.875C939.215 237.25 938.816 237.569 938.365 237.833C937.826 238.144 937.217 238.299 936.537 238.299C935.67 238.299 934.952 238.053 934.384 237.561C933.821 237.062 933.54 236.359 933.54 235.451C933.54 234.273 933.994 233.421 934.902 232.894C935.4 232.606 936.133 232.401 937.1 232.278L937.952 232.173C938.415 232.114 938.746 232.041 938.945 231.953C939.303 231.801 939.481 231.563 939.481 231.241C939.481 230.849 939.344 230.579 939.068 230.433C938.799 230.28 938.4 230.204 937.873 230.204C937.281 230.204 936.862 230.351 936.616 230.644C936.44 230.86 936.323 231.153 936.265 231.522H933.848C933.9 230.685 934.135 229.996 934.551 229.457ZM936.414 236.189C936.648 236.383 936.936 236.479 937.275 236.479C937.814 236.479 938.31 236.321 938.761 236.005C939.218 235.688 939.455 235.111 939.473 234.273V233.342C939.314 233.441 939.153 233.523 938.989 233.588C938.831 233.646 938.611 233.702 938.33 233.755L937.768 233.86C937.24 233.954 936.862 234.068 936.634 234.203C936.247 234.432 936.054 234.786 936.054 235.267C936.054 235.694 936.174 236.002 936.414 236.189ZM944.263 225.045H946.768V238H944.263V225.045ZM957.938 225.062V238H955.504V236.673C955.146 237.241 954.739 237.654 954.282 237.912C953.825 238.17 953.257 238.299 952.577 238.299C951.458 238.299 950.515 237.848 949.747 236.945C948.985 236.037 948.604 234.874 948.604 233.456C948.604 231.821 948.979 230.535 949.729 229.598C950.485 228.66 951.493 228.191 952.753 228.191C953.333 228.191 953.849 228.32 954.3 228.578C954.751 228.83 955.117 229.182 955.398 229.633V225.062H957.938ZM951.188 233.271C951.188 234.156 951.364 234.862 951.716 235.39C952.062 235.923 952.589 236.189 953.298 236.189C954.007 236.189 954.546 235.926 954.915 235.398C955.284 234.871 955.469 234.188 955.469 233.351C955.469 232.179 955.173 231.341 954.581 230.837C954.218 230.532 953.796 230.38 953.315 230.38C952.583 230.38 952.044 230.658 951.698 231.215C951.358 231.766 951.188 232.451 951.188 233.271ZM965.225 225.045H967.914V238H965.225V225.045ZM974.752 230.274C973.902 230.274 973.319 230.635 973.003 231.355C972.839 231.736 972.757 232.223 972.757 232.814V238H970.261V228.438H972.678V229.835C973 229.343 973.305 228.988 973.592 228.771C974.107 228.385 974.761 228.191 975.552 228.191C976.542 228.191 977.351 228.452 977.978 228.974C978.61 229.489 978.927 230.348 978.927 231.549V238H976.36V232.173C976.36 231.669 976.293 231.282 976.158 231.013C975.912 230.521 975.443 230.274 974.752 230.274ZM983.954 239.679C984.224 239.907 984.678 240.021 985.316 240.021C986.219 240.021 986.822 239.72 987.127 239.116C987.326 238.729 987.426 238.079 987.426 237.165V236.55C987.186 236.96 986.928 237.268 986.652 237.473C986.154 237.854 985.507 238.044 984.71 238.044C983.479 238.044 982.495 237.613 981.757 236.752C981.024 235.885 980.658 234.713 980.658 233.236C980.658 231.812 981.013 230.617 981.722 229.65C982.431 228.678 983.436 228.191 984.736 228.191C985.217 228.191 985.636 228.265 985.993 228.411C986.603 228.663 987.095 229.126 987.47 229.8V228.42H989.904V237.508C989.904 238.744 989.696 239.676 989.28 240.303C988.565 241.381 987.194 241.92 985.167 241.92C983.942 241.92 982.943 241.68 982.17 241.199C981.396 240.719 980.969 240.001 980.887 239.046H983.611C983.682 239.339 983.796 239.55 983.954 239.679ZM983.532 234.73C983.872 235.539 984.481 235.943 985.36 235.943C985.946 235.943 986.441 235.724 986.846 235.284C987.25 234.839 987.452 234.133 987.452 233.166C987.452 232.258 987.259 231.566 986.872 231.092C986.491 230.617 985.979 230.38 985.334 230.38C984.455 230.38 983.849 230.793 983.515 231.619C983.339 232.059 983.251 232.601 983.251 233.245C983.251 233.802 983.345 234.297 983.532 234.73ZM997.067 230.731C996.06 230.731 995.383 231.06 995.037 231.716C994.844 232.085 994.747 232.653 994.747 233.421V238H992.225V228.42H994.615V230.09C995.002 229.451 995.339 229.015 995.626 228.78C996.095 228.388 996.704 228.191 997.454 228.191C997.501 228.191 997.539 228.194 997.568 228.2C997.604 228.2 997.677 228.203 997.788 228.209V230.775C997.63 230.758 997.489 230.746 997.366 230.74C997.243 230.734 997.144 230.731 997.067 230.731ZM1007.46 235.188C1007.4 235.756 1007.1 236.333 1006.58 236.919C1005.76 237.851 1004.61 238.316 1003.13 238.316C1001.91 238.316 1000.84 237.924 999.906 237.139C998.975 236.354 998.509 235.076 998.509 233.307C998.509 231.648 998.928 230.377 999.766 229.492C1000.61 228.607 1001.7 228.165 1003.04 228.165C1003.84 228.165 1004.56 228.314 1005.2 228.613C1005.84 228.912 1006.36 229.384 1006.78 230.028C1007.15 230.597 1007.4 231.256 1007.51 232.006C1007.57 232.445 1007.6 233.078 1007.59 233.904H1001.03C1001.07 234.865 1001.37 235.539 1001.94 235.926C1002.28 236.166 1002.7 236.286 1003.18 236.286C1003.7 236.286 1004.12 236.14 1004.44 235.847C1004.62 235.688 1004.77 235.469 1004.91 235.188H1007.46ZM1004.99 232.252C1004.95 231.59 1004.74 231.089 1004.38 230.749C1004.02 230.403 1003.58 230.23 1003.04 230.23C1002.46 230.23 1002.01 230.412 1001.69 230.775C1001.37 231.139 1001.17 231.631 1001.09 232.252H1004.99ZM1015.88 228.859C1016.63 229.34 1017.07 230.166 1017.18 231.338H1014.67C1014.64 231.016 1014.55 230.761 1014.4 230.573C1014.12 230.233 1013.66 230.063 1012.99 230.063C1012.45 230.063 1012.06 230.148 1011.82 230.318C1011.6 230.488 1011.48 230.688 1011.48 230.916C1011.48 231.203 1011.6 231.411 1011.85 231.54C1012.1 231.675 1012.97 231.906 1014.46 232.234C1015.46 232.469 1016.2 232.823 1016.7 233.298C1017.19 233.778 1017.44 234.379 1017.44 235.1C1017.44 236.049 1017.09 236.825 1016.38 237.429C1015.67 238.026 1014.58 238.325 1013.11 238.325C1011.6 238.325 1010.49 238.009 1009.77 237.376C1009.05 236.737 1008.7 235.926 1008.7 234.941H1011.24C1011.29 235.387 1011.4 235.703 1011.58 235.891C1011.89 236.225 1012.46 236.392 1013.3 236.392C1013.79 236.392 1014.18 236.318 1014.47 236.172C1014.76 236.025 1014.91 235.806 1014.91 235.513C1014.91 235.231 1014.79 235.018 1014.56 234.871C1014.32 234.725 1013.45 234.473 1011.95 234.115C1010.86 233.846 1010.1 233.509 1009.65 233.104C1009.21 232.706 1008.99 232.132 1008.99 231.382C1008.99 230.497 1009.33 229.738 1010.02 229.105C1010.72 228.467 1011.7 228.147 1012.96 228.147C1014.15 228.147 1015.13 228.385 1015.88 228.859ZM1025.9 228.859C1026.65 229.34 1027.08 230.166 1027.2 231.338H1024.69C1024.66 231.016 1024.57 230.761 1024.42 230.573C1024.14 230.233 1023.67 230.063 1023.01 230.063C1022.47 230.063 1022.08 230.148 1021.84 230.318C1021.62 230.488 1021.5 230.688 1021.5 230.916C1021.5 231.203 1021.62 231.411 1021.87 231.54C1022.12 231.675 1022.99 231.906 1024.48 232.234C1025.48 232.469 1026.22 232.823 1026.72 233.298C1027.21 233.778 1027.46 234.379 1027.46 235.1C1027.46 236.049 1027.11 236.825 1026.4 237.429C1025.69 238.026 1024.6 238.325 1023.13 238.325C1021.62 238.325 1020.51 238.009 1019.79 237.376C1019.07 236.737 1018.71 235.926 1018.71 234.941H1021.25C1021.31 235.387 1021.42 235.703 1021.6 235.891C1021.91 236.225 1022.48 236.392 1023.32 236.392C1023.81 236.392 1024.2 236.318 1024.49 236.172C1024.78 236.025 1024.93 235.806 1024.93 235.513C1024.93 235.231 1024.81 235.018 1024.58 234.871C1024.34 234.725 1023.47 234.473 1021.97 234.115C1020.88 233.846 1020.12 233.509 1019.67 233.104C1019.23 232.706 1019 232.132 1019 231.382C1019 230.497 1019.35 229.738 1020.04 229.105C1020.74 228.467 1021.72 228.147 1022.98 228.147C1024.17 228.147 1025.15 228.385 1025.9 228.859Z" fill="#333333"/>
<rect x="796.712" y="200.712" width="314.577" height="62.5767" rx="7.28833" stroke="#CCCCCC" stroke-width="1.42334"/>
<rect x="165.712" y="344.712" width="313.577" height="62.5767" rx="7.28833" fill="white"/>
<path d="M229.898 360.35C229.615 360.366 229.331 360.445 229.079 360.572L217.954 365.918C217.372 366.204 216.947 366.743 216.805 367.362L214.051 379.404C213.925 379.959 214.036 380.546 214.335 381.022C214.382 381.086 214.429 381.133 214.46 381.213L222.156 390.843C222.565 391.351 223.194 391.652 223.824 391.652H236.177C236.806 391.652 237.435 391.351 237.845 390.843L245.54 381.181C245.933 380.689 246.09 380.023 245.949 379.404L243.195 367.362C243.053 366.743 242.628 366.204 242.046 365.918L230.921 360.572C230.606 360.413 230.244 360.334 229.898 360.35Z" fill="#2875E2"/>
<path d="M235.585 383.55H231.526L222.786 372.834H220.261V369.346H224.368L233.124 380.046H235.585V377.277L241.13 381.798L235.585 386.319V383.55ZM231.175 375.275L233.124 372.881H235.585V375.65L241.13 371.129L235.585 366.608V369.377H231.526L228.954 372.553L231.175 375.275ZM224.783 377.652L222.786 380.093H220.261V383.581H224.368L227.004 380.374L224.783 377.652Z" fill="white"/>
<path d="M257.413 369.045H260.305L263.117 378.88L265.956 369.045H268.769L264.348 382H261.79L257.413 369.045ZM269.551 373.457C270.213 372.613 271.35 372.191 272.961 372.191C274.01 372.191 274.941 372.399 275.756 372.815C276.57 373.231 276.978 374.017 276.978 375.171V379.565C276.978 379.87 276.983 380.239 276.995 380.673C277.013 381.001 277.062 381.224 277.145 381.341C277.227 381.458 277.35 381.555 277.514 381.631V382H274.789C274.713 381.807 274.66 381.625 274.631 381.455C274.602 381.285 274.578 381.092 274.561 380.875C274.215 381.25 273.816 381.569 273.365 381.833C272.826 382.144 272.217 382.299 271.537 382.299C270.67 382.299 269.952 382.053 269.384 381.561C268.821 381.062 268.54 380.359 268.54 379.451C268.54 378.273 268.994 377.421 269.902 376.894C270.4 376.606 271.133 376.401 272.1 376.278L272.952 376.173C273.415 376.114 273.746 376.041 273.945 375.953C274.303 375.801 274.481 375.563 274.481 375.241C274.481 374.849 274.344 374.579 274.068 374.433C273.799 374.28 273.4 374.204 272.873 374.204C272.281 374.204 271.862 374.351 271.616 374.644C271.44 374.86 271.323 375.153 271.265 375.522H268.848C268.9 374.685 269.135 373.996 269.551 373.457ZM271.414 380.189C271.648 380.383 271.936 380.479 272.275 380.479C272.814 380.479 273.31 380.321 273.761 380.005C274.218 379.688 274.455 379.111 274.473 378.273V377.342C274.314 377.441 274.153 377.523 273.989 377.588C273.831 377.646 273.611 377.702 273.33 377.755L272.768 377.86C272.24 377.954 271.862 378.068 271.634 378.203C271.247 378.432 271.054 378.786 271.054 379.267C271.054 379.694 271.174 380.002 271.414 380.189ZM279.263 369.045H281.768V382H279.263V369.045ZM292.938 369.062V382H290.504V380.673C290.146 381.241 289.739 381.654 289.282 381.912C288.825 382.17 288.257 382.299 287.577 382.299C286.458 382.299 285.515 381.848 284.747 380.945C283.985 380.037 283.604 378.874 283.604 377.456C283.604 375.821 283.979 374.535 284.729 373.598C285.485 372.66 286.493 372.191 287.753 372.191C288.333 372.191 288.849 372.32 289.3 372.578C289.751 372.83 290.117 373.182 290.398 373.633V369.062H292.938ZM286.188 377.271C286.188 378.156 286.364 378.862 286.716 379.39C287.062 379.923 287.589 380.189 288.298 380.189C289.007 380.189 289.546 379.926 289.915 379.398C290.284 378.871 290.469 378.188 290.469 377.351C290.469 376.179 290.173 375.341 289.581 374.837C289.218 374.532 288.796 374.38 288.315 374.38C287.583 374.38 287.044 374.658 286.698 375.215C286.358 375.766 286.188 376.451 286.188 377.271ZM302.914 382H300.392V369.045H304.329L306.685 379.231L309.022 369.045H312.916V382H310.394V373.237C310.394 372.985 310.396 372.634 310.402 372.183C310.408 371.726 310.411 371.374 310.411 371.128L307.959 382H305.331L302.896 371.128C302.896 371.374 302.899 371.726 302.905 372.183C302.911 372.634 302.914 372.985 302.914 373.237V382ZM317.803 372.42V382H315.263V372.42H317.803ZM317.803 368.966V371.277H315.263V368.966H317.803ZM325.054 374.731C324.046 374.731 323.369 375.06 323.023 375.716C322.83 376.085 322.733 376.653 322.733 377.421V382H320.211V372.42H322.602V374.09C322.988 373.451 323.325 373.015 323.612 372.78C324.081 372.388 324.69 372.191 325.44 372.191C325.487 372.191 325.525 372.194 325.555 372.2C325.59 372.2 325.663 372.203 325.774 372.209V374.775C325.616 374.758 325.476 374.746 325.353 374.74C325.229 374.734 325.13 374.731 325.054 374.731ZM332.067 374.731C331.06 374.731 330.383 375.06 330.037 375.716C329.844 376.085 329.747 376.653 329.747 377.421V382H327.225V372.42H329.615V374.09C330.002 373.451 330.339 373.015 330.626 372.78C331.095 372.388 331.704 372.191 332.454 372.191C332.501 372.191 332.539 372.194 332.568 372.2C332.604 372.2 332.677 372.203 332.788 372.209V374.775C332.63 374.758 332.489 374.746 332.366 374.74C332.243 374.734 332.144 374.731 332.067 374.731ZM342.254 373.633C343.062 374.646 343.467 375.845 343.467 377.228C343.467 378.634 343.062 379.838 342.254 380.84C341.445 381.836 340.218 382.334 338.571 382.334C336.925 382.334 335.697 381.836 334.889 380.84C334.08 379.838 333.676 378.634 333.676 377.228C333.676 375.845 334.08 374.646 334.889 373.633C335.697 372.619 336.925 372.112 338.571 372.112C340.218 372.112 341.445 372.619 342.254 373.633ZM338.562 374.23C337.83 374.23 337.265 374.491 336.866 375.013C336.474 375.528 336.277 376.267 336.277 377.228C336.277 378.188 336.474 378.93 336.866 379.451C337.265 379.973 337.83 380.233 338.562 380.233C339.295 380.233 339.857 379.973 340.25 379.451C340.643 378.93 340.839 378.188 340.839 377.228C340.839 376.267 340.643 375.528 340.25 375.013C339.857 374.491 339.295 374.23 338.562 374.23ZM350.085 374.731C349.077 374.731 348.4 375.06 348.055 375.716C347.861 376.085 347.765 376.653 347.765 377.421V382H345.242V372.42H347.633V374.09C348.02 373.451 348.356 373.015 348.644 372.78C349.112 372.388 349.722 372.191 350.472 372.191C350.519 372.191 350.557 372.194 350.586 372.2C350.621 372.2 350.694 372.203 350.806 372.209V374.775C350.647 374.758 350.507 374.746 350.384 374.74C350.261 374.734 350.161 374.731 350.085 374.731ZM365.439 381.684C364.725 382.123 363.846 382.343 362.803 382.343C361.086 382.343 359.68 381.748 358.584 380.559C357.441 379.363 356.87 377.729 356.87 375.654C356.87 373.557 357.447 371.875 358.602 370.609C359.756 369.344 361.282 368.711 363.181 368.711C364.827 368.711 366.148 369.13 367.145 369.968C368.146 370.8 368.721 371.84 368.867 373.088H366.204C365.999 372.203 365.498 371.585 364.701 371.233C364.256 371.04 363.761 370.943 363.216 370.943C362.173 370.943 361.314 371.339 360.641 372.13C359.973 372.915 359.639 374.099 359.639 375.681C359.639 377.274 360.002 378.402 360.729 379.064C361.455 379.727 362.281 380.058 363.207 380.058C364.115 380.058 364.859 379.797 365.439 379.275C366.02 378.748 366.377 378.06 366.512 377.21H363.515V375.048H368.911V382H367.118L366.846 380.383C366.324 380.998 365.855 381.432 365.439 381.684ZM371.662 373.457C372.324 372.613 373.461 372.191 375.072 372.191C376.121 372.191 377.053 372.399 377.867 372.815C378.682 373.231 379.089 374.017 379.089 375.171V379.565C379.089 379.87 379.095 380.239 379.106 380.673C379.124 381.001 379.174 381.224 379.256 381.341C379.338 381.458 379.461 381.555 379.625 381.631V382H376.9C376.824 381.807 376.771 381.625 376.742 381.455C376.713 381.285 376.689 381.092 376.672 380.875C376.326 381.25 375.928 381.569 375.477 381.833C374.938 382.144 374.328 382.299 373.648 382.299C372.781 382.299 372.063 382.053 371.495 381.561C370.933 381.062 370.651 380.359 370.651 379.451C370.651 378.273 371.105 377.421 372.014 376.894C372.512 376.606 373.244 376.401 374.211 376.278L375.063 376.173C375.526 376.114 375.857 376.041 376.057 375.953C376.414 375.801 376.593 375.563 376.593 375.241C376.593 374.849 376.455 374.579 376.18 374.433C375.91 374.28 375.512 374.204 374.984 374.204C374.393 374.204 373.974 374.351 373.728 374.644C373.552 374.86 373.435 375.153 373.376 375.522H370.959C371.012 374.685 371.246 373.996 371.662 373.457ZM373.525 380.189C373.76 380.383 374.047 380.479 374.387 380.479C374.926 380.479 375.421 380.321 375.872 380.005C376.329 379.688 376.566 379.111 376.584 378.273V377.342C376.426 377.441 376.265 377.523 376.101 377.588C375.942 377.646 375.723 377.702 375.441 377.755L374.879 377.86C374.352 377.954 373.974 378.068 373.745 378.203C373.358 378.432 373.165 378.786 373.165 379.267C373.165 379.694 373.285 380.002 373.525 380.189ZM385.707 380.216V382.088L384.521 382.132C383.337 382.173 382.528 381.968 382.095 381.517C381.813 381.229 381.673 380.787 381.673 380.189V374.292H380.337V372.508H381.673V369.836H384.151V372.508H385.707V374.292H384.151V379.354C384.151 379.747 384.201 379.993 384.301 380.093C384.4 380.187 384.705 380.233 385.215 380.233C385.291 380.233 385.37 380.233 385.452 380.233C385.54 380.228 385.625 380.222 385.707 380.216ZM395.516 379.188C395.451 379.756 395.155 380.333 394.628 380.919C393.808 381.851 392.659 382.316 391.183 382.316C389.964 382.316 388.889 381.924 387.957 381.139C387.025 380.354 386.56 379.076 386.56 377.307C386.56 375.648 386.979 374.377 387.816 373.492C388.66 372.607 389.753 372.165 391.095 372.165C391.892 372.165 392.609 372.314 393.248 372.613C393.887 372.912 394.414 373.384 394.83 374.028C395.205 374.597 395.448 375.256 395.56 376.006C395.624 376.445 395.65 377.078 395.639 377.904H389.082C389.117 378.865 389.419 379.539 389.987 379.926C390.333 380.166 390.749 380.286 391.235 380.286C391.751 380.286 392.17 380.14 392.492 379.847C392.668 379.688 392.823 379.469 392.958 379.188H395.516ZM393.037 376.252C392.996 375.59 392.794 375.089 392.431 374.749C392.073 374.403 391.628 374.23 391.095 374.23C390.515 374.23 390.063 374.412 389.741 374.775C389.425 375.139 389.226 375.631 389.144 376.252H393.037ZM404.604 382L403.101 375.021L401.58 382H398.979L396.289 372.42H398.979L400.473 379.293L401.853 372.42H404.393L405.852 379.319L407.346 372.42H409.956L407.179 382H404.604ZM411.705 373.457C412.367 372.613 413.504 372.191 415.115 372.191C416.164 372.191 417.096 372.399 417.91 372.815C418.725 373.231 419.132 374.017 419.132 375.171V379.565C419.132 379.87 419.138 380.239 419.149 380.673C419.167 381.001 419.217 381.224 419.299 381.341C419.381 381.458 419.504 381.555 419.668 381.631V382H416.943C416.867 381.807 416.814 381.625 416.785 381.455C416.756 381.285 416.732 381.092 416.715 380.875C416.369 381.25 415.971 381.569 415.52 381.833C414.98 382.144 414.371 382.299 413.691 382.299C412.824 382.299 412.106 382.053 411.538 381.561C410.976 381.062 410.694 380.359 410.694 379.451C410.694 378.273 411.148 377.421 412.057 376.894C412.555 376.606 413.287 376.401 414.254 376.278L415.106 376.173C415.569 376.114 415.9 376.041 416.1 375.953C416.457 375.801 416.636 375.563 416.636 375.241C416.636 374.849 416.498 374.579 416.223 374.433C415.953 374.28 415.555 374.204 415.027 374.204C414.436 374.204 414.017 374.351 413.771 374.644C413.595 374.86 413.478 375.153 413.419 375.522H411.002C411.055 374.685 411.289 373.996 411.705 373.457ZM413.568 380.189C413.803 380.383 414.09 380.479 414.43 380.479C414.969 380.479 415.464 380.321 415.915 380.005C416.372 379.688 416.609 379.111 416.627 378.273V377.342C416.469 377.441 416.308 377.523 416.144 377.588C415.985 377.646 415.766 377.702 415.484 377.755L414.922 377.86C414.395 377.954 414.017 378.068 413.788 378.203C413.401 378.432 413.208 378.786 413.208 379.267C413.208 379.694 413.328 380.002 413.568 380.189ZM425.258 379.486L427.235 372.42H429.898L426.611 381.842C425.979 383.658 425.478 384.783 425.108 385.217C424.739 385.656 424.001 385.876 422.894 385.876C422.671 385.876 422.492 385.873 422.357 385.867C422.223 385.867 422.021 385.858 421.751 385.841V383.837L422.067 383.854C422.313 383.866 422.548 383.857 422.771 383.828C422.993 383.799 423.181 383.731 423.333 383.626C423.479 383.526 423.614 383.318 423.737 383.002C423.866 382.686 423.919 382.492 423.896 382.422L420.38 372.42H423.166L425.258 379.486Z" fill="#333333"/>
<rect x="165.712" y="344.712" width="313.577" height="62.5767" rx="7.28833" stroke="#CCCCCC" stroke-width="1.42334"/>
<rect x="796.712" y="344.712" width="314.577" height="62.5767" rx="7.28833" fill="white"/>
<path d="M861.398 360.35C861.115 360.366 860.831 360.445 860.579 360.572L849.454 365.918C848.872 366.204 848.447 366.743 848.305 367.362L845.551 379.404C845.425 379.959 845.536 380.546 845.835 381.022C845.882 381.086 845.929 381.133 845.96 381.213L853.656 390.843C854.065 391.351 854.694 391.652 855.324 391.652H867.677C868.306 391.652 868.935 391.351 869.345 390.843L877.04 381.181C877.433 380.689 877.59 380.023 877.449 379.404L874.695 367.362C874.553 366.743 874.128 366.204 873.546 365.918L862.421 360.572C862.106 360.413 861.744 360.334 861.398 360.35Z" fill="#2875E2"/>
<path d="M867.085 383.55H863.026L854.286 372.834H851.761V369.346H855.868L864.624 380.046H867.085V377.277L872.63 381.798L867.085 386.319V383.55ZM862.675 375.275L864.624 372.881H867.085V375.65L872.63 371.129L867.085 366.608V369.377H863.026L860.454 372.553L862.675 375.275ZM856.283 377.652L854.286 380.093H851.761V383.581H855.868L858.504 380.374L856.283 377.652Z" fill="white"/>
<path d="M888.913 369.045H891.805L894.617 378.88L897.456 369.045H900.269L895.848 382H893.29L888.913 369.045ZM901.051 373.457C901.713 372.613 902.85 372.191 904.461 372.191C905.51 372.191 906.441 372.399 907.256 372.815C908.07 373.231 908.478 374.017 908.478 375.171V379.565C908.478 379.87 908.483 380.239 908.495 380.673C908.513 381.001 908.562 381.224 908.645 381.341C908.727 381.458 908.85 381.555 909.014 381.631V382H906.289C906.213 381.807 906.16 381.625 906.131 381.455C906.102 381.285 906.078 381.092 906.061 380.875C905.715 381.25 905.316 381.569 904.865 381.833C904.326 382.144 903.717 382.299 903.037 382.299C902.17 382.299 901.452 382.053 900.884 381.561C900.321 381.062 900.04 380.359 900.04 379.451C900.04 378.273 900.494 377.421 901.402 376.894C901.9 376.606 902.633 376.401 903.6 376.278L904.452 376.173C904.915 376.114 905.246 376.041 905.445 375.953C905.803 375.801 905.981 375.563 905.981 375.241C905.981 374.849 905.844 374.579 905.568 374.433C905.299 374.28 904.9 374.204 904.373 374.204C903.781 374.204 903.362 374.351 903.116 374.644C902.94 374.86 902.823 375.153 902.765 375.522H900.348C900.4 374.685 900.635 373.996 901.051 373.457ZM902.914 380.189C903.148 380.383 903.436 380.479 903.775 380.479C904.314 380.479 904.81 380.321 905.261 380.005C905.718 379.688 905.955 379.111 905.973 378.273V377.342C905.814 377.441 905.653 377.523 905.489 377.588C905.331 377.646 905.111 377.702 904.83 377.755L904.268 377.86C903.74 377.954 903.362 378.068 903.134 378.203C902.747 378.432 902.554 378.786 902.554 379.267C902.554 379.694 902.674 380.002 902.914 380.189ZM910.763 369.045H913.268V382H910.763V369.045ZM924.438 369.062V382H922.004V380.673C921.646 381.241 921.239 381.654 920.782 381.912C920.325 382.17 919.757 382.299 919.077 382.299C917.958 382.299 917.015 381.848 916.247 380.945C915.485 380.037 915.104 378.874 915.104 377.456C915.104 375.821 915.479 374.535 916.229 373.598C916.985 372.66 917.993 372.191 919.253 372.191C919.833 372.191 920.349 372.32 920.8 372.578C921.251 372.83 921.617 373.182 921.898 373.633V369.062H924.438ZM917.688 377.271C917.688 378.156 917.864 378.862 918.216 379.39C918.562 379.923 919.089 380.189 919.798 380.189C920.507 380.189 921.046 379.926 921.415 379.398C921.784 378.871 921.969 378.188 921.969 377.351C921.969 376.179 921.673 375.341 921.081 374.837C920.718 374.532 920.296 374.38 919.815 374.38C919.083 374.38 918.544 374.658 918.198 375.215C917.858 375.766 917.688 376.451 917.688 377.271ZM934.414 382H931.892V369.045H935.829L938.185 379.231L940.522 369.045H944.416V382H941.894V373.237C941.894 372.985 941.896 372.634 941.902 372.183C941.908 371.726 941.911 371.374 941.911 371.128L939.459 382H936.831L934.396 371.128C934.396 371.374 934.399 371.726 934.405 372.183C934.411 372.634 934.414 372.985 934.414 373.237V382ZM949.303 372.42V382H946.763V372.42H949.303ZM949.303 368.966V371.277H946.763V368.966H949.303ZM956.554 374.731C955.546 374.731 954.869 375.06 954.523 375.716C954.33 376.085 954.233 376.653 954.233 377.421V382H951.711V372.42H954.102V374.09C954.488 373.451 954.825 373.015 955.112 372.78C955.581 372.388 956.19 372.191 956.94 372.191C956.987 372.191 957.025 372.194 957.055 372.2C957.09 372.2 957.163 372.203 957.274 372.209V374.775C957.116 374.758 956.976 374.746 956.853 374.74C956.729 374.734 956.63 374.731 956.554 374.731ZM963.567 374.731C962.56 374.731 961.883 375.06 961.537 375.716C961.344 376.085 961.247 376.653 961.247 377.421V382H958.725V372.42H961.115V374.09C961.502 373.451 961.839 373.015 962.126 372.78C962.595 372.388 963.204 372.191 963.954 372.191C964.001 372.191 964.039 372.194 964.068 372.2C964.104 372.2 964.177 372.203 964.288 372.209V374.775C964.13 374.758 963.989 374.746 963.866 374.74C963.743 374.734 963.644 374.731 963.567 374.731ZM973.754 373.633C974.562 374.646 974.967 375.845 974.967 377.228C974.967 378.634 974.562 379.838 973.754 380.84C972.945 381.836 971.718 382.334 970.071 382.334C968.425 382.334 967.197 381.836 966.389 380.84C965.58 379.838 965.176 378.634 965.176 377.228C965.176 375.845 965.58 374.646 966.389 373.633C967.197 372.619 968.425 372.112 970.071 372.112C971.718 372.112 972.945 372.619 973.754 373.633ZM970.062 374.23C969.33 374.23 968.765 374.491 968.366 375.013C967.974 375.528 967.777 376.267 967.777 377.228C967.777 378.188 967.974 378.93 968.366 379.451C968.765 379.973 969.33 380.233 970.062 380.233C970.795 380.233 971.357 379.973 971.75 379.451C972.143 378.93 972.339 378.188 972.339 377.228C972.339 376.267 972.143 375.528 971.75 375.013C971.357 374.491 970.795 374.23 970.062 374.23ZM981.585 374.731C980.577 374.731 979.9 375.06 979.555 375.716C979.361 376.085 979.265 376.653 979.265 377.421V382H976.742V372.42H979.133V374.09C979.52 373.451 979.856 373.015 980.144 372.78C980.612 372.388 981.222 372.191 981.972 372.191C982.019 372.191 982.057 372.194 982.086 372.2C982.121 372.2 982.194 372.203 982.306 372.209V374.775C982.147 374.758 982.007 374.746 981.884 374.74C981.761 374.734 981.661 374.731 981.585 374.731ZM996.939 381.684C996.225 382.123 995.346 382.343 994.303 382.343C992.586 382.343 991.18 381.748 990.084 380.559C988.941 379.363 988.37 377.729 988.37 375.654C988.37 373.557 988.947 371.875 990.102 370.609C991.256 369.344 992.782 368.711 994.681 368.711C996.327 368.711 997.648 369.13 998.645 369.968C999.646 370.8 1000.22 371.84 1000.37 373.088H997.704C997.499 372.203 996.998 371.585 996.201 371.233C995.756 371.04 995.261 370.943 994.716 370.943C993.673 370.943 992.814 371.339 992.141 372.13C991.473 372.915 991.139 374.099 991.139 375.681C991.139 377.274 991.502 378.402 992.229 379.064C992.955 379.727 993.781 380.058 994.707 380.058C995.615 380.058 996.359 379.797 996.939 379.275C997.52 378.748 997.877 378.06 998.012 377.21H995.015V375.048H1000.41V382H998.618L998.346 380.383C997.824 380.998 997.355 381.432 996.939 381.684ZM1003.16 373.457C1003.82 372.613 1004.96 372.191 1006.57 372.191C1007.62 372.191 1008.55 372.399 1009.37 372.815C1010.18 373.231 1010.59 374.017 1010.59 375.171V379.565C1010.59 379.87 1010.59 380.239 1010.61 380.673C1010.62 381.001 1010.67 381.224 1010.76 381.341C1010.84 381.458 1010.96 381.555 1011.12 381.631V382H1008.4C1008.32 381.807 1008.27 381.625 1008.24 381.455C1008.21 381.285 1008.19 381.092 1008.17 380.875C1007.83 381.25 1007.43 381.569 1006.98 381.833C1006.44 382.144 1005.83 382.299 1005.15 382.299C1004.28 382.299 1003.56 382.053 1003 381.561C1002.43 381.062 1002.15 380.359 1002.15 379.451C1002.15 378.273 1002.61 377.421 1003.51 376.894C1004.01 376.606 1004.74 376.401 1005.71 376.278L1006.56 376.173C1007.03 376.114 1007.36 376.041 1007.56 375.953C1007.91 375.801 1008.09 375.563 1008.09 375.241C1008.09 374.849 1007.96 374.579 1007.68 374.433C1007.41 374.28 1007.01 374.204 1006.48 374.204C1005.89 374.204 1005.47 374.351 1005.23 374.644C1005.05 374.86 1004.93 375.153 1004.88 375.522H1002.46C1002.51 374.685 1002.75 373.996 1003.16 373.457ZM1005.03 380.189C1005.26 380.383 1005.55 380.479 1005.89 380.479C1006.43 380.479 1006.92 380.321 1007.37 380.005C1007.83 379.688 1008.07 379.111 1008.08 378.273V377.342C1007.93 377.441 1007.76 377.523 1007.6 377.588C1007.44 377.646 1007.22 377.702 1006.94 377.755L1006.38 377.86C1005.85 377.954 1005.47 378.068 1005.25 378.203C1004.86 378.432 1004.67 378.786 1004.67 379.267C1004.67 379.694 1004.79 380.002 1005.03 380.189ZM1017.21 380.216V382.088L1016.02 382.132C1014.84 382.173 1014.03 381.968 1013.59 381.517C1013.31 381.229 1013.17 380.787 1013.17 380.189V374.292H1011.84V372.508H1013.17V369.836H1015.65V372.508H1017.21V374.292H1015.65V379.354C1015.65 379.747 1015.7 379.993 1015.8 380.093C1015.9 380.187 1016.21 380.233 1016.71 380.233C1016.79 380.233 1016.87 380.233 1016.95 380.233C1017.04 380.228 1017.12 380.222 1017.21 380.216ZM1027.02 379.188C1026.95 379.756 1026.66 380.333 1026.13 380.919C1025.31 381.851 1024.16 382.316 1022.68 382.316C1021.46 382.316 1020.39 381.924 1019.46 381.139C1018.53 380.354 1018.06 379.076 1018.06 377.307C1018.06 375.648 1018.48 374.377 1019.32 373.492C1020.16 372.607 1021.25 372.165 1022.59 372.165C1023.39 372.165 1024.11 372.314 1024.75 372.613C1025.39 372.912 1025.91 373.384 1026.33 374.028C1026.71 374.597 1026.95 375.256 1027.06 376.006C1027.12 376.445 1027.15 377.078 1027.14 377.904H1020.58C1020.62 378.865 1020.92 379.539 1021.49 379.926C1021.83 380.166 1022.25 380.286 1022.74 380.286C1023.25 380.286 1023.67 380.14 1023.99 379.847C1024.17 379.688 1024.32 379.469 1024.46 379.188H1027.02ZM1024.54 376.252C1024.5 375.59 1024.29 375.089 1023.93 374.749C1023.57 374.403 1023.13 374.23 1022.59 374.23C1022.01 374.23 1021.56 374.412 1021.24 374.775C1020.92 375.139 1020.73 375.631 1020.64 376.252H1024.54ZM1036.1 382L1034.6 375.021L1033.08 382H1030.48L1027.79 372.42H1030.48L1031.97 379.293L1033.35 372.42H1035.89L1037.35 379.319L1038.85 372.42H1041.46L1038.68 382H1036.1ZM1043.21 373.457C1043.87 372.613 1045 372.191 1046.62 372.191C1047.66 372.191 1048.6 372.399 1049.41 372.815C1050.22 373.231 1050.63 374.017 1050.63 375.171V379.565C1050.63 379.87 1050.64 380.239 1050.65 380.673C1050.67 381.001 1050.72 381.224 1050.8 381.341C1050.88 381.458 1051 381.555 1051.17 381.631V382H1048.44C1048.37 381.807 1048.31 381.625 1048.29 381.455C1048.26 381.285 1048.23 381.092 1048.21 380.875C1047.87 381.25 1047.47 381.569 1047.02 381.833C1046.48 382.144 1045.87 382.299 1045.19 382.299C1044.32 382.299 1043.61 382.053 1043.04 381.561C1042.48 381.062 1042.19 380.359 1042.19 379.451C1042.19 378.273 1042.65 377.421 1043.56 376.894C1044.05 376.606 1044.79 376.401 1045.75 376.278L1046.61 376.173C1047.07 376.114 1047.4 376.041 1047.6 375.953C1047.96 375.801 1048.14 375.563 1048.14 375.241C1048.14 374.849 1048 374.579 1047.72 374.433C1047.45 374.28 1047.05 374.204 1046.53 374.204C1045.94 374.204 1045.52 374.351 1045.27 374.644C1045.09 374.86 1044.98 375.153 1044.92 375.522H1042.5C1042.55 374.685 1042.79 373.996 1043.21 373.457ZM1045.07 380.189C1045.3 380.383 1045.59 380.479 1045.93 380.479C1046.47 380.479 1046.96 380.321 1047.42 380.005C1047.87 379.688 1048.11 379.111 1048.13 378.273V377.342C1047.97 377.441 1047.81 377.523 1047.64 377.588C1047.49 377.646 1047.27 377.702 1046.98 377.755L1046.42 377.86C1045.89 377.954 1045.52 378.068 1045.29 378.203C1044.9 378.432 1044.71 378.786 1044.71 379.267C1044.71 379.694 1044.83 380.002 1045.07 380.189ZM1056.76 379.486L1058.74 372.42H1061.4L1058.11 381.842C1057.48 383.658 1056.98 384.783 1056.61 385.217C1056.24 385.656 1055.5 385.876 1054.39 385.876C1054.17 385.876 1053.99 385.873 1053.86 385.867C1053.72 385.867 1053.52 385.858 1053.25 385.841V383.837L1053.57 383.854C1053.81 383.866 1054.05 383.857 1054.27 383.828C1054.49 383.799 1054.68 383.731 1054.83 383.626C1054.98 383.526 1055.11 383.318 1055.24 383.002C1055.37 382.686 1055.42 382.492 1055.4 382.422L1051.88 372.42H1054.67L1056.76 379.486Z" fill="#333333"/>
<rect x="796.712" y="344.712" width="314.577" height="62.5767" rx="7.28833" stroke="#CCCCCC" stroke-width="1.42334"/>
<path d="M321 344L321 264" stroke="#006076" stroke-width="2" stroke-dasharray="2 2"/>
<rect x="321" y="264" width="80" height="0" transform="rotate(90 321 264)" stroke="black"/>
<path d="M955 344L955 264" stroke="#006076" stroke-width="2" stroke-dasharray="2 2"/>
<rect x="955" y="264" width="80" height="0" transform="rotate(90 955 264)" stroke="black"/>
<path d="M796.03 230.928L479.638 378.228" stroke="#006076" stroke-width="2" stroke-dasharray="2 2"/>
<rect x="479.638" y="378.228" width="349.367" height="0" transform="rotate(-24.9648 479.638 378.228)" stroke="black"/>
<path d="M479.64 228.83L798 379" stroke="#006076" stroke-width="2" stroke-dasharray="2 2"/>
<rect x="798" y="379" width="351.602" height="0" transform="rotate(-154.747 798 379)" stroke="black"/>
</svg>
