<svg xmlns="http://www.w3.org/2000/svg" xmlns:xlink="http://www.w3.org/1999/xlink" id="Layer_1" x="0" y="0" version="1.1" viewBox="0 0 254.5 225" xml:space="preserve" style="enable-background:new 0 0 254.5 225"><style type="text/css">.st0{fill:#fff}.st1{fill:#91dc47}.st2{fill:#63b132}.st3{fill:#90b4fe}.st4{fill:#5881d8}</style><path id="path8" d="M127.2,34.6c-43,0-77.9,34.9-77.9,77.9c0,43,34.9,77.9,77.9,77.9c43,0,77.9-34.9,77.9-77.9	C205.1,69.5,170.2,34.6,127.2,34.6" class="st0"/><path id="path10" d="M124.4,113.9c-0.7,1.5-1.5,3.2-2.3,5c-2.8,6.4-6,14.2-7.1,19.2c-0.4,1.8-0.7,4-0.7,6.4	c0,1,0.1,2,0.1,3c4,1.5,8.3,2.3,12.8,2.3c4.1,0,8-0.7,11.7-1.9c-0.9-0.8-1.7-1.6-2.4-2.6C131.6,139,128.8,129.6,124.4,113.9" class="st1"/><path id="path12" d="M105.9,82.2c-9.6,6.7-15.8,17.8-15.8,30.4c0,12.4,6.1,23.4,15.4,30.1c2.3-9.5,8-18.2,16.6-35.7	c-0.5-1.4-1.1-2.9-1.7-4.5c-2.4-6-5.8-12.9-8.9-16C109.9,84.8,108,83.4,105.9,82.2" class="st1"/><path id="path14" d="M159.7,155.3c-4.9-0.6-9-1.4-12.6-2.6c-6,3-12.7,4.7-19.9,4.7c-24.7,0-44.7-20-44.7-44.7	c0-13.4,5.9-25.4,15.2-33.6c-2.5-0.6-5.1-1-7.8-1c-13.1,0.1-27,7.4-32.7,27c-0.5,2.9-0.4,5-0.4,7.6c0,38.9,31.5,70.4,70.4,70.4	c23.8,0,44.8-11.8,57.6-29.9c-6.9,1.7-13.5,2.5-19.2,2.6C163.6,155.7,161.6,155.5,159.7,155.3" class="st2"/><path id="path16" d="M146.5,141.7c0.4,0.2,1.4,0.6,2.8,1c9.2-6.8,15.2-17.7,15.2-30h0c0-20.6-16.7-37.2-37.2-37.2	c-4.1,0-8,0.7-11.7,1.9c7.6,8.6,11.2,20.9,14.7,34.4c0,0,0,0,0,0c0,0,1.1,3.7,3,8.7c1.9,4.9,4.6,11.1,7.6,15.5	C142.9,138.9,145.1,141.1,146.5,141.7" class="st3"/><path id="path18" d="M127.3,42.2c-23.6,0-44.4,11.6-57.2,29.4c6.6-4.2,13.4-5.7,19.4-5.6c8.2,0,14.6,2.6,17.7,4.3	c0.7,0.4,1.5,0.9,2.1,1.4c5.5-2.4,11.6-3.8,18-3.8c24.7,0,44.7,20,44.7,44.7h0c0,12.5-5.1,23.7-13.3,31.8c2,0.2,4.2,0.4,6.4,0.4	c7.8,0,16.2-1.7,22.5-7c4.1-3.5,7.6-8.6,9.5-16.2c0.4-2.9,0.6-5.9,0.6-9C197.7,73.8,166.2,42.2,127.3,42.2" class="st4"/></svg>