<?xml version="1.0" encoding="utf-8"?>
<!-- Generator: Adobe Illustrator 24.1.0, SVG Export Plug-In . SVG Version: 6.00 Build 0)  -->
<svg version="1.1" id="Layer_1" xmlns="http://www.w3.org/2000/svg" xmlns:xlink="http://www.w3.org/1999/xlink" x="0px" y="0px"
	 viewBox="0 0 254.5 225" style="enable-background:new 0 0 254.5 225;" xml:space="preserve">
<style type="text/css">
	.st0{fill:#366A96;}
	.st1{fill:#3679B0;}
	.st2{fill:#FFC836;}
	.st3{fill:#FFD855;}
	.st4{fill:#244B5A;}
	.st5{clip-path:url(#SVGID_1_);}
	.st6{fill:#75CACA;}
	.st7{fill:#74CBCA;}
	.st8{fill:#73CBCA;}
	.st9{fill:#72C9C9;}
	.st10{fill:#70CACA;}
	.st11{fill:#6FCAC8;}
	.st12{fill:#6EC8C8;}
	.st13{fill:#6CC9C9;}
	.st14{fill:#6DC9C8;}
	.st15{fill:#69C7C8;}
	.st16{fill:#69C8C7;}
	.st17{fill:#68C8C7;}
	.st18{fill:#67C7C7;}
	.st19{fill:#65C7C7;}
	.st20{fill:#64C7C7;}
	.st21{fill:#63C6C6;}
	.st22{fill:#60C6C6;}
	.st23{fill:#60C6C5;}
	.st24{fill:#5FC6C5;}
	.st25{fill:#5CC5C4;}
	.st26{fill:#5AC5C4;}
	.st27{fill:#57C4C4;}
	.st28{fill:#58C4C3;}
	.st29{fill:#55C4C3;}
	.st30{fill:#53C3C2;}
	.st31{fill:#52C3C2;}
	.st32{fill:#50C3C2;}
	.st33{fill:#50C1C0;}
	.st34{fill:#4BC2C0;}
	.st35{fill:#4CC1C0;}
	.st36{fill:#47C1BE;}
	.st37{fill:#46C0BE;}
	.st38{fill:#43C0BE;}
	.st39{fill:#40BFBD;}
	.st40{fill:#3BBFBD;}
	.st41{fill:#39BFBC;}
	.st42{fill:#34BEBD;}
	.st43{fill:#32BEBB;}
	.st44{fill:#2DBDBB;}
	.st45{fill:#24BCBB;}
	.st46{fill:#21BCB9;}
	.st47{fill:#18BBB9;}
	.st48{fill:#0FBAB9;}
	.st49{fill:#03BBB8;}
	.st50{fill:#06B8B6;}
	.st51{fill:#03B7B5;}
	.st52{fill:#04B7B4;}
	.st53{fill:#00B6B5;}
	.st54{fill:#03B6B4;}
	.st55{fill:#05B6B2;}
	.st56{fill:#01B5B1;}
	.st57{fill:#00B4B1;}
	.st58{fill:#00B3B0;}
	.st59{fill:#00B2AF;}
	.st60{fill:#00B2AE;}
	.st61{fill:#00B1AE;}
	.st62{fill:#00B1AD;}
	.st63{fill:#00B0AC;}
	.st64{fill:#00AFAC;}
	.st65{clip-path:url(#SVGID_2_);}
	.st66{fill:#4DC2C1;}
	.st67{fill:#4CC2C0;}
	.st68{fill:#4BC0BF;}
	.st69{fill:#41C0BE;}
	.st70{fill:#3CBFBC;}
	.st71{fill:#2FBEBC;}
	.st72{fill:#2BBDBA;}
	.st73{fill:#16BAB9;}
	.st74{fill:#11BAB7;}
	.st75{fill:#00B7B6;}
</style>
<rect x="-103.4" y="-926.8" class="st0" width="192.4" height="192.4"/>
<rect x="-363.8" y="-926.8" class="st1" width="192.4" height="192.4"/>
<rect x="-103.4" y="-669.8" class="st2" width="192.4" height="192.4"/>
<rect x="-363.8" y="-669.8" class="st3" width="192.4" height="192.4"/>
<g>
	<path class="st4" d="M36.4,147.1c1.7,2.3,4,4.2,6.6,5.4c2.8,1.4,5.9,2.1,9,2c2.5,0.1,5-0.4,7.4-1.3c1.9-0.7,3.6-1.9,4.9-3.4
		c1.3-1.5,2.2-3.2,2.7-5.1c0.6-2,0.8-4.1,0.8-6.2v-7.3h-0.2c-1.6,2.6-4,4.7-6.8,5.9c-2.7,1.2-5.5,1.8-8.4,1.7
		c-2.8,0-5.7-0.5-8.3-1.6c-2.5-1-4.8-2.5-6.7-4.3c-1.9-1.9-3.5-4.1-4.5-6.6c-1.1-2.6-1.7-5.4-1.7-8.3c0-2.8,0.5-5.6,1.6-8.3
		c1-2.5,2.5-4.8,4.3-6.7c1.8-1.9,4.1-3.5,6.5-4.5c2.6-1.1,5.5-1.6,8.3-1.6c1.3,0,2.6,0.1,3.9,0.3c1.4,0.2,2.8,0.7,4.1,1.2
		c3.1,1.3,5.8,3.5,7.8,6.3h0.2v-6.8h5.7v40.4c0,2.4-0.3,4.7-0.8,7.1c-0.6,2.5-1.7,4.8-3.2,6.9c-1.8,2.2-4.1,4-6.7,5.2
		c-2.8,1.4-6.6,2.1-11.1,2.1c-3.7,0.1-7.4-0.6-10.9-2c-3.3-1.4-6.3-3.5-8.7-6.2L36.4,147.1z M37.5,118.1c0,2.1,0.4,4.1,1.2,6
		c0.8,1.8,1.8,3.5,3.2,5c1.4,1.4,3,2.6,4.8,3.4c1.9,0.9,3.9,1.3,6,1.3c4.1,0,8-1.5,11-4.3c1.5-1.4,2.6-3.1,3.4-4.9
		c0.8-2,1.2-4.2,1.1-6.4c0-2.1-0.3-4.1-1-6.1c-0.7-1.8-1.7-3.5-3-5c-1.4-1.5-3-2.6-4.9-3.4c-2-0.9-4.2-1.3-6.4-1.3
		c-2.1,0-4.1,0.4-6,1.3c-1.8,0.8-3.4,2-4.8,3.4c-1.4,1.4-2.5,3.1-3.2,5C37.8,113.9,37.4,116,37.5,118.1z M97,138.9h-6.3V77.3h19
		c6.3,0,11.2,1.4,14.8,4.1c3.6,2.7,5.4,6.8,5.4,12.4c0.1,4-1.3,7.9-4,10.8c-2.7,2.9-6.6,4.6-11.7,5.1l17.8,29.2h-7.7l-16.9-28.6H97
		L97,138.9z M97,104.6h11.1c2.4,0.1,4.8-0.2,7.1-0.9c1.7-0.5,3.3-1.2,4.7-2.3c1.1-0.9,2-2.1,2.5-3.4c0.5-1.3,0.8-2.8,0.8-4.2
		c0-1.4-0.3-2.8-0.8-4.1c-0.5-1.3-1.4-2.5-2.5-3.4c-1.4-1.1-3-1.9-4.7-2.3c-2.3-0.6-4.7-0.9-7.1-0.8H97V104.6z M142.8,77.3h17.9
		c6.3,0,11.2,1.4,14.8,4.1c3.6,2.7,5.4,6.8,5.4,12.4c0,5.5-1.8,9.6-5.4,12.4c-3.6,2.8-8.6,4.1-14.8,4.1H149v28.6h-6.3V77.3z
		 M149,104.6h10.1c2.4,0.1,4.8-0.2,7.1-0.9c1.7-0.5,3.3-1.2,4.7-2.3c1.1-0.9,2-2.1,2.5-3.4c0.5-1.3,0.8-2.8,0.8-4.2
		c0-1.4-0.3-2.8-0.8-4.1c-0.5-1.3-1.4-2.5-2.5-3.4c-1.4-1.1-3-1.9-4.7-2.3c-2.3-0.6-4.7-0.9-7.1-0.8H149L149,104.6z M243.9,129.2
		c-1.1,1.6-2.4,3.1-3.9,4.4c-1.6,1.4-3.4,2.6-5.3,3.6c-2,1-4.2,1.8-6.4,2.4c-2.4,0.6-4.8,0.9-7.3,0.9c-4.4,0-8.7-0.8-12.8-2.4
		c-7.7-3.1-13.8-9.2-16.9-17c-1.7-4.1-2.5-8.5-2.4-13c0-4.4,0.8-8.8,2.4-13c3.1-7.7,9.2-13.9,16.9-17c4-1.6,8.4-2.5,12.8-2.4
		c3.9,0,7.8,0.8,11.5,2.3c3.9,1.6,7.3,4.1,9.8,7.5l-5.5,4.1c-0.7-1.1-1.6-2.1-2.6-3c-1.2-1-2.4-1.9-3.8-2.6c-1.5-0.8-3-1.4-4.6-1.8
		c-1.6-0.5-3.2-0.7-4.9-0.7c-3.7-0.1-7.3,0.7-10.6,2.2c-3,1.4-5.7,3.4-8,5.8c-2.2,2.5-3.9,5.4-5,8.5c-2.3,6.6-2.3,13.7,0,20.3
		c1.1,3.1,2.8,6,5,8.5c2.2,2.5,4.9,4.5,8,5.8c3.3,1.5,7,2.2,10.6,2.2c1.6,0,3.2-0.1,4.8-0.4c1.6-0.3,3.2-0.8,4.7-1.5
		c1.6-0.7,3-1.7,4.4-2.8c1.5-1.3,2.7-2.8,3.8-4.5L243.9,129.2z"/>
	<g>
		<defs>
			
				<rect id="SVGID_5_" x="15.3" y="69.9" transform="matrix(0.7045 -0.7097 0.7097 0.7045 -49.8153 43.0203)" width="22.9" height="22.9"/>
		</defs>
		<clipPath id="SVGID_1_">
			<use xlink:href="#SVGID_5_"  style="overflow:visible;"/>
		</clipPath>
		<g class="st5">
			<path class="st6" d="M10.9,65.2l-0.3,2.5v-2.5H10.9z"/>
			<path class="st7" d="M11.2,65.2L10.6,71v-3.3l0.3-2.5C10.9,65.2,11.2,65.2,11.2,65.2z"/>
			<path class="st7" d="M11.6,65.2l-1,9.2V71l0.7-5.9C11.2,65.2,11.6,65.2,11.6,65.2z"/>
			<path class="st8" d="M12,65.2l-1.4,12.6v-3.3l1-9.2H12z"/>
			<path class="st8" d="M12.4,65.2l-1.8,15.9v-3.3L12,65.2H12.4z"/>
			<path class="st9" d="M12.8,65.2l-2.2,19.3v-3.3l1.8-15.9H12.8z M13.1,65.2l-2.6,22.6v-3.3l2.2-19.3H13.1z"/>
			<path class="st10" d="M13.5,65.2l-2.9,26v-3.3l2.6-22.6C13.1,65.2,13.5,65.2,13.5,65.2z"/>
			<path class="st10" d="M13.9,65.2l-3.3,29.3v-3.3l2.9-26C13.5,65.2,13.9,65.2,13.9,65.2z"/>
			<path class="st11" d="M14.3,65.2l-3.7,32.3l0,0v-3l3.3-29.3C13.9,65.2,14.3,65.2,14.3,65.2z"/>
			<path class="st12" d="M14.6,65.2L11,97.5h-0.2l-0.2,0l3.7-32.3C14.3,65.2,14.6,65.2,14.6,65.2z"/>
			<path class="st12" d="M15,65.2l-3.7,32.3H11l3.7-32.3H15z"/>
			<path class="st13" d="M15.4,65.2l-3.7,32.3h-0.4L15,65.2H15.4z"/>
			<path class="st14" d="M15.8,65.2l-3.7,32.3h-0.4l3.7-32.3H15.8z"/>
			<path class="st15" d="M16.2,65.2l-3.7,32.3h-0.4l3.7-32.3C15.8,65.2,16.2,65.2,16.2,65.2z"/>
			<path class="st15" d="M16.5,65.2l-3.7,32.3h-0.4l3.7-32.3H16.5z"/>
			<path class="st16" d="M16.9,65.2l-3.7,32.3h-0.4l3.7-32.3C16.5,65.2,16.9,65.2,16.9,65.2z"/>
			<path class="st17" d="M17.3,65.2l-3.7,32.3h-0.4l3.7-32.3C16.9,65.2,17.3,65.2,17.3,65.2z"/>
			<path class="st18" d="M17.7,65.2L14,97.5h-0.4l3.7-32.3C17.3,65.2,17.7,65.2,17.7,65.2z"/>
			<path class="st19" d="M18,65.2l-3.7,32.3H14l3.7-32.3C17.7,65.2,18,65.2,18,65.2z"/>
			<path class="st20" d="M18.4,65.2l-3.7,32.3h-0.4L18,65.2C18,65.2,18.4,65.2,18.4,65.2z"/>
			<path class="st21" d="M18.8,65.2l-3.7,32.3h-0.4l3.7-32.3C18.4,65.2,18.8,65.2,18.8,65.2z"/>
			<path class="st22" d="M19.2,65.2l-3.7,32.3h-0.4l3.7-32.3C18.8,65.2,19.2,65.2,19.2,65.2z"/>
			<path class="st23" d="M19.6,65.2l-3.7,32.3h-0.4l3.7-32.3C19.2,65.2,19.6,65.2,19.6,65.2z"/>
			<path class="st24" d="M19.9,65.2l-3.7,32.3h-0.4l3.7-32.3C19.6,65.2,19.9,65.2,19.9,65.2z"/>
			<path class="st25" d="M20.3,65.2l-3.7,32.3h-0.4l3.7-32.3C19.9,65.2,20.3,65.2,20.3,65.2z"/>
			<path class="st26" d="M20.7,65.2L17,97.5h-0.4l3.7-32.3C20.3,65.2,20.7,65.2,20.7,65.2z"/>
			<path class="st26" d="M21.1,65.2l-3.7,32.3H17l3.7-32.3C20.7,65.2,21.1,65.2,21.1,65.2z"/>
			<path class="st27" d="M21.5,65.2l-3.7,32.3h-0.4l3.7-32.3C21.1,65.2,21.5,65.2,21.5,65.2z"/>
			<path class="st28" d="M21.8,65.2l-3.7,32.3h-0.4l3.7-32.3C21.5,65.2,21.8,65.2,21.8,65.2z"/>
			<path class="st29" d="M22.2,65.2l-3.7,32.3h-0.4l3.7-32.3C21.8,65.2,22.2,65.2,22.2,65.2z"/>
			<path class="st30" d="M22.6,65.2l-3.7,32.3h-0.4l3.7-32.3C22.2,65.2,22.6,65.2,22.6,65.2z"/>
			<path class="st31" d="M23,65.2l-3.7,32.3h-0.4l3.7-32.3C22.6,65.2,23,65.2,23,65.2z"/>
			<path class="st32" d="M23.3,65.2l-3.7,32.3h-0.4L23,65.2C23,65.2,23.3,65.2,23.3,65.2z"/>
			<path class="st33" d="M23.7,65.2l-3.7,32.3h-0.4l3.7-32.3H23.7z"/>
			<path class="st34" d="M24.1,65.2l-3.7,32.3h-0.4l3.7-32.3C23.7,65.2,24.1,65.2,24.1,65.2z"/>
			<path class="st35" d="M24.5,65.2l-3.7,32.3h-0.4l3.7-32.3C24.1,65.2,24.5,65.2,24.5,65.2z"/>
			<path class="st36" d="M24.9,65.2l-3.7,32.3h-0.4l3.7-32.3C24.5,65.2,24.9,65.2,24.9,65.2z"/>
			<path class="st37" d="M25.2,65.2l-3.7,32.3h-0.4l3.7-32.3C24.9,65.2,25.2,65.2,25.2,65.2z"/>
			<path class="st38" d="M25.6,65.2L22,97.5h-0.4l3.7-32.3C25.2,65.2,25.6,65.2,25.6,65.2z"/>
			<path class="st39" d="M26,65.2l-3.7,32.3H22l3.7-32.3C25.6,65.2,26,65.2,26,65.2z"/>
			<path class="st40" d="M26.4,65.2l-3.7,32.3h-0.4L26,65.2C26,65.2,26.4,65.2,26.4,65.2z"/>
			<path class="st41" d="M26.7,65.2l-3.7,32.3h-0.4l3.7-32.3C26.4,65.2,26.7,65.2,26.7,65.2z"/>
			<path class="st42" d="M27.1,65.2l-3.7,32.3h-0.4l3.7-32.3C26.7,65.2,27.1,65.2,27.1,65.2z"/>
			<path class="st43" d="M27.5,65.2l-3.7,32.3h-0.4l3.7-32.3C27.1,65.2,27.5,65.2,27.5,65.2z"/>
			<path class="st44" d="M27.9,65.2l-3.7,32.3h-0.4l3.7-32.3C27.5,65.2,27.9,65.2,27.9,65.2z"/>
			<path class="st45" d="M28.3,65.2l-3.7,32.3h-0.4l3.7-32.3C27.9,65.2,28.3,65.2,28.3,65.2z"/>
			<path class="st46" d="M28.6,65.2L25,97.5h-0.4l3.7-32.3C28.3,65.2,28.6,65.2,28.6,65.2z"/>
			<path class="st47" d="M29,65.2l-3.7,32.3H25l3.7-32.3C28.6,65.2,29,65.2,29,65.2z"/>
			<path class="st48" d="M29.4,65.2l-3.7,32.3h-0.4L29,65.2C29,65.2,29.4,65.2,29.4,65.2z"/>
			<path class="st49" d="M29.8,65.2l-3.7,32.3h-0.4l3.7-32.3C29.4,65.2,29.8,65.2,29.8,65.2z"/>
			<path class="st50" d="M30.1,65.2l-3.7,32.3h-0.4l3.7-32.3C29.8,65.2,30.1,65.2,30.1,65.2z"/>
			<path class="st50" d="M30.5,65.2l-3.7,32.3h-0.4l3.7-32.3C30.1,65.2,30.5,65.2,30.5,65.2z"/>
			<path class="st51" d="M30.9,65.2l-3.7,32.3h-0.4l3.7-32.3H30.9z"/>
			<path class="st52" d="M31.3,65.2l-3.7,32.3h-0.4l3.7-32.3C30.9,65.2,31.3,65.2,31.3,65.2z"/>
			<path class="st53" d="M31.7,65.2L28,97.5h-0.4l3.7-32.3H31.7z"/>
			<path class="st54" d="M32,65.2l-3.7,32.3H28l3.7-32.3C31.7,65.2,32,65.2,32,65.2z"/>
			<path class="st55" d="M32.4,65.2l-3.7,32.3h-0.4L32,65.2C32,65.2,32.4,65.2,32.4,65.2z"/>
			<path class="st56" d="M32.8,65.2l-3.7,32.3h-0.4l3.7-32.3C32.4,65.2,32.8,65.2,32.8,65.2z"/>
			<path class="st56" d="M33.2,65.2l-3.7,32.3h-0.4l3.7-32.3C32.8,65.2,33.2,65.2,33.2,65.2z"/>
			<path class="st57" d="M33.6,65.2l-3.7,32.3h-0.4l3.7-32.3C33.2,65.2,33.6,65.2,33.6,65.2z"/>
			<path class="st58" d="M33.9,65.2l-3.7,32.3h-0.4l3.7-32.3C33.6,65.2,33.9,65.2,33.9,65.2z"/>
			<path class="st58" d="M34.3,65.2l-3.7,32.3h-0.4l3.7-32.3C33.9,65.2,34.3,65.2,34.3,65.2z"/>
			<path class="st59" d="M34.7,65.2L31,97.5h-0.4l3.7-32.3C34.3,65.2,34.7,65.2,34.7,65.2z"/>
			<path class="st60" d="M35.1,65.2l-3.7,32.3H31l3.7-32.3C34.7,65.2,35.1,65.2,35.1,65.2z"/>
			<path class="st61" d="M35.4,65.2l-3.7,32.3h-0.4l3.7-32.3C35.1,65.2,35.4,65.2,35.4,65.2z"/>
			<path class="st62" d="M35.8,65.2l-3.7,32.3h-0.4l3.7-32.3C35.4,65.2,35.8,65.2,35.8,65.2z"/>
			<path class="st63" d="M36.2,65.2l-3.7,32.3h-0.4l3.7-32.3C35.8,65.2,36.2,65.2,36.2,65.2z"/>
			<path class="st64" d="M36.6,65.2l-3.7,32.3h-0.4l3.7-32.3C36.2,65.2,36.6,65.2,36.6,65.2z"/>
			<path class="st64" d="M42.7,65.2l0.2,0v32.3h-10l3.7-32.3C36.6,65.2,42.7,65.2,42.7,65.2z"/>
		</g>
	</g>
	<g>
		<defs>
			
				<rect id="SVGID_7_" x="64.2" y="74.4" transform="matrix(0.7045 -0.7097 0.7097 0.7045 -36.6202 74.3273)" width="13.4" height="13.4"/>
		</defs>
		<clipPath id="SVGID_2_">
			<use xlink:href="#SVGID_7_"  style="overflow:visible;"/>
		</clipPath>
		<g class="st65">
			<path class="st6" d="M80.4,77.2l-0.3-5.5h0.3V77.2z"/>
			<path class="st7" d="M80.4,83l-0.5-11.4h0.3l0.3,5.5V83z"/>
			<path class="st7" d="M80.4,88.8l-0.8-17.2h0.3L80.4,83C80.4,83,80.4,88.8,80.4,88.8z"/>
			<path class="st8" d="M80.2,90.6l-0.9-19h0.3l0.8,17.2v1.8H80.2z"/>
			<path class="st9" d="M80,90.6l-0.9-19h0.3l0.9,19H80z M79.7,90.6l-0.9-19h0.3l0.9,19H79.7z"/>
			<path class="st10" d="M79.4,90.6l-0.9-19h0.3l0.9,19H79.4z"/>
			<path class="st11" d="M79.2,90.6l-0.9-19h0.3l0.9,19H79.2z"/>
			<path class="st12" d="M78.9,90.6l-0.9-19h0.3l0.9,19H78.9z"/>
			<path class="st12" d="M78.6,90.6l-0.9-19H78l0.9,19H78.6z"/>
			<path class="st13" d="M78.3,90.6l-0.9-19h0.3l0.9,19H78.3z"/>
			<path class="st14" d="M78.1,90.6l-0.9-19h0.3l0.9,19H78.1z"/>
			<path class="st15" d="M77.8,90.6l-0.9-19h0.3l0.9,19H77.8z"/>
			<path class="st15" d="M77.5,90.6l-0.9-19h0.3l0.9,19H77.5z"/>
			<path class="st16" d="M77.3,90.6l-0.9-19h0.3l0.9,19H77.3z"/>
			<path class="st17" d="M77,90.6l-0.9-19h0.3l0.9,19H77z"/>
			<path class="st18" d="M76.7,90.6l-0.9-19h0.3l0.9,19H76.7z"/>
			<path class="st19" d="M76.4,90.6l-0.9-19h0.3l0.9,19H76.4z"/>
			<path class="st20" d="M76.2,90.6l-0.9-19h0.3l0.9,19H76.2z"/>
			<path class="st21" d="M75.9,90.6l-0.9-19h0.3l0.9,19H75.9z"/>
			<path class="st22" d="M75.6,90.6l-0.9-19H75l0.9,19H75.6z"/>
			<path class="st23" d="M75.4,90.6l-0.9-19h0.3l0.9,19H75.4z"/>
			<path class="st24" d="M75.1,90.6l-0.9-19h0.3l0.9,19H75.1z"/>
			<path class="st24" d="M74.8,90.6l-0.9-19h0.3l0.9,19H74.8z"/>
			<path class="st25" d="M74.5,90.6l-0.9-19h0.3l0.9,19H74.5z"/>
			<path class="st26" d="M74.3,90.6l-0.9-19h0.3l0.9,19H74.3z"/>
			<path class="st26" d="M74,90.6l-0.9-19h0.3l0.9,19H74z"/>
			<path class="st27" d="M73.7,90.6l-0.9-19h0.3l0.9,19H73.7z"/>
			<path class="st28" d="M73.5,90.6l-0.9-19h0.3l0.9,19H73.5z"/>
			<path class="st29" d="M73.2,90.6l-0.9-19h0.3l0.9,19H73.2z"/>
			<path class="st30" d="M72.9,90.6l-0.9-19h0.3l0.9,19H72.9z M72.6,90.6l-0.9-19H72l0.9,19H72.6z"/>
			<path class="st31" d="M72.4,90.6l-0.9-19h0.3l0.9,19H72.4z"/>
			<path class="st32" d="M72.1,90.6l-0.9-19h0.3l0.9,19H72.1z"/>
			<path class="st33" d="M71.8,90.6l-0.9-19h0.3l0.9,19H71.8z"/>
			<path class="st66" d="M71.6,90.6l-0.9-19h0.3l0.9,19H71.6z"/>
			<path class="st67" d="M71.3,90.6l-0.9-19h0.3l0.9,19H71.3z"/>
			<path class="st68" d="M71,90.6l-0.9-19h0.3l0.9,19H71z"/>
			<path class="st36" d="M70.7,90.6l-0.9-19h0.3l0.9,19H70.7z"/>
			<path class="st37" d="M70.5,90.6l-0.9-19h0.3l0.9,19H70.5z"/>
			<path class="st38" d="M70.2,90.6l-0.9-19h0.3l0.9,19H70.2z"/>
			<path class="st69" d="M69.9,90.6l-0.9-19h0.3l0.9,19H69.9z"/>
			<path class="st39" d="M69.7,90.6l-0.9-19H69l0.9,19H69.7z"/>
			<path class="st40" d="M69.4,90.6l-0.9-19h0.3l0.9,19H69.4z"/>
			<path class="st70" d="M69.1,90.6l-0.9-19h0.3l0.9,19H69.1z"/>
			<path class="st41" d="M68.8,90.6l-0.9-19h0.3l0.9,19H68.8z"/>
			<path class="st42" d="M68.6,90.6l-0.9-19H68l0.9,19H68.6z"/>
			<path class="st43" d="M68.3,90.6l-0.9-19h0.3l0.9,19H68.3z"/>
			<path class="st71" d="M68,90.6l-0.9-19h0.3l0.9,19H68z"/>
			<path class="st44" d="M67.8,90.6l-0.9-19h0.3l0.9,19H67.8z"/>
			<path class="st72" d="M67.5,90.6l-0.9-19h0.3l0.9,19H67.5z"/>
			<path class="st45" d="M67.2,90.6l-0.9-19h0.3l0.9,19H67.2z"/>
			<path class="st46" d="M67,90.6l-0.9-19h0.3l0.9,19H67z"/>
			<path class="st47" d="M66.7,90.6l-0.9-19h0.3l0.9,19H66.7z"/>
			<path class="st73" d="M66.4,90.6l-0.9-19h0.3l0.9,19H66.4z"/>
			<path class="st74" d="M66.1,90.6l-0.9-19h0.3l0.9,19H66.1z"/>
			<path class="st49" d="M65.9,90.6l-0.9-19h0.3l0.9,19H65.9z"/>
			<path class="st50" d="M65.6,90.6l-0.9-19H65l0.9,19H65.6z"/>
			<path class="st50" d="M65.3,90.6l-0.9-19h0.3l0.9,19H65.3z"/>
			<path class="st50" d="M65.1,90.6l-0.9-19h0.3l0.9,19H65.1z"/>
			<path class="st75" d="M64.8,90.6l-0.9-19h0.3l0.9,19H64.8z"/>
			<path class="st51" d="M64.5,90.6l-0.9-19h0.3l0.9,19H64.5z"/>
			<path class="st52" d="M64.2,90.6l-0.9-19h0.3l0.9,19H64.2z"/>
			<path class="st53" d="M64,90.6l-0.9-19h0.3l0.9,19H64z"/>
			<path class="st53" d="M63.7,90.6l-0.9-19h0.3l0.9,19H63.7z"/>
			<path class="st53" d="M63.4,90.6l-0.9-19h0.3l0.9,19H63.4z"/>
			<path class="st54" d="M63.2,90.6l-0.9-19h0.3l0.9,19C63.4,90.6,63.2,90.6,63.2,90.6z M62.9,90.6l-0.9-19h0.3l0.9,19H62.9z"/>
			<path class="st55" d="M62.6,90.6l-0.9-19H62l0.9,19H62.6z"/>
			<path class="st56" d="M62.3,90.6l-0.9-19h0.3l0.9,19H62.3z"/>
			<path class="st56" d="M62.1,90.6l-0.6-13.2v-5.8h0l0.9,19H62.1z M61.8,90.6l-0.3-7.3v-5.8l0.6,13.2H61.8z"/>
			<path class="st57" d="M61.5,90.6l-0.1-1.5v-5.8l0.3,7.3C61.8,90.6,61.5,90.6,61.5,90.6z"/>
			<path class="st57" d="M61.5,89.1l0.1,1.5h-0.1V89.1z"/>
		</g>
	</g>
	<path class="st4" d="M27.4,71.6l-9.8,9.8l9.8,9.8l8.3,0l-8.7-8.6l43.1-0.2l-3.8,3.8l4.2,0l4.9-4.9l-4.9-4.9l-4.2,0l3.8,3.8
		l-43.1,0.2l8.7-8.7L27.4,71.6z"/>
</g>
</svg>
