<svg xmlns="http://www.w3.org/2000/svg" xmlns:xlink="http://www.w3.org/1999/xlink" id="Layer_1" x="0" y="0" version="1.1" viewBox="0 0 254.5 225" xml:space="preserve" style="enable-background:new 0 0 254.5 225"><style type="text/css">.st0{fill:#366a96}.st1{fill:#3679b0}.st2{fill:#ffc836}.st3{fill:#ffd855}.st4{fill:#244b5a}.st5{clip-path:url(#SVGID_1_)}.st6{fill:#75caca}.st7{fill:#74cbca}.st8{fill:#73cbca}.st9{fill:#72c9c9}.st10{fill:#70caca}.st11{fill:#6fcac8}.st12{fill:#6ec8c8}.st13{fill:#6cc9c9}.st14{fill:#6dc9c8}.st15{fill:#69c7c8}.st16{fill:#69c8c7}.st17{fill:#68c8c7}.st18{fill:#67c7c7}.st19{fill:#65c7c7}.st20{fill:#64c7c7}.st21{fill:#63c6c6}.st22{fill:#60c6c6}.st23{fill:#60c6c5}.st24{fill:#5fc6c5}.st25{fill:#5cc5c4}.st26{fill:#5ac5c4}.st27{fill:#57c4c4}.st28{fill:#58c4c3}.st29{fill:#55c4c3}.st30{fill:#53c3c2}.st31{fill:#52c3c2}.st32{fill:#50c3c2}.st33{fill:#50c1c0}.st34{fill:#4bc2c0}.st35{fill:#4cc1c0}.st36{fill:#47c1be}.st37{fill:#46c0be}.st38{fill:#43c0be}.st39{fill:#40bfbd}.st40{fill:#3bbfbd}.st41{fill:#39bfbc}.st42{fill:#34bebd}.st43{fill:#32bebb}.st44{fill:#2dbdbb}.st45{fill:#24bcbb}.st46{fill:#21bcb9}.st47{fill:#18bbb9}.st48{fill:#0fbab9}.st49{fill:#03bbb8}.st50{fill:#06b8b6}.st51{fill:#03b7b5}.st52{fill:#04b7b4}.st53{fill:#00b6b5}.st54{fill:#03b6b4}.st55{fill:#05b6b2}.st56{fill:#01b5b1}.st57{fill:#00b4b1}.st58{fill:#00b3b0}.st59{fill:#00b2af}.st60{fill:#00b2ae}.st61{fill:#00b1ae}.st62{fill:#00b1ad}.st63{fill:#00b0ac}.st64{fill:#00afac}.st65{clip-path:url(#SVGID_2_)}.st66{fill:#4dc2c1}.st67{fill:#4cc2c0}.st68{fill:#4bc0bf}.st69{fill:#41c0be}.st70{fill:#3cbfbc}.st71{fill:#2fbebc}.st72{fill:#2bbdba}.st73{fill:#16bab9}.st74{fill:#11bab7}.st75{fill:#00b7b6}</style><rect width="192.4" height="192.4" x="-103.4" y="-926.8" class="st0"/><rect width="192.4" height="192.4" x="-363.8" y="-926.8" class="st1"/><rect width="192.4" height="192.4" x="-103.4" y="-669.8" class="st2"/><rect width="192.4" height="192.4" x="-363.8" y="-669.8" class="st3"/><g><path d="M36.4,147.1c1.7,2.3,4,4.2,6.6,5.4c2.8,1.4,5.9,2.1,9,2c2.5,0.1,5-0.4,7.4-1.3c1.9-0.7,3.6-1.9,4.9-3.4 c1.3-1.5,2.2-3.2,2.7-5.1c0.6-2,0.8-4.1,0.8-6.2v-7.3h-0.2c-1.6,2.6-4,4.7-6.8,5.9c-2.7,1.2-5.5,1.8-8.4,1.7 c-2.8,0-5.7-0.5-8.3-1.6c-2.5-1-4.8-2.5-6.7-4.3c-1.9-1.9-3.5-4.1-4.5-6.6c-1.1-2.6-1.7-5.4-1.7-8.3c0-2.8,0.5-5.6,1.6-8.3 c1-2.5,2.5-4.8,4.3-6.7c1.8-1.9,4.1-3.5,6.5-4.5c2.6-1.1,5.5-1.6,8.3-1.6c1.3,0,2.6,0.1,3.9,0.3c1.4,0.2,2.8,0.7,4.1,1.2 c3.1,1.3,5.8,3.5,7.8,6.3h0.2v-6.8h5.7v40.4c0,2.4-0.3,4.7-0.8,7.1c-0.6,2.5-1.7,4.8-3.2,6.9c-1.8,2.2-4.1,4-6.7,5.2 c-2.8,1.4-6.6,2.1-11.1,2.1c-3.7,0.1-7.4-0.6-10.9-2c-3.3-1.4-6.3-3.5-8.7-6.2L36.4,147.1z M37.5,118.1c0,2.1,0.4,4.1,1.2,6 c0.8,1.8,1.8,3.5,3.2,5c1.4,1.4,3,2.6,4.8,3.4c1.9,0.9,3.9,1.3,6,1.3c4.1,0,8-1.5,11-4.3c1.5-1.4,2.6-3.1,3.4-4.9 c0.8-2,1.2-4.2,1.1-6.4c0-2.1-0.3-4.1-1-6.1c-0.7-1.8-1.7-3.5-3-5c-1.4-1.5-3-2.6-4.9-3.4c-2-0.9-4.2-1.3-6.4-1.3 c-2.1,0-4.1,0.4-6,1.3c-1.8,0.8-3.4,2-4.8,3.4c-1.4,1.4-2.5,3.1-3.2,5C37.8,113.9,37.4,116,37.5,118.1z M97,138.9h-6.3V77.3h19 c6.3,0,11.2,1.4,14.8,4.1c3.6,2.7,5.4,6.8,5.4,12.4c0.1,4-1.3,7.9-4,10.8c-2.7,2.9-6.6,4.6-11.7,5.1l17.8,29.2h-7.7l-16.9-28.6H97 L97,138.9z M97,104.6h11.1c2.4,0.1,4.8-0.2,7.1-0.9c1.7-0.5,3.3-1.2,4.7-2.3c1.1-0.9,2-2.1,2.5-3.4c0.5-1.3,0.8-2.8,0.8-4.2 c0-1.4-0.3-2.8-0.8-4.1c-0.5-1.3-1.4-2.5-2.5-3.4c-1.4-1.1-3-1.9-4.7-2.3c-2.3-0.6-4.7-0.9-7.1-0.8H97V104.6z M142.8,77.3h17.9 c6.3,0,11.2,1.4,14.8,4.1c3.6,2.7,5.4,6.8,5.4,12.4c0,5.5-1.8,9.6-5.4,12.4c-3.6,2.8-8.6,4.1-14.8,4.1H149v28.6h-6.3V77.3z M149,104.6h10.1c2.4,0.1,4.8-0.2,7.1-0.9c1.7-0.5,3.3-1.2,4.7-2.3c1.1-0.9,2-2.1,2.5-3.4c0.5-1.3,0.8-2.8,0.8-4.2 c0-1.4-0.3-2.8-0.8-4.1c-0.5-1.3-1.4-2.5-2.5-3.4c-1.4-1.1-3-1.9-4.7-2.3c-2.3-0.6-4.7-0.9-7.1-0.8H149L149,104.6z M243.9,129.2 c-1.1,1.6-2.4,3.1-3.9,4.4c-1.6,1.4-3.4,2.6-5.3,3.6c-2,1-4.2,1.8-6.4,2.4c-2.4,0.6-4.8,0.9-7.3,0.9c-4.4,0-8.7-0.8-12.8-2.4 c-7.7-3.1-13.8-9.2-16.9-17c-1.7-4.1-2.5-8.5-2.4-13c0-4.4,0.8-8.8,2.4-13c3.1-7.7,9.2-13.9,16.9-17c4-1.6,8.4-2.5,12.8-2.4 c3.9,0,7.8,0.8,11.5,2.3c3.9,1.6,7.3,4.1,9.8,7.5l-5.5,4.1c-0.7-1.1-1.6-2.1-2.6-3c-1.2-1-2.4-1.9-3.8-2.6c-1.5-0.8-3-1.4-4.6-1.8 c-1.6-0.5-3.2-0.7-4.9-0.7c-3.7-0.1-7.3,0.7-10.6,2.2c-3,1.4-5.7,3.4-8,5.8c-2.2,2.5-3.9,5.4-5,8.5c-2.3,6.6-2.3,13.7,0,20.3 c1.1,3.1,2.8,6,5,8.5c2.2,2.5,4.9,4.5,8,5.8c3.3,1.5,7,2.2,10.6,2.2c1.6,0,3.2-0.1,4.8-0.4c1.6-0.3,3.2-0.8,4.7-1.5 c1.6-0.7,3-1.7,4.4-2.8c1.5-1.3,2.7-2.8,3.8-4.5L243.9,129.2z" class="st4"/><g><defs><rect id="SVGID_5_" width="22.9" height="22.9" x="15.3" y="69.9" transform="matrix(0.7045 -0.7097 0.7097 0.7045 -49.8153 43.0203)"/></defs><clipPath id="SVGID_1_"><use xlink:href="#SVGID_5_" style="overflow:visible"/></clipPath><g class="st5"><path d="M10.9,65.2l-0.3,2.5v-2.5H10.9z" class="st6"/><path d="M11.2,65.2L10.6,71v-3.3l0.3-2.5C10.9,65.2,11.2,65.2,11.2,65.2z" class="st7"/><path d="M11.6,65.2l-1,9.2V71l0.7-5.9C11.2,65.2,11.6,65.2,11.6,65.2z" class="st7"/><path d="M12,65.2l-1.4,12.6v-3.3l1-9.2H12z" class="st8"/><path d="M12.4,65.2l-1.8,15.9v-3.3L12,65.2H12.4z" class="st8"/><path d="M12.8,65.2l-2.2,19.3v-3.3l1.8-15.9H12.8z M13.1,65.2l-2.6,22.6v-3.3l2.2-19.3H13.1z" class="st9"/><path d="M13.5,65.2l-2.9,26v-3.3l2.6-22.6C13.1,65.2,13.5,65.2,13.5,65.2z" class="st10"/><path d="M13.9,65.2l-3.3,29.3v-3.3l2.9-26C13.5,65.2,13.9,65.2,13.9,65.2z" class="st10"/><path d="M14.3,65.2l-3.7,32.3l0,0v-3l3.3-29.3C13.9,65.2,14.3,65.2,14.3,65.2z" class="st11"/><path d="M14.6,65.2L11,97.5h-0.2l-0.2,0l3.7-32.3C14.3,65.2,14.6,65.2,14.6,65.2z" class="st12"/><path d="M15,65.2l-3.7,32.3H11l3.7-32.3H15z" class="st12"/><path d="M15.4,65.2l-3.7,32.3h-0.4L15,65.2H15.4z" class="st13"/><path d="M15.8,65.2l-3.7,32.3h-0.4l3.7-32.3H15.8z" class="st14"/><path d="M16.2,65.2l-3.7,32.3h-0.4l3.7-32.3C15.8,65.2,16.2,65.2,16.2,65.2z" class="st15"/><path d="M16.5,65.2l-3.7,32.3h-0.4l3.7-32.3H16.5z" class="st15"/><path d="M16.9,65.2l-3.7,32.3h-0.4l3.7-32.3C16.5,65.2,16.9,65.2,16.9,65.2z" class="st16"/><path d="M17.3,65.2l-3.7,32.3h-0.4l3.7-32.3C16.9,65.2,17.3,65.2,17.3,65.2z" class="st17"/><path d="M17.7,65.2L14,97.5h-0.4l3.7-32.3C17.3,65.2,17.7,65.2,17.7,65.2z" class="st18"/><path d="M18,65.2l-3.7,32.3H14l3.7-32.3C17.7,65.2,18,65.2,18,65.2z" class="st19"/><path d="M18.4,65.2l-3.7,32.3h-0.4L18,65.2C18,65.2,18.4,65.2,18.4,65.2z" class="st20"/><path d="M18.8,65.2l-3.7,32.3h-0.4l3.7-32.3C18.4,65.2,18.8,65.2,18.8,65.2z" class="st21"/><path d="M19.2,65.2l-3.7,32.3h-0.4l3.7-32.3C18.8,65.2,19.2,65.2,19.2,65.2z" class="st22"/><path d="M19.6,65.2l-3.7,32.3h-0.4l3.7-32.3C19.2,65.2,19.6,65.2,19.6,65.2z" class="st23"/><path d="M19.9,65.2l-3.7,32.3h-0.4l3.7-32.3C19.6,65.2,19.9,65.2,19.9,65.2z" class="st24"/><path d="M20.3,65.2l-3.7,32.3h-0.4l3.7-32.3C19.9,65.2,20.3,65.2,20.3,65.2z" class="st25"/><path d="M20.7,65.2L17,97.5h-0.4l3.7-32.3C20.3,65.2,20.7,65.2,20.7,65.2z" class="st26"/><path d="M21.1,65.2l-3.7,32.3H17l3.7-32.3C20.7,65.2,21.1,65.2,21.1,65.2z" class="st26"/><path d="M21.5,65.2l-3.7,32.3h-0.4l3.7-32.3C21.1,65.2,21.5,65.2,21.5,65.2z" class="st27"/><path d="M21.8,65.2l-3.7,32.3h-0.4l3.7-32.3C21.5,65.2,21.8,65.2,21.8,65.2z" class="st28"/><path d="M22.2,65.2l-3.7,32.3h-0.4l3.7-32.3C21.8,65.2,22.2,65.2,22.2,65.2z" class="st29"/><path d="M22.6,65.2l-3.7,32.3h-0.4l3.7-32.3C22.2,65.2,22.6,65.2,22.6,65.2z" class="st30"/><path d="M23,65.2l-3.7,32.3h-0.4l3.7-32.3C22.6,65.2,23,65.2,23,65.2z" class="st31"/><path d="M23.3,65.2l-3.7,32.3h-0.4L23,65.2C23,65.2,23.3,65.2,23.3,65.2z" class="st32"/><path d="M23.7,65.2l-3.7,32.3h-0.4l3.7-32.3H23.7z" class="st33"/><path d="M24.1,65.2l-3.7,32.3h-0.4l3.7-32.3C23.7,65.2,24.1,65.2,24.1,65.2z" class="st34"/><path d="M24.5,65.2l-3.7,32.3h-0.4l3.7-32.3C24.1,65.2,24.5,65.2,24.5,65.2z" class="st35"/><path d="M24.9,65.2l-3.7,32.3h-0.4l3.7-32.3C24.5,65.2,24.9,65.2,24.9,65.2z" class="st36"/><path d="M25.2,65.2l-3.7,32.3h-0.4l3.7-32.3C24.9,65.2,25.2,65.2,25.2,65.2z" class="st37"/><path d="M25.6,65.2L22,97.5h-0.4l3.7-32.3C25.2,65.2,25.6,65.2,25.6,65.2z" class="st38"/><path d="M26,65.2l-3.7,32.3H22l3.7-32.3C25.6,65.2,26,65.2,26,65.2z" class="st39"/><path d="M26.4,65.2l-3.7,32.3h-0.4L26,65.2C26,65.2,26.4,65.2,26.4,65.2z" class="st40"/><path d="M26.7,65.2l-3.7,32.3h-0.4l3.7-32.3C26.4,65.2,26.7,65.2,26.7,65.2z" class="st41"/><path d="M27.1,65.2l-3.7,32.3h-0.4l3.7-32.3C26.7,65.2,27.1,65.2,27.1,65.2z" class="st42"/><path d="M27.5,65.2l-3.7,32.3h-0.4l3.7-32.3C27.1,65.2,27.5,65.2,27.5,65.2z" class="st43"/><path d="M27.9,65.2l-3.7,32.3h-0.4l3.7-32.3C27.5,65.2,27.9,65.2,27.9,65.2z" class="st44"/><path d="M28.3,65.2l-3.7,32.3h-0.4l3.7-32.3C27.9,65.2,28.3,65.2,28.3,65.2z" class="st45"/><path d="M28.6,65.2L25,97.5h-0.4l3.7-32.3C28.3,65.2,28.6,65.2,28.6,65.2z" class="st46"/><path d="M29,65.2l-3.7,32.3H25l3.7-32.3C28.6,65.2,29,65.2,29,65.2z" class="st47"/><path d="M29.4,65.2l-3.7,32.3h-0.4L29,65.2C29,65.2,29.4,65.2,29.4,65.2z" class="st48"/><path d="M29.8,65.2l-3.7,32.3h-0.4l3.7-32.3C29.4,65.2,29.8,65.2,29.8,65.2z" class="st49"/><path d="M30.1,65.2l-3.7,32.3h-0.4l3.7-32.3C29.8,65.2,30.1,65.2,30.1,65.2z" class="st50"/><path d="M30.5,65.2l-3.7,32.3h-0.4l3.7-32.3C30.1,65.2,30.5,65.2,30.5,65.2z" class="st50"/><path d="M30.9,65.2l-3.7,32.3h-0.4l3.7-32.3H30.9z" class="st51"/><path d="M31.3,65.2l-3.7,32.3h-0.4l3.7-32.3C30.9,65.2,31.3,65.2,31.3,65.2z" class="st52"/><path d="M31.7,65.2L28,97.5h-0.4l3.7-32.3H31.7z" class="st53"/><path d="M32,65.2l-3.7,32.3H28l3.7-32.3C31.7,65.2,32,65.2,32,65.2z" class="st54"/><path d="M32.4,65.2l-3.7,32.3h-0.4L32,65.2C32,65.2,32.4,65.2,32.4,65.2z" class="st55"/><path d="M32.8,65.2l-3.7,32.3h-0.4l3.7-32.3C32.4,65.2,32.8,65.2,32.8,65.2z" class="st56"/><path d="M33.2,65.2l-3.7,32.3h-0.4l3.7-32.3C32.8,65.2,33.2,65.2,33.2,65.2z" class="st56"/><path d="M33.6,65.2l-3.7,32.3h-0.4l3.7-32.3C33.2,65.2,33.6,65.2,33.6,65.2z" class="st57"/><path d="M33.9,65.2l-3.7,32.3h-0.4l3.7-32.3C33.6,65.2,33.9,65.2,33.9,65.2z" class="st58"/><path d="M34.3,65.2l-3.7,32.3h-0.4l3.7-32.3C33.9,65.2,34.3,65.2,34.3,65.2z" class="st58"/><path d="M34.7,65.2L31,97.5h-0.4l3.7-32.3C34.3,65.2,34.7,65.2,34.7,65.2z" class="st59"/><path d="M35.1,65.2l-3.7,32.3H31l3.7-32.3C34.7,65.2,35.1,65.2,35.1,65.2z" class="st60"/><path d="M35.4,65.2l-3.7,32.3h-0.4l3.7-32.3C35.1,65.2,35.4,65.2,35.4,65.2z" class="st61"/><path d="M35.8,65.2l-3.7,32.3h-0.4l3.7-32.3C35.4,65.2,35.8,65.2,35.8,65.2z" class="st62"/><path d="M36.2,65.2l-3.7,32.3h-0.4l3.7-32.3C35.8,65.2,36.2,65.2,36.2,65.2z" class="st63"/><path d="M36.6,65.2l-3.7,32.3h-0.4l3.7-32.3C36.2,65.2,36.6,65.2,36.6,65.2z" class="st64"/><path d="M42.7,65.2l0.2,0v32.3h-10l3.7-32.3C36.6,65.2,42.7,65.2,42.7,65.2z" class="st64"/></g></g><g><defs><rect id="SVGID_7_" width="13.4" height="13.4" x="64.2" y="74.4" transform="matrix(0.7045 -0.7097 0.7097 0.7045 -36.6202 74.3273)"/></defs><clipPath id="SVGID_2_"><use xlink:href="#SVGID_7_" style="overflow:visible"/></clipPath><g class="st65"><path d="M80.4,77.2l-0.3-5.5h0.3V77.2z" class="st6"/><path d="M80.4,83l-0.5-11.4h0.3l0.3,5.5V83z" class="st7"/><path d="M80.4,88.8l-0.8-17.2h0.3L80.4,83C80.4,83,80.4,88.8,80.4,88.8z" class="st7"/><path d="M80.2,90.6l-0.9-19h0.3l0.8,17.2v1.8H80.2z" class="st8"/><path d="M80,90.6l-0.9-19h0.3l0.9,19H80z M79.7,90.6l-0.9-19h0.3l0.9,19H79.7z" class="st9"/><path d="M79.4,90.6l-0.9-19h0.3l0.9,19H79.4z" class="st10"/><path d="M79.2,90.6l-0.9-19h0.3l0.9,19H79.2z" class="st11"/><path d="M78.9,90.6l-0.9-19h0.3l0.9,19H78.9z" class="st12"/><path d="M78.6,90.6l-0.9-19H78l0.9,19H78.6z" class="st12"/><path d="M78.3,90.6l-0.9-19h0.3l0.9,19H78.3z" class="st13"/><path d="M78.1,90.6l-0.9-19h0.3l0.9,19H78.1z" class="st14"/><path d="M77.8,90.6l-0.9-19h0.3l0.9,19H77.8z" class="st15"/><path d="M77.5,90.6l-0.9-19h0.3l0.9,19H77.5z" class="st15"/><path d="M77.3,90.6l-0.9-19h0.3l0.9,19H77.3z" class="st16"/><path d="M77,90.6l-0.9-19h0.3l0.9,19H77z" class="st17"/><path d="M76.7,90.6l-0.9-19h0.3l0.9,19H76.7z" class="st18"/><path d="M76.4,90.6l-0.9-19h0.3l0.9,19H76.4z" class="st19"/><path d="M76.2,90.6l-0.9-19h0.3l0.9,19H76.2z" class="st20"/><path d="M75.9,90.6l-0.9-19h0.3l0.9,19H75.9z" class="st21"/><path d="M75.6,90.6l-0.9-19H75l0.9,19H75.6z" class="st22"/><path d="M75.4,90.6l-0.9-19h0.3l0.9,19H75.4z" class="st23"/><path d="M75.1,90.6l-0.9-19h0.3l0.9,19H75.1z" class="st24"/><path d="M74.8,90.6l-0.9-19h0.3l0.9,19H74.8z" class="st24"/><path d="M74.5,90.6l-0.9-19h0.3l0.9,19H74.5z" class="st25"/><path d="M74.3,90.6l-0.9-19h0.3l0.9,19H74.3z" class="st26"/><path d="M74,90.6l-0.9-19h0.3l0.9,19H74z" class="st26"/><path d="M73.7,90.6l-0.9-19h0.3l0.9,19H73.7z" class="st27"/><path d="M73.5,90.6l-0.9-19h0.3l0.9,19H73.5z" class="st28"/><path d="M73.2,90.6l-0.9-19h0.3l0.9,19H73.2z" class="st29"/><path d="M72.9,90.6l-0.9-19h0.3l0.9,19H72.9z M72.6,90.6l-0.9-19H72l0.9,19H72.6z" class="st30"/><path d="M72.4,90.6l-0.9-19h0.3l0.9,19H72.4z" class="st31"/><path d="M72.1,90.6l-0.9-19h0.3l0.9,19H72.1z" class="st32"/><path d="M71.8,90.6l-0.9-19h0.3l0.9,19H71.8z" class="st33"/><path d="M71.6,90.6l-0.9-19h0.3l0.9,19H71.6z" class="st66"/><path d="M71.3,90.6l-0.9-19h0.3l0.9,19H71.3z" class="st67"/><path d="M71,90.6l-0.9-19h0.3l0.9,19H71z" class="st68"/><path d="M70.7,90.6l-0.9-19h0.3l0.9,19H70.7z" class="st36"/><path d="M70.5,90.6l-0.9-19h0.3l0.9,19H70.5z" class="st37"/><path d="M70.2,90.6l-0.9-19h0.3l0.9,19H70.2z" class="st38"/><path d="M69.9,90.6l-0.9-19h0.3l0.9,19H69.9z" class="st69"/><path d="M69.7,90.6l-0.9-19H69l0.9,19H69.7z" class="st39"/><path d="M69.4,90.6l-0.9-19h0.3l0.9,19H69.4z" class="st40"/><path d="M69.1,90.6l-0.9-19h0.3l0.9,19H69.1z" class="st70"/><path d="M68.8,90.6l-0.9-19h0.3l0.9,19H68.8z" class="st41"/><path d="M68.6,90.6l-0.9-19H68l0.9,19H68.6z" class="st42"/><path d="M68.3,90.6l-0.9-19h0.3l0.9,19H68.3z" class="st43"/><path d="M68,90.6l-0.9-19h0.3l0.9,19H68z" class="st71"/><path d="M67.8,90.6l-0.9-19h0.3l0.9,19H67.8z" class="st44"/><path d="M67.5,90.6l-0.9-19h0.3l0.9,19H67.5z" class="st72"/><path d="M67.2,90.6l-0.9-19h0.3l0.9,19H67.2z" class="st45"/><path d="M67,90.6l-0.9-19h0.3l0.9,19H67z" class="st46"/><path d="M66.7,90.6l-0.9-19h0.3l0.9,19H66.7z" class="st47"/><path d="M66.4,90.6l-0.9-19h0.3l0.9,19H66.4z" class="st73"/><path d="M66.1,90.6l-0.9-19h0.3l0.9,19H66.1z" class="st74"/><path d="M65.9,90.6l-0.9-19h0.3l0.9,19H65.9z" class="st49"/><path d="M65.6,90.6l-0.9-19H65l0.9,19H65.6z" class="st50"/><path d="M65.3,90.6l-0.9-19h0.3l0.9,19H65.3z" class="st50"/><path d="M65.1,90.6l-0.9-19h0.3l0.9,19H65.1z" class="st50"/><path d="M64.8,90.6l-0.9-19h0.3l0.9,19H64.8z" class="st75"/><path d="M64.5,90.6l-0.9-19h0.3l0.9,19H64.5z" class="st51"/><path d="M64.2,90.6l-0.9-19h0.3l0.9,19H64.2z" class="st52"/><path d="M64,90.6l-0.9-19h0.3l0.9,19H64z" class="st53"/><path d="M63.7,90.6l-0.9-19h0.3l0.9,19H63.7z" class="st53"/><path d="M63.4,90.6l-0.9-19h0.3l0.9,19H63.4z" class="st53"/><path d="M63.2,90.6l-0.9-19h0.3l0.9,19C63.4,90.6,63.2,90.6,63.2,90.6z M62.9,90.6l-0.9-19h0.3l0.9,19H62.9z" class="st54"/><path d="M62.6,90.6l-0.9-19H62l0.9,19H62.6z" class="st55"/><path d="M62.3,90.6l-0.9-19h0.3l0.9,19H62.3z" class="st56"/><path d="M62.1,90.6l-0.6-13.2v-5.8h0l0.9,19H62.1z M61.8,90.6l-0.3-7.3v-5.8l0.6,13.2H61.8z" class="st56"/><path d="M61.5,90.6l-0.1-1.5v-5.8l0.3,7.3C61.8,90.6,61.5,90.6,61.5,90.6z" class="st57"/><path d="M61.5,89.1l0.1,1.5h-0.1V89.1z" class="st57"/></g></g><path d="M27.4,71.6l-9.8,9.8l9.8,9.8l8.3,0l-8.7-8.6l43.1-0.2l-3.8,3.8l4.2,0l4.9-4.9l-4.9-4.9l-4.2,0l3.8,3.8 l-43.1,0.2l8.7-8.7L27.4,71.6z" class="st4"/></g></svg>