<svg xmlns="http://www.w3.org/2000/svg" xmlns:xlink="http://www.w3.org/1999/xlink" id="Layer_1" x="0" y="0" version="1.1" viewBox="0 0 254.5 225" xml:space="preserve" style="enable-background:new 0 0 254.5 225"><style type="text/css">.st0{fill:#fff}.st1{opacity:.6}.st2{clip-path:url(#SVGID_1_)}.st3{clip-path:url(#SVGID_2_)}.st4{fill:#366a96}.st5{fill:#3679b0}.st6{fill:#ffc836}.st7{fill:#ffd855}</style><path d="M36.4,146.9c1.7,2.3,4,4.2,6.6,5.4c2.8,1.4,5.9,2.1,9,2c2.5,0.1,5-0.4,7.4-1.3c1.9-0.7,3.6-1.9,4.9-3.4	c1.3-1.5,2.2-3.2,2.7-5.1c0.6-2,0.8-4.1,0.8-6.2v-7.3h-0.2c-1.6,2.6-4,4.7-6.8,5.9c-2.7,1.2-5.5,1.8-8.4,1.7c-2.8,0-5.7-0.5-8.3-1.6	c-2.5-1-4.8-2.5-6.7-4.3c-1.9-1.9-3.5-4.1-4.5-6.6c-1.1-2.6-1.7-5.4-1.7-8.3c0-2.8,0.5-5.6,1.6-8.3c1-2.5,2.5-4.8,4.3-6.7	c1.8-1.9,4.1-3.5,6.5-4.5c2.6-1.1,5.5-1.6,8.3-1.6c1.3,0,2.6,0.1,3.9,0.3c1.4,0.2,2.8,0.7,4.1,1.2c3.1,1.3,5.8,3.5,7.8,6.3h0.2V98	h5.7v40.4c0,2.4-0.3,4.7-0.8,7c-0.6,2.5-1.7,4.8-3.2,6.9c-1.8,2.2-4.1,4-6.7,5.2c-2.8,1.4-6.6,2.1-11.1,2.1c-3.7,0.1-7.4-0.6-10.9-2	c-3.3-1.4-6.3-3.5-8.7-6.2L36.4,146.9z M37.5,117.8c0,2.1,0.4,4.1,1.2,6c0.8,1.8,1.8,3.5,3.2,5c1.4,1.4,3,2.6,4.8,3.4	c1.9,0.9,3.9,1.3,6,1.3c4.1,0,8-1.5,11-4.3c1.5-1.4,2.6-3.1,3.4-4.9c0.8-2,1.2-4.2,1.1-6.4c0-2.1-0.3-4.1-1-6c-0.7-1.8-1.7-3.5-3-5	c-1.4-1.5-3-2.6-4.9-3.4c-2-0.9-4.2-1.3-6.4-1.3c-2.1,0-4.1,0.4-6,1.3c-1.8,0.8-3.4,2-4.8,3.4c-1.4,1.4-2.5,3.1-3.2,5	C37.9,113.7,37.5,115.8,37.5,117.8z M97,138.7h-6.3V77.1h19c6.3,0,11.2,1.4,14.8,4.1c3.6,2.7,5.4,6.8,5.4,12.4c0.1,4-1.3,7.9-4,10.8	c-2.7,2.9-6.6,4.6-11.7,5.1l17.8,29.2h-7.7l-16.9-28.6H97L97,138.7z M97,104.3h11.1c2.4,0.1,4.8-0.2,7.1-0.9	c1.7-0.5,3.3-1.2,4.7-2.3c1.1-0.9,2-2.1,2.5-3.4c0.5-1.3,0.8-2.8,0.8-4.2c0-1.4-0.3-2.8-0.8-4.1c-0.5-1.3-1.4-2.5-2.5-3.4	c-1.4-1.1-3-1.9-4.7-2.3c-2.3-0.6-4.7-0.9-7.1-0.8H97V104.3z M142.8,77.1h17.9c6.3,0,11.2,1.4,14.8,4.1c3.6,2.7,5.4,6.8,5.4,12.4	c0,5.5-1.8,9.6-5.4,12.4c-3.6,2.8-8.6,4.1-14.8,4.1H149v28.6h-6.3V77.1z M149,104.3h10.1c2.4,0.1,4.8-0.2,7.1-0.9	c1.7-0.5,3.3-1.2,4.7-2.3c1.1-0.9,2-2.1,2.5-3.4c0.5-1.3,0.8-2.8,0.8-4.2c0-1.4-0.3-2.8-0.8-4.1c-0.5-1.3-1.4-2.5-2.5-3.4	c-1.4-1.1-3-1.9-4.7-2.3c-2.3-0.6-4.7-0.9-7.1-0.8H149L149,104.3z M243.9,129c-1.1,1.6-2.4,3.1-3.9,4.4c-1.6,1.4-3.4,2.6-5.3,3.6	c-2,1-4.2,1.8-6.4,2.4c-2.4,0.6-4.8,0.9-7.3,0.9c-4.4,0-8.7-0.8-12.7-2.4c-7.7-3.1-13.8-9.2-16.9-17c-1.7-4.1-2.5-8.5-2.4-13	c0-4.4,0.8-8.8,2.4-13c3.1-7.7,9.2-13.9,16.9-17c4-1.6,8.4-2.5,12.7-2.4c3.9,0,7.8,0.8,11.5,2.3c3.9,1.6,7.3,4.1,9.8,7.5l-5.5,4.1	c-0.7-1.1-1.6-2.1-2.6-3c-1.2-1-2.4-1.9-3.8-2.6c-1.5-0.8-3-1.4-4.6-1.8c-1.6-0.5-3.2-0.7-4.9-0.7c-3.7-0.1-7.3,0.7-10.6,2.2	c-3,1.4-5.7,3.4-8,5.8c-2.2,2.5-3.9,5.4-5,8.5c-2.3,6.6-2.3,13.7,0,20.3c1.1,3.1,2.8,6,5,8.5c2.2,2.5,4.9,4.5,8,5.8	c3.3,1.5,7,2.2,10.6,2.2c1.6,0,3.2-0.1,4.8-0.4c1.6-0.3,3.2-0.8,4.7-1.5c1.6-0.7,3-1.7,4.4-2.8c1.5-1.3,2.7-2.8,3.8-4.5L243.9,129z" class="st0"/><g class="st1"><path d="M26.8,97.3L10.6,81.2l16.1-16.2L42.9,81L26.8,97.3z" class="st0"/><g><defs><rect id="SVGID_5_" width="22.9" height="22.9" x="15.3" y="69.7" transform="matrix(0.7045 -0.7097 0.7097 0.7045 -49.6539 42.9714)"/></defs><clipPath id="SVGID_1_"><use xlink:href="#SVGID_5_" style="overflow:visible"/></clipPath><g class="st2"><path d="M10.9,64.9l-0.3,2.5v-2.5H10.9z M11.3,64.9l-0.7,5.9v-3.3l0.3-2.5C10.9,64.9,11.3,64.9,11.3,64.9z M11.6,64.9l-1,9.2v-3.3l0.7-5.9C11.3,64.9,11.6,64.9,11.6,64.9z M12,64.9l-1.4,12.6v-3.3l1-9.2H12z" class="st0"/><path d="M12.4,64.9l-1.8,15.9v-3.3L12,64.9H12.4z" class="st0"/><path d="M12.8,64.9l-2.2,19.3v-3.3l1.8-15.9H12.8z M13.2,64.9l-2.6,22.6v-3.3l2.2-19.3H13.2z" class="st0"/><path d="M13.5,64.9l-2.9,25.9v-3.3l2.6-22.6C13.2,64.9,13.5,64.9,13.5,64.9z" class="st0"/><path d="M13.9,64.9l-3.3,29.3v-3.3l2.9-25.9C13.5,64.9,13.9,64.9,13.9,64.9z" class="st0"/><path d="M14.3,64.9l-3.7,32.3l0,0v-3l3.3-29.3C13.9,64.9,14.3,64.9,14.3,64.9z" class="st0"/><path d="M14.7,64.9L11,97.3h-0.2l-0.2,0l3.7-32.3C14.3,64.9,14.7,64.9,14.7,64.9z" class="st0"/><path d="M15,64.9l-3.7,32.3H11l3.7-32.3H15z" class="st0"/><path d="M15.4,64.9l-3.7,32.3h-0.4L15,64.9H15.4z" class="st0"/><path d="M15.8,64.9l-3.7,32.3h-0.4l3.7-32.3H15.8z" class="st0"/><path d="M16.2,64.9l-3.7,32.3h-0.4l3.7-32.3C15.8,64.9,16.2,64.9,16.2,64.9z" class="st0"/><path d="M16.6,64.9l-3.7,32.3h-0.4l3.7-32.3H16.6z" class="st0"/><path d="M16.9,64.9l-3.7,32.3h-0.4l3.7-32.3C16.6,64.9,16.9,64.9,16.9,64.9z" class="st0"/><path d="M17.3,64.9l-3.7,32.3h-0.4l3.7-32.3C16.9,64.9,17.3,64.9,17.3,64.9z" class="st0"/><path d="M17.7,64.9L14,97.3h-0.4l3.7-32.3C17.3,64.9,17.7,64.9,17.7,64.9z" class="st0"/><path d="M18.1,64.9l-3.7,32.3H14l3.7-32.3C17.7,64.9,18.1,64.9,18.1,64.9z" class="st0"/><path d="M18.5,64.9l-3.7,32.3h-0.4l3.7-32.3C18.1,64.9,18.5,64.9,18.5,64.9z" class="st0"/><path d="M18.8,64.9l-3.7,32.3h-0.4l3.7-32.3C18.5,64.9,18.8,64.9,18.8,64.9z" class="st0"/><path d="M19.2,64.9l-3.7,32.3h-0.4l3.7-32.3C18.8,64.9,19.2,64.9,19.2,64.9z" class="st0"/><path d="M19.6,64.9l-3.7,32.3h-0.4l3.7-32.3C19.2,64.9,19.6,64.9,19.6,64.9z" class="st0"/><path d="M20,64.9l-3.7,32.3h-0.4l3.7-32.3C19.6,64.9,20,64.9,20,64.9z" class="st0"/><path d="M20.3,64.9l-3.7,32.3h-0.4L20,64.9C20,64.9,20.3,64.9,20.3,64.9z M20.7,64.9l-3.7,32.3h-0.4l3.7-32.3 C20.3,64.9,20.7,64.9,20.7,64.9z" class="st0"/><path d="M21.1,64.9l-3.7,32.3h-0.4l3.7-32.3C20.7,64.9,21.1,64.9,21.1,64.9z" class="st0"/><path d="M21.5,64.9l-3.7,32.3h-0.4l3.7-32.3C21.1,64.9,21.5,64.9,21.5,64.9z" class="st0"/><path d="M21.9,64.9l-3.7,32.3h-0.4l3.7-32.3C21.5,64.9,21.9,64.9,21.9,64.9z" class="st0"/><path d="M22.2,64.9l-3.7,32.3h-0.4l3.7-32.3C21.9,64.9,22.2,64.9,22.2,64.9z" class="st0"/><path d="M22.6,64.9L19,97.3h-0.4l3.7-32.3C22.2,64.9,22.6,64.9,22.6,64.9z" class="st0"/><path d="M23,64.9l-3.7,32.3H19l3.7-32.3C22.6,64.9,23,64.9,23,64.9z" class="st0"/><path d="M23.4,64.9l-3.7,32.3h-0.4L23,64.9C23,64.9,23.4,64.9,23.4,64.9z" class="st0"/><path d="M23.7,64.9l-3.7,32.3h-0.4l3.7-32.3H23.7z" class="st0"/><path d="M24.1,64.9l-3.7,32.3h-0.4l3.7-32.3C23.7,64.9,24.1,64.9,24.1,64.9z" class="st0"/><path d="M24.5,64.9l-3.7,32.3h-0.4l3.7-32.3C24.1,64.9,24.5,64.9,24.5,64.9z" class="st0"/><path d="M24.9,64.9l-3.7,32.3h-0.4l3.7-32.3C24.5,64.9,24.9,64.9,24.9,64.9z" class="st0"/><path d="M25.3,64.9l-3.7,32.3h-0.4l3.7-32.3C24.9,64.9,25.3,64.9,25.3,64.9z" class="st0"/><path d="M25.6,64.9L22,97.3h-0.4l3.7-32.3C25.3,64.9,25.6,64.9,25.6,64.9z" class="st0"/><path d="M26,64.9l-3.7,32.3H22l3.7-32.3C25.6,64.9,26,64.9,26,64.9z" class="st0"/><path d="M26.4,64.9l-3.7,32.3h-0.4L26,64.9C26,64.9,26.4,64.9,26.4,64.9z" class="st0"/><path d="M26.8,64.9l-3.7,32.3h-0.4l3.7-32.3C26.4,64.9,26.8,64.9,26.8,64.9z" class="st0"/><path d="M27.1,64.9l-3.7,32.3h-0.4l3.7-32.3C26.8,64.9,27.1,64.9,27.1,64.9z" class="st0"/><path d="M27.5,64.9l-3.7,32.3h-0.4l3.7-32.3C27.1,64.9,27.5,64.9,27.5,64.9z" class="st0"/><path d="M27.9,64.9l-3.7,32.3h-0.4l3.7-32.3C27.5,64.9,27.9,64.9,27.9,64.9z" class="st0"/><path d="M28.3,64.9l-3.7,32.3h-0.4l3.7-32.3C27.9,64.9,28.3,64.9,28.3,64.9z" class="st0"/><path d="M28.7,64.9L25,97.3h-0.4l3.7-32.3C28.3,64.9,28.7,64.9,28.7,64.9z" class="st0"/><path d="M29,64.9l-3.7,32.3H25l3.7-32.3C28.7,64.9,29,64.9,29,64.9z" class="st0"/><path d="M29.4,64.9l-3.7,32.3h-0.4L29,64.9C29,64.9,29.4,64.9,29.4,64.9z" class="st0"/><path d="M29.8,64.9l-3.7,32.3h-0.4l3.7-32.3C29.4,64.9,29.8,64.9,29.8,64.9z" class="st0"/><path d="M30.2,64.9l-3.7,32.3h-0.4l3.7-32.3C29.8,64.9,30.2,64.9,30.2,64.9z" class="st0"/><path d="M30.5,64.9l-3.7,32.3h-0.4l3.7-32.3C30.2,64.9,30.5,64.9,30.5,64.9z" class="st0"/><path d="M30.9,64.9l-3.7,32.3h-0.4l3.7-32.3H30.9z" class="st0"/><path d="M31.3,64.9l-3.7,32.3h-0.4l3.7-32.3C30.9,64.9,31.3,64.9,31.3,64.9z" class="st0"/><path d="M31.7,64.9L28,97.3h-0.4l3.7-32.3H31.7z" class="st0"/><path d="M32.1,64.9l-3.7,32.3H28l3.7-32.3C31.7,64.9,32.1,64.9,32.1,64.9z" class="st0"/><path d="M32.4,64.9l-3.7,32.3h-0.4l3.7-32.3C32.1,64.9,32.4,64.9,32.4,64.9z" class="st0"/><path d="M32.8,64.9l-3.7,32.3h-0.4l3.7-32.3C32.4,64.9,32.8,64.9,32.8,64.9z" class="st0"/><path d="M33.2,64.9l-3.7,32.3h-0.4l3.7-32.3C32.8,64.9,33.2,64.9,33.2,64.9z" class="st0"/><path d="M33.6,64.9l-3.7,32.3h-0.4l3.7-32.3C33.2,64.9,33.6,64.9,33.6,64.9z" class="st0"/><path d="M33.9,64.9l-3.7,32.3h-0.4l3.7-32.3C33.6,64.9,33.9,64.9,33.9,64.9z" class="st0"/><path d="M34.3,64.9l-3.7,32.3h-0.4l3.7-32.3C33.9,64.9,34.3,64.9,34.3,64.9z" class="st0"/><path d="M34.7,64.9l-3.7,32.3h-0.4l3.7-32.3C34.3,64.9,34.7,64.9,34.7,64.9z" class="st0"/><path d="M35.1,64.9l-3.7,32.3h-0.4l3.7-32.3C34.7,64.9,35.1,64.9,35.1,64.9z" class="st0"/><path d="M35.5,64.9l-3.7,32.3h-0.4l3.7-32.3C35.1,64.9,35.5,64.9,35.5,64.9z" class="st0"/><path d="M35.8,64.9l-3.7,32.3h-0.4l3.7-32.3C35.5,64.9,35.8,64.9,35.8,64.9z" class="st0"/><path d="M36.2,64.9l-3.7,32.3h-0.4l3.7-32.3C35.8,64.9,36.2,64.9,36.2,64.9z" class="st0"/><path d="M36.6,64.9l-3.7,32.3h-0.4l3.7-32.3C36.2,64.9,36.6,64.9,36.6,64.9z" class="st0"/><path d="M42.7,64.9l0.2,0v32.3h-10l3.7-32.3C36.6,64.9,42.7,64.9,42.7,64.9z" class="st0"/></g></g></g><g class="st1"><path d="M71,90.4L61.5,81l9.4-9.5l9.5,9.4L71,90.4z" class="st0"/><g><defs><rect id="SVGID_7_" width="13.4" height="13.4" x="64.2" y="74.2" transform="matrix(0.7045 -0.7097 0.7097 0.7045 -36.4613 74.2724)"/></defs><clipPath id="SVGID_2_"><use xlink:href="#SVGID_7_" style="overflow:visible"/></clipPath><g class="st3"><path d="M80.4,77l-0.3-5.5h0.3V77z" class="st0"/><path d="M80.4,82.8l-0.5-11.4h0.3l0.3,5.5V82.8z" class="st0"/><path d="M80.4,88.6l-0.8-17.2h0.3l0.5,11.4C80.4,82.8,80.4,88.6,80.4,88.6z M80.2,90.4l-0.9-19h0.3l0.8,17.2v1.8 H80.2z" class="st0"/><path d="M80,90.4l-0.9-19h0.3l0.9,19H80z M79.7,90.4l-0.9-19h0.3l0.9,19H79.7z M79.4,90.4l-0.9-19h0.3l0.9,19H79.4z M79.2,90.4l-0.9-19h0.3l0.9,19H79.2z M78.9,90.4l-0.9-19h0.3l0.9,19H78.9z M78.6,90.4l-0.9-19H78l0.9,19H78.6z M78.4,90.4 l-0.9-19h0.3l0.9,19H78.4z M78.1,90.4l-0.9-19h0.3l0.9,19H78.1z M77.8,90.4l-0.9-19h0.3l0.9,19H77.8z M77.5,90.4l-0.9-19h0.3 l0.9,19H77.5z M77.3,90.4l-0.9-19h0.3l0.9,19H77.3z M77,90.4l-0.9-19h0.3l0.9,19H77z M76.7,90.4l-0.9-19h0.3l0.9,19H76.7z M76.5,90.4l-0.9-19h0.3l0.9,19H76.5z M76.2,90.4l-0.9-19h0.3l0.9,19H76.2z M75.9,90.4l-0.9-19h0.3l0.9,19H75.9z M75.6,90.4 l-0.9-19H75l0.9,19H75.6z M75.4,90.4l-0.9-19h0.3l0.9,19H75.4z M75.1,90.4l-0.9-19h0.3l0.9,19H75.1z M74.8,90.4l-0.9-19h0.3 l0.9,19H74.8z M74.6,90.4l-0.9-19h0.3l0.9,19H74.6z M74.3,90.4l-0.9-19h0.3l0.9,19H74.3z M74,90.4l-0.9-19h0.3l0.9,19H74z M73.7,90.4l-0.9-19h0.3l0.9,19H73.7z M73.5,90.4l-0.9-19h0.3l0.9,19H73.5z M73.2,90.4l-0.9-19h0.3l0.9,19H73.2z M72.9,90.4 l-0.9-19h0.3l0.9,19H72.9z M72.7,90.4l-0.9-19H72l0.9,19H72.7z M72.4,90.4l-0.9-19h0.3l0.9,19H72.4z M72.1,90.4l-0.9-19h0.3 l0.9,19H72.1z M71.8,90.4l-0.9-19h0.3l0.9,19H71.8z M71.6,90.4l-0.9-19H71l0.9,19H71.6z M71.3,90.4l-0.9-19h0.3l0.9,19H71.3z M71,90.4l-0.9-19h0.3l0.9,19H71z M70.8,90.4l-0.9-19h0.3l0.9,19H70.8z M70.5,90.4l-0.9-19h0.3l0.9,19H70.5z M70.2,90.4l-0.9-19 h0.3l0.9,19H70.2L70.2,90.4z M69.9,90.4l-0.9-19h0.3l0.9,19H69.9z M69.7,90.4l-0.9-19h0.3l0.9,19H69.7z M69.4,90.4l-0.9-19h0.3 l0.9,19H69.4z M69.1,90.4l-0.9-19h0.3l0.9,19H69.1z M68.9,90.4l-0.9-19h0.3l0.9,19H68.9z M68.6,90.4l-0.9-19H68l0.9,19H68.6z M68.3,90.4l-0.9-19h0.3l0.9,19H68.3z M68,90.4l-0.9-19h0.3l0.9,19H68z M67.8,90.4l-0.9-19h0.3l0.9,19H67.8z M67.5,90.4l-0.9-19 h0.3l0.9,19H67.5z M67.2,90.4l-0.9-19h0.3l0.9,19H67.2z M67,90.4l-0.9-19h0.3l0.9,19H67z M66.7,90.4l-0.9-19h0.3l0.9,19H66.7 L66.7,90.4z M66.4,90.4l-0.9-19h0.3l0.9,19H66.4z M66.2,90.4l-0.9-19h0.3l0.9,19H66.2z M65.9,90.4l-0.9-19h0.3l0.9,19H65.9z M65.6,90.4l-0.9-19H65l0.9,19H65.6z M65.3,90.4l-0.9-19h0.3l0.9,19H65.3z M65.1,90.4l-0.9-19h0.3l0.9,19H65.1z M64.8,90.4 l-0.9-19h0.3l0.9,19H64.8z M64.5,90.4l-0.9-19h0.3l0.9,19H64.5z M64.3,90.4l-0.9-19h0.3l0.9,19H64.3z M64,90.4l-0.9-19h0.3 l0.9,19H64z M63.7,90.4l-0.9-19h0.3l0.9,19H63.7z M63.4,90.4l-0.9-19h0.3l0.9,19H63.4z M63.2,90.4l-0.9-19h0.3l0.9,19H63.2 L63.2,90.4z M62.9,90.4l-0.9-19h0.3l0.9,19H62.9z M62.6,90.4l-0.9-19H62l0.9,19H62.6z M62.4,90.4l-0.9-19h0.3l0.9,19H62.4z M62.1,90.4l-0.6-13.2v-5.8h0l0.9,19H62.1z M61.8,90.4l-0.3-7.3v-5.8l0.6,13.2H61.8z M61.5,90.4l-0.1-1.5v-5.8l0.3,7.3 C61.8,90.4,61.5,90.4,61.5,90.4z M61.5,88.9l0.1,1.5h-0.1V88.9z" class="st0"/></g></g></g><path d="M27.4,71.3l-9.8,9.8l9.8,9.8l8.3,0l-8.7-8.6l43-0.2l-3.8,3.8l4.2,0l4.9-4.9l-4.9-4.9l-4.2,0l3.8,3.8l-43,0.2	l8.7-8.7L27.4,71.3z" class="st0"/><rect width="192.4" height="192.4" x="-103.4" y="-926.8" class="st4"/><rect width="192.4" height="192.4" x="-363.8" y="-926.8" class="st5"/><rect width="192.4" height="192.4" x="-103.4" y="-669.8" class="st6"/><rect width="192.4" height="192.4" x="-363.8" y="-669.8" class="st7"/></svg>