<?xml version="1.0" encoding="UTF-8"?><svg id="_イヤー_1" xmlns="http://www.w3.org/2000/svg" xmlns:xlink="http://www.w3.org/1999/xlink" viewBox="0 0 200 200"><defs><style>.cls-1{fill:none;}.cls-2{fill:url(#_称未設定グラデーション_2-2);}.cls-3{fill:url(#_称未設定グラデーション_2);}.cls-4{clip-path:url(#clippath);}.cls-5{clip-path:url(#clippath-1);}.cls-6{clip-path:url(#clippath-4);}.cls-7{clip-path:url(#clippath-3);}.cls-8{clip-path:url(#clippath-2);}.cls-9{fill:url(#_称未設定グラデーション_2-7);filter:url(#drop-shadow-5);}.cls-10{fill:url(#_称未設定グラデーション_2-5);filter:url(#drop-shadow-3);}.cls-11{fill:url(#_称未設定グラデーション_2-3);filter:url(#drop-shadow-1);}.cls-12{fill:url(#_称未設定グラデーション_2-4);filter:url(#drop-shadow-2);}.cls-13{fill:url(#_称未設定グラデーション_2-6);filter:url(#drop-shadow-4);}</style><linearGradient id="_称未設定グラデーション_2" x1="29.15" y1="124.31" x2="188.72" y2="124.31" gradientTransform="matrix(1, 0, 0, 1, 0, 0)" gradientUnits="userSpaceOnUse"><stop offset="0" stop-color="#52ada6"/><stop offset="1" stop-color="#265c70"/></linearGradient><linearGradient id="_称未設定グラデーション_2-2" x1="11.28" y1="65.73" x2="167.09" y2="65.73" xlink:href="#_称未設定グラデーション_2"/><clipPath id="clippath"><rect class="cls-1" x="-200.14" y="46.53" width="18.61" height="106.94" rx="-81.45" ry="-81.45"/></clipPath><linearGradient id="_称未設定グラデーション_2-3" x1="-269.25" y1="98.54" x2="29.25" y2="98.54" xlink:href="#_称未設定グラデーション_2"/><filter id="drop-shadow-1" filterUnits="userSpaceOnUse"><feOffset dx="0" dy="0"/><feGaussianBlur result="blur" stdDeviation="23.92"/><feFlood flood-color="#040000" flood-opacity=".1"/><feComposite in2="blur" operator="in"/><feComposite in="SourceGraphic"/></filter><clipPath id="clippath-1"><rect class="cls-1" x="-129.31" y="58.57" width="18.61" height="82.87" rx="-46.04" ry="-46.04"/></clipPath><linearGradient id="_称未設定グラデーション_2-4" x1="-269.25" y1="98.54" x2="29.25" y2="98.54" xlink:href="#_称未設定グラデーション_2"/><filter id="drop-shadow-2" filterUnits="userSpaceOnUse"><feOffset dx="0" dy="0"/><feGaussianBlur result="blur-2" stdDeviation="23.92"/><feFlood flood-color="#040000" flood-opacity=".1"/><feComposite in2="blur-2" operator="in"/><feComposite in="SourceGraphic"/></filter><clipPath id="clippath-2"><rect class="cls-1" x="-93.89" y="24.47" width="18.61" height="151.05" rx="-28.33" ry="-28.33"/></clipPath><linearGradient id="_称未設定グラデーション_2-5" x1="-269.25" y1="98.54" x2="29.25" y2="98.54" xlink:href="#_称未設定グラデーション_2"/><filter id="drop-shadow-3" filterUnits="userSpaceOnUse"><feOffset dx="0" dy="0"/><feGaussianBlur result="blur-3" stdDeviation="23.92"/><feFlood flood-color="#040000" flood-opacity=".1"/><feComposite in2="blur-3" operator="in"/><feComposite in="SourceGraphic"/></filter><clipPath id="clippath-3"><rect class="cls-1" x="-58.48" y="75.11" width="18.61" height="49.78" rx="-10.62" ry="-10.62"/></clipPath><linearGradient id="_称未設定グラデーション_2-6" x1="-269.25" y1="98.54" x2="29.25" y2="98.54" xlink:href="#_称未設定グラデーション_2"/><filter id="drop-shadow-4" filterUnits="userSpaceOnUse"><feOffset dx="0" dy="0"/><feGaussianBlur result="blur-4" stdDeviation="23.92"/><feFlood flood-color="#040000" flood-opacity=".1"/><feComposite in2="blur-4" operator="in"/><feComposite in="SourceGraphic"/></filter><clipPath id="clippath-4"><rect class="cls-1" x="-164.72" y="20.16" width="18.61" height="159.68" rx="-63.75" ry="-63.75"/></clipPath><linearGradient id="_称未設定グラデーション_2-7" x1="-269.25" y1="98.54" x2="29.25" y2="98.54" xlink:href="#_称未設定グラデーション_2"/><filter id="drop-shadow-5" filterUnits="userSpaceOnUse"><feOffset dx="0" dy="0"/><feGaussianBlur result="blur-5" stdDeviation="23.92"/><feFlood flood-color="#040000" flood-opacity=".1"/><feComposite in2="blur-5" operator="in"/><feComposite in="SourceGraphic"/></filter></defs><g><path class="cls-3" d="M188.54,166.02l-6.95-16.49c-1.33-3.16-1.29-6.7,0-9.87,2.17-5.32,3.37-11.13,3.37-17.23,0-25.22-20.45-45.67-45.67-45.67H74.82c-25.22,0-45.67,20.45-45.67,45.67s20.45,45.67,45.67,45.67h64.47c5.98,0,11.69-1.15,16.92-3.24,3.09-1.23,6.52-1.28,9.6-.03l16.94,6.86c3.53,.96,6.78-2.22,5.79-5.67Zm-111.88-36.49c-4.27,0-7.73-3.46-7.73-7.73s3.46-7.73,7.73-7.73,7.73,3.46,7.73,7.73-3.46,7.73-7.73,7.73Zm31.01,0c-4.27,0-7.73-3.46-7.73-7.73s3.46-7.73,7.73-7.73,7.73,3.46,7.73,7.73-3.46,7.73-7.73,7.73Zm31.01,0c-4.27,0-7.73-3.46-7.73-7.73s3.46-7.73,7.73-7.73,7.73,3.46,7.73,7.73-3.46,7.73-7.73,7.73Z"/><path class="cls-2" d="M74.82,66.36h64.47c10.11,0,19.6,2.7,27.8,7.41-.03-25.2-20.46-45.62-45.67-45.62H56.95c-25.22,0-45.67,20.45-45.67,45.67,0,11.25,4.08,21.55,10.82,29.51,7.83-21.54,28.5-36.96,52.71-36.96Z"/></g><g><g class="cls-4"><circle class="cls-11" cx="-120" cy="98.54" r="149.25"/></g><g class="cls-5"><circle class="cls-12" cx="-120" cy="98.54" r="149.25"/></g><g class="cls-8"><circle class="cls-10" cx="-120" cy="98.54" r="149.25"/></g><g class="cls-7"><circle class="cls-13" cx="-120" cy="98.54" r="149.25"/></g><g class="cls-6"><circle class="cls-9" cx="-120" cy="98.54" r="149.25"/></g></g></svg>