<?xml version="1.0" encoding="UTF-8"?><svg id="_イヤー_1" xmlns="http://www.w3.org/2000/svg" xmlns:xlink="http://www.w3.org/1999/xlink" viewBox="0 0 200 200"><defs><style>.cls-1{fill:url(#_称未設定グラデーション_2-2);}.cls-2{fill:url(#_称未設定グラデーション_2);}</style><linearGradient id="_称未設定グラデーション_2" x1="21.41" y1="140.37" x2="178.59" y2="140.37" gradientTransform="matrix(1, 0, 0, 1, 0, 0)" gradientUnits="userSpaceOnUse"><stop offset="0" stop-color="#52ada6"/><stop offset="1" stop-color="#265c70"/></linearGradient><linearGradient id="_称未設定グラデーション_2-2" y1="79.92" y2="79.92" xlink:href="#_称未設定グラデーション_2"/></defs><path class="cls-2" d="M162.2,107.24c-6.98-6.75-18.43-6.79-28.52-.12l-35.18,23.04c-2.79,1.83-6.43,1.5-8.85-.81l-2.12-2.02c-6.98-6.74-18.43-6.78-28.52-.12l-37.6,24.83v11.62c0,8.25,6.69,14.94,14.94,14.94h127.31c8.25,0,14.94-6.69,14.94-14.94v-40.8l-16.39-15.62Z"/><path class="cls-1" d="M163.66,21.41H36.34c-8.25,0-14.94,6.69-14.94,14.94v102.1l31.35-20.71c14.49-9.57,31.43-9.1,42.31,1.11l32.38-21.21c14.61-9.64,31.73-9.08,42.6,1.42l8.54,8.14V36.34c0-8.25-6.69-14.94-14.94-14.94Zm-93.57,62.36c-9.68,0-17.54-7.85-17.54-17.54s7.85-17.54,17.54-17.54,17.54,7.85,17.54,17.54-7.85,17.54-17.54,17.54Z"/></svg>