<?xml version="1.0" encoding="UTF-8"?><svg id="_イヤー_1" xmlns="http://www.w3.org/2000/svg" xmlns:xlink="http://www.w3.org/1999/xlink" viewBox="0 0 200 200"><defs><style>.cls-1{fill:url(#_称未設定グラデーション_2-2);}.cls-2{fill:url(#_称未設定グラデーション_2-3);}.cls-3{fill:url(#_称未設定グラデーション_2-4);}.cls-4{fill:url(#_称未設定グラデーション_2);}</style><linearGradient id="_称未設定グラデーション_2" x1="83.5" y1="49.18" x2="157.74" y2="49.18" gradientTransform="matrix(1, 0, 0, 1, 0, 0)" gradientUnits="userSpaceOnUse"><stop offset="0" stop-color="#52ada6"/><stop offset="1" stop-color="#265c70"/></linearGradient><linearGradient id="_称未設定グラデーション_2-2" x1="15.47" y1="79.81" x2="98.19" y2="79.81" xlink:href="#_称未設定グラデーション_2"/><linearGradient id="_称未設定グラデーション_2-3" x1="15.61" y1="140.82" x2="144.53" y2="140.82" xlink:href="#_称未設定グラデーション_2"/><linearGradient id="_称未設定グラデーション_2-4" x1="115.4" y1="108.39" x2="184.53" y2="108.39" xlink:href="#_称未設定グラデーション_2"/></defs><path class="cls-4" d="M88.74,54.51l3.82,6.44,1.92,3.2,1.95,3.2c1.3,2.12,2.61,4.22,4.01,6.17,1.38,1.96,2.92,3.79,4.6,5.25,1.16,.97,2.68,1.68,4.29,2.18,.53,.13,1.06,.24,1.59,.31,1.08,.16,2.2,.18,3.14,.03,2.23-.39,4.49-1.16,6.68-2.12,2.21-.94,4.4-2.07,6.63-3.21,2.21-1.14,4.42-2.3,6.62-3.48l6.6-3.54,13.19-7.13,3.95-2.14-24.32-42.72-16.8,29.51-16.8-29.51-16.31,28.65,5.24,8.89Z"/><path class="cls-1" d="M15.47,141.09l4.15-2.52c4.28-2.6,8.59-5.13,12.89-7.7,4.3-2.56,8.62-5.07,12.93-7.62l12.94-7.58,12.92-7.61,6.44-3.82,3.2-1.92,3.2-1.95c2.12-1.3,4.22-2.61,6.17-4.01,1.96-1.38,3.79-2.92,5.25-4.6,1.2-1.44,2-3.41,2.49-5.46,.07-.5,.11-1,.13-1.49,0-.43,.01-.9-.03-1.26l-.02-.29c-.01-.11-.04-.25-.05-.37l-.06-.38v-.09l-.02-.02-.03-.17c-.18-.92-.42-1.83-.71-2.73-.58-1.81-1.34-3.6-2.18-5.39-.84-1.78-1.77-3.58-2.7-5.38-.92-1.8-1.86-3.59-2.8-5.39l-2.77-5.24-1.07-1.88c-1.23-2.18-2.44-4.37-3.65-6.57l-3.61-6.58-3.59-6.59-3.55-6.61c-2.01-3.78-4.04-7.55-6.04-11.34L27.7,84.61h15.62l-27.86,56.48Z"/><path class="cls-2" d="M139.96,151.42l-3.83-6.46-3.78-6.48c-2.52-4.33-5.03-8.66-7.51-13.01l-.9-1.62-3.22-5.35c-1.05-1.73-2.1-3.45-3.17-5.18-1.06-1.72-2.12-3.45-3.21-5.09-1.1-1.64-2.23-3.22-3.49-4.65-.31-.36-.64-.7-.96-1.04l-.48-.47c-.16-.16-.37-.34-.55-.51-.63-.56-1.32-1.06-2.09-1.49-.79-.44-1.64-.81-2.52-1.11-.89-.19-1.79-.3-2.68-.34-.43,0-.9-.01-1.26,.03l-.29,.02c-.11,.01-.25,.04-.37,.05l-.38,.06h-.09l-.02,.02-.17,.04c-.91,.18-1.83,.42-2.73,.71-1.81,.58-3.6,1.34-5.39,2.18-1.78,.84-3.58,1.77-5.38,2.7-1.8,.92-3.59,1.86-5.39,2.8l-5.24,2.77-1.88,1.07c-2.18,1.23-4.37,2.44-6.57,3.65l-6.58,3.61-6.59,3.59-6.61,3.55c-4.42,2.35-8.82,4.73-13.25,7.06-4.43,2.32-8.84,4.68-13.28,6.99l-4.52,2.36H55.1v40.25c0,.52,.42,.95,.95,.95h20.33c.52,0,.95-.42,.95-.95v-40.25h11.38v40.25c0,.52,.42,.95,.95,.95h20.33c.52,0,.95-.42,.95-.95v-40.25h11.38v40.25c0,.52,.42,.95,.95,.95h20.33c.52,0,.95-.42,.95-.95v-23.01c-1.52-2.55-3.04-5.11-4.56-7.66Z"/><path class="cls-3" d="M171.92,84.61l-12.77-22.43-3.89,2.27c-4.33,2.52-8.66,5.03-13.01,7.51l-1.62,.91-5.35,3.21c-1.73,1.05-3.45,2.1-5.18,3.17-1.72,1.06-3.45,2.12-5.09,3.21-1.64,1.1-3.22,2.23-4.65,3.49-.36,.31-.7,.64-1.04,.96l-.47,.48c-.16,.16-.34,.37-.51,.55-.56,.63-1.06,1.32-1.49,2.09-.26,.46-.48,.95-.69,1.45-.28,.89-.5,1.79-.63,2.69-.16,1.08-.18,2.2-.03,3.14,.39,2.23,1.16,4.49,2.12,6.68,.94,2.21,2.07,4.4,3.21,6.63,1.14,2.21,2.3,4.42,3.48,6.62l3.54,6.6,7.13,13.19,7.16,13.18c.79,1.47,1.59,2.95,2.39,4.42v-12.76h40.01l-28.23-57.24h15.62Z"/></svg>