<?xml version="1.0" encoding="UTF-8"?><svg id="_イヤー_1" xmlns="http://www.w3.org/2000/svg" xmlns:xlink="http://www.w3.org/1999/xlink" viewBox="0 0 200 200"><defs><style>.cls-1{fill:none;}.cls-2{fill:url(#_称未設定グラデーション_2-2);}.cls-3{fill:url(#_称未設定グラデーション_2);}.cls-4{clip-path:url(#clippath);}.cls-5{clip-path:url(#clippath-1);}.cls-6{clip-path:url(#clippath-2);}</style><clipPath id="clippath"><path class="cls-1" d="M58.54,55.76c-3.23,0-5.86,2.63-5.86,5.86v15.17c0,3.23,2.63,5.86,5.86,5.86s5.86-2.63,5.86-5.86v-15.17c0-3.23-2.63-5.86-5.86-5.86Z"/></clipPath><linearGradient id="_称未設定グラデーション_2" x1="21.41" y1="99.74" x2="178.59" y2="99.74" gradientTransform="matrix(1, 0, 0, 1, 0, 0)" gradientUnits="userSpaceOnUse"><stop offset="0" stop-color="#52ada6"/><stop offset="1" stop-color="#265c70"/></linearGradient><clipPath id="clippath-1"><path class="cls-1" d="M141.44,55.76c-3.23,0-5.86,2.63-5.86,5.86v15.17c0,3.23,2.63,5.86,5.86,5.86s5.86-2.63,5.86-5.86v-15.17c0-3.23-2.63-5.86-5.86-5.86Z"/></clipPath><clipPath id="clippath-2"><path class="cls-1" d="M58.54,115.13c-3.23,0-5.86,2.63-5.86,5.86v15.17c0,3.23,2.63,5.86,5.86,5.86s5.86-2.63,5.86-5.86v-15.17c0-3.23-2.63-5.86-5.86-5.86Z"/></clipPath><linearGradient id="_称未設定グラデーション_2-2" x1="21.41" y1="100" x2="178.59" y2="100" xlink:href="#_称未設定グラデーション_2"/></defs><g class="cls-4"><rect class="cls-3" x="21.41" y="21.14" width="157.19" height="157.19" rx="14.94" ry="14.94"/></g><g class="cls-5"><rect class="cls-3" x="21.41" y="21.14" width="157.19" height="157.19" rx="14.94" ry="14.94"/></g><g class="cls-6"><rect class="cls-3" x="21.41" y="21.14" width="157.19" height="157.19" rx="14.94" ry="14.94"/></g><path class="cls-2" d="M163.66,21.41H36.34c-8.25,0-14.94,6.69-14.94,14.94v127.31c0,8.25,6.69,14.94,14.94,14.94h127.31c8.25,0,14.94-6.69,14.94-14.94V36.34c0-8.25-6.69-14.94-14.94-14.94Zm-90.75,115.03c0,7.92-6.44,14.37-14.37,14.37s-14.37-6.44-14.37-14.37v-15.17c0-7.92,6.45-14.37,14.37-14.37s14.37,6.45,14.37,14.37v15.17Zm0-59.38c0,7.92-6.44,14.37-14.37,14.37s-14.37-6.44-14.37-14.37v-15.17c0-7.92,6.45-14.37,14.37-14.37s14.37,6.44,14.37,14.37v15.17Zm31.34,69.17c0,2.35-1.9,4.25-4.25,4.25s-4.25-1.9-4.25-4.25v-34.77c0-2.35,1.9-4.25,4.25-4.25s4.25,1.9,4.25,4.25v34.77Zm0-59.38c0,2.35-1.9,4.25-4.25,4.25s-4.25-1.9-4.25-4.25V52.08c0-2.35,1.9-4.25,4.25-4.25s4.25,1.9,4.25,4.25v34.77Zm42.05,59.38c0,2.35-1.9,4.25-4.25,4.25s-4.25-1.9-4.25-4.25v-34.77c0-2.35,1.9-4.25,4.25-4.25s4.25,1.9,4.25,4.25v34.77Zm9.52-69.17c0,7.92-6.45,14.37-14.37,14.37s-14.37-6.44-14.37-14.37v-15.17c0-7.92,6.44-14.37,14.37-14.37s14.37,6.44,14.37,14.37v15.17Z"/></svg>