<?xml version="1.0" encoding="UTF-8"?><svg id="_イヤー_1" xmlns="http://www.w3.org/2000/svg" xmlns:xlink="http://www.w3.org/1999/xlink" viewBox="0 0 200 200"><defs><style>.cls-1{fill:url(#_称未設定グラデーション_2-2);}.cls-2{fill:url(#_称未設定グラデーション_2);}</style><linearGradient id="_称未設定グラデーション_2" x1="26.55" y1="83.81" x2="127.07" y2="83.81" gradientTransform="matrix(1, 0, 0, 1, 0, 0)" gradientUnits="userSpaceOnUse"><stop offset="0" stop-color="#52ada6"/><stop offset="1" stop-color="#265c70"/></linearGradient><linearGradient id="_称未設定グラデーション_2-2" x1="72.93" y1="116.19" x2="173.45" y2="116.19" xlink:href="#_称未設定グラデーション_2"/></defs><path class="cls-2" d="M63.93,61.34c0-9.61,7.82-17.43,17.43-17.43h45.71v-14.96c0-4.65-3.77-8.43-8.43-8.43H34.98c-4.65,0-8.43,3.77-8.43,8.43v109.69c0,4.65,3.77,8.43,8.43,8.43h28.96V61.34Z"/><path class="cls-1" d="M165.02,52.92H81.36c-4.65,0-8.43,3.77-8.43,8.43v109.69c0,4.65,3.77,8.43,8.43,8.43h83.66c4.65,0,8.43-3.77,8.43-8.43V61.34c0-4.65-3.77-8.43-8.43-8.43Zm-18.1,97.29h-46.17c-2.35,0-4.25-1.9-4.25-4.25s1.9-4.25,4.25-4.25h46.17c2.35,0,4.25,1.9,4.25,4.25s-1.9,4.25-4.25,4.25Zm0-29.77h-46.17c-2.35,0-4.25-1.9-4.25-4.25s1.9-4.25,4.25-4.25h46.17c2.35,0,4.25,1.9,4.25,4.25s-1.9,4.25-4.25,4.25Zm0-29.77h-46.17c-2.35,0-4.25-1.9-4.25-4.25s1.9-4.25,4.25-4.25h46.17c2.35,0,4.25,1.9,4.25,4.25s-1.9,4.25-4.25,4.25Z"/></svg>