<svg xmlns="http://www.w3.org/2000/svg" xmlns:xlink="http://www.w3.org/1999/xlink" id="Layer_1" x="0" y="0" version="1.1" viewBox="0 0 254.5 225" xml:space="preserve" style="enable-background:new 0 0 254.5 225"><style type="text/css">.st0{fill:#326ce5}.st1{fill:#fff}</style><g id="layer1" transform="translate(8.8111836,-148.45869)"><path id="path3055" d="M117.9,179.9c-1.4,0.1-2.7,0.4-3.9,1l-53.4,25.5c-2.8,1.3-4.8,3.9-5.5,6.9l-13.2,57.3 c-0.6,2.7-0.1,5.5,1.4,7.8c0.2,0.3,0.4,0.5,0.6,0.8l37,46c1.9,2.4,4.9,3.8,8,3.8l59.3,0c3.1,0,6-1.4,8-3.8l37-46 c1.9-2.4,2.7-5.6,2-8.6l-13.2-57.3c-0.7-3-2.7-5.5-5.5-6.9l-53.4-25.5C121.3,180.1,119.6,179.8,117.9,179.9z" class="st0"/><path id="path3054-2-9" d="M117.9,175.7c-1.4,0.1-2.8,0.4-4.1,1.1l-56.4,26.9c-3,1.4-5.1,4.1-5.8,7.3l-13.9,60.5 c-0.7,2.8-0.1,5.8,1.5,8.2c0.2,0.3,0.4,0.6,0.6,0.8l39,48.5c2,2.5,5.2,4,8.4,4l62.6,0c3.3,0,6.4-1.5,8.4-4l39-48.5 c2-2.5,2.8-5.9,2.1-9L185.4,211c-0.7-3.2-2.9-5.8-5.8-7.2l-56.4-26.9C121.5,176,119.7,175.7,117.9,175.7z M117.9,179.9 c1.7-0.1,3.4,0.3,5,1l53.4,25.5c2.8,1.3,4.8,3.9,5.5,6.9l13.2,57.3c0.7,3,0,6.2-2,8.6l-37,46c-1.9,2.4-4.9,3.8-8,3.8l-59.3,0 c-3.1,0-6-1.4-8-3.8l-37-46c-0.2-0.3-0.4-0.5-0.6-0.8c-1.5-2.3-2-5.1-1.4-7.8L55,213.3c0.7-3,2.7-5.5,5.5-6.9l53.4-25.5 C115.2,180.3,116.5,180,117.9,179.9z" class="st1"/><path id="path3059" d="M118.4,199.4c-1.8,0-3.2,1.6-3.2,3.6c0,0,0,0.1,0,0.1c0,0.3,0,0.6,0,0.8c0,1.1,0.3,2,0.4,3 c0.3,2.2,0.5,4.1,0.4,5.8c-0.1,0.6-0.6,1.2-1,1.7l-0.1,1.4c-1.9,0.2-3.9,0.5-5.8,0.9c-8.3,1.9-15.5,6.2-20.9,11.9 c-0.4-0.2-1-0.7-1.2-0.8c-0.6,0.1-1.1,0.3-1.9-0.2c-1.4-1-2.7-2.3-4.3-3.9c-0.7-0.8-1.2-1.5-2.1-2.2c-0.2-0.2-0.5-0.4-0.7-0.6 c-0.7-0.5-1.5-0.8-2.2-0.8c-1,0-1.9,0.4-2.5,1.1c-1.1,1.4-0.7,3.5,0.8,4.7c0,0,0,0,0,0c0.2,0.2,0.5,0.4,0.7,0.5 c0.9,0.7,1.7,1,2.7,1.6c1.9,1.2,3.5,2.2,4.8,3.3c0.5,0.5,0.6,1.4,0.6,1.8l1,0.9c-5.5,8.3-8,18.5-6.5,28.8l-1.3,0.4 c-0.4,0.5-0.9,1.2-1.4,1.4c-1.6,0.5-3.5,0.7-5.7,0.9c-1,0.1-2,0-3.1,0.2c-0.2,0-0.6,0.1-0.9,0.2c0,0,0,0,0,0c0,0,0,0,0,0 c-1.9,0.5-3.1,2.2-2.7,3.9c0.4,1.7,2.2,2.7,4.1,2.3c0,0,0,0,0,0c0,0,0,0,0.1,0c0.3-0.1,0.6-0.1,0.8-0.2c1.1-0.3,1.9-0.7,2.9-1.1 c2.1-0.8,3.9-1.4,5.6-1.6c0.7-0.1,1.5,0.4,1.8,0.6l1.4-0.2c3.2,9.9,9.9,18,18.4,23l-0.6,1.4c0.2,0.5,0.4,1.3,0.3,1.8 c-0.6,1.6-1.7,3.3-2.9,5.2c-0.6,0.9-1.2,1.6-1.7,2.6c-0.1,0.2-0.3,0.6-0.4,0.9c-0.8,1.8-0.2,3.8,1.4,4.5c1.6,0.8,3.6,0,4.4-1.8 c0,0,0,0,0,0c0,0,0,0,0,0c0.1-0.2,0.3-0.6,0.4-0.8c0.5-1,0.6-1.9,0.9-2.9c0.8-2.1,1.3-4.4,2.5-5.7c0.3-0.4,0.8-0.5,1.4-0.7l0.7-1.3 c7.4,2.8,15.7,3.6,24,1.7c1.9-0.4,3.7-1,5.5-1.7c0.2,0.4,0.6,1.1,0.7,1.2c0.5,0.2,1.1,0.3,1.6,1c0.9,1.5,1.5,3.3,2.2,5.4 c0.3,1,0.5,1.9,0.9,2.9c0.1,0.2,0.3,0.6,0.4,0.8c0.9,1.8,2.8,2.6,4.4,1.8c1.6-0.8,2.2-2.8,1.4-4.5c-0.1-0.3-0.3-0.6-0.4-0.9 c-0.5-1-1.1-1.7-1.7-2.5c-1.2-1.9-2.2-3.5-2.8-5.1c-0.3-0.8,0-1.3,0.2-1.9c-0.1-0.1-0.4-0.9-0.5-1.3c8.8-5.2,15.4-13.6,18.4-23.2 c0.4,0.1,1.1,0.2,1.4,0.2c0.5-0.3,0.9-0.7,1.8-0.7c1.7,0.2,3.5,0.9,5.6,1.6c1,0.4,1.8,0.8,2.9,1.1c0.2,0.1,0.6,0.1,0.8,0.2 c0,0,0,0,0.1,0c0,0,0,0,0,0c1.9,0.4,3.7-0.6,4.1-2.3c0.4-1.7-0.8-3.4-2.7-3.9c-0.3-0.1-0.7-0.2-0.9-0.2c-1.1-0.2-2-0.2-3.1-0.2 c-2.2-0.2-4.1-0.4-5.7-0.9c-0.7-0.3-1.1-1.1-1.4-1.4l-1.3-0.4c0.7-4.8,0.5-9.9-0.7-14.9c-1.2-5.1-3.2-9.7-6-13.9 c0.3-0.3,1-0.9,1.1-1c0.1-0.6,0-1.2,0.6-1.8c1.3-1.2,2.8-2.2,4.8-3.3c0.9-0.5,1.7-0.9,2.7-1.6c0.2-0.2,0.5-0.4,0.7-0.6 c1.5-1.2,1.9-3.3,0.8-4.7s-3.2-1.5-4.8-0.3c-0.2,0.2-0.5,0.4-0.7,0.6c-0.9,0.7-1.4,1.5-2.1,2.2c-1.6,1.6-2.9,2.9-4.3,3.9 c-0.6,0.4-1.5,0.2-1.9,0.2l-1.2,0.9c-6.9-7.3-16.4-11.9-26.5-12.8c0-0.4-0.1-1.2-0.1-1.4c-0.4-0.4-0.9-0.7-1-1.6 c-0.1-1.7,0.1-3.6,0.4-5.8c0.1-1,0.4-1.9,0.4-3c0-0.3,0-0.6,0-0.9C121.6,201,120.2,199.4,118.4,199.4L118.4,199.4z M114.4,224.2 l-0.9,16.8l-0.1,0c-0.1,1.5-1.3,2.7-2.8,2.7c-0.6,0-1.2-0.2-1.7-0.5l0,0l-13.8-9.8c4.2-4.2,9.6-7.2,15.9-8.6 C112.2,224.5,113.3,224.3,114.4,224.2z M122.4,224.2c7.3,0.9,14,4.2,19.2,9.2l-13.7,9.7l0,0c-1.2,0.9-2.9,0.7-3.9-0.5 c-0.4-0.5-0.6-1.1-0.6-1.6l0,0L122.4,224.2z M90.2,239.7l12.6,11.2l0,0.1c1.1,1,1.3,2.7,0.4,3.9c-0.4,0.5-0.9,0.8-1.5,1l0,0.1 l-16.1,4.6C84.7,253.1,86.4,245.8,90.2,239.7L90.2,239.7z M146.6,239.7c1.9,3,3.3,6.4,4.1,10.1c0.8,3.6,1,7.2,0.7,10.7l-16.2-4.7 l0-0.1c-1.4-0.4-2.3-1.9-2-3.3c0.1-0.6,0.5-1.1,0.9-1.5l0,0L146.6,239.7L146.6,239.7z M115.9,251.8h5.1l3.2,4l-1.1,5l-4.6,2.2 l-4.6-2.2l-1.1-5L115.9,251.8z M132.4,265.5c0.2,0,0.4,0,0.6,0l0,0l16.7,2.8c-2.4,6.8-7.1,12.8-13.3,16.7l-6.5-15.6l0,0 c-0.6-1.4,0-3,1.4-3.7C131.6,265.6,132,265.5,132.4,265.5L132.4,265.5z M104.4,265.6c1.3,0,2.4,0.9,2.7,2.2 c0.1,0.6,0.1,1.2-0.2,1.7l0,0.1l-6.4,15.5c-6-3.8-10.7-9.6-13.3-16.6l16.5-2.8l0,0C104,265.6,104.2,265.6,104.4,265.6L104.4,265.6z M118.3,272.3c0.4,0,0.9,0.1,1.3,0.3c0.6,0.3,1,0.7,1.3,1.2h0.1l8.1,14.7c-1.1,0.4-2.1,0.7-3.3,0.9c-6.2,1.4-12.4,1-18-0.9 l8.1-14.7h0C116.4,272.9,117.4,272.4,118.3,272.3z" class="st1"/></g></svg>