<svg width="11" height="10" viewBox="0 0 11 10" fill="none" xmlns="http://www.w3.org/2000/svg">
<path d="M5.97553 1.08156L6.48381 2.6459C6.68462 3.26393 7.26056 3.68237 7.9104 3.68237H9.55524C10.0396 3.68237 10.241 4.30218 9.84913 4.58688L8.51843 5.5537C7.9927 5.93566 7.77271 6.61271 7.97352 7.23075L8.4818 8.79508C8.63148 9.25574 8.10424 9.6388 7.71238 9.3541L6.38168 8.38729C5.85595 8.00532 5.14405 8.00532 4.61832 8.38729L3.28762 9.3541C2.89576 9.6388 2.36852 9.25574 2.5182 8.79508L3.02648 7.23075C3.22729 6.61271 3.0073 5.93566 2.48157 5.5537L1.15087 4.58688C0.75901 4.30218 0.960399 3.68237 1.44476 3.68237H3.0896C3.73944 3.68237 4.31538 3.26393 4.51619 2.6459L5.02447 1.08156C5.17415 0.620904 5.82585 0.620905 5.97553 1.08156Z" stroke="black"/>
</svg>
