<?xml version="1.0" encoding="utf-8"?>
<!-- Generator: Adobe Illustrator 25.2.3, SVG Export Plug-In . SVG Version: 6.00 Build 0)  -->
<svg version="1.1" id="Layer_1" xmlns="http://www.w3.org/2000/svg" xmlns:xlink="http://www.w3.org/1999/xlink" x="0px" y="0px"
	 viewBox="0 0 200 200" style="enable-background:new 0 0 200 200;" xml:space="preserve">
<style type="text/css">
	.st0{fill-rule:evenodd;clip-rule:evenodd;fill:#090000;}
	.st1{fill:#090000;}
</style>
<g>
	<path class="st0" d="M100,2.5C44.8,2.5,0,47.2,0,102.5c0,44.2,28.7,81.7,68.4,94.9c5,0.9,6.8-2.2,6.8-4.8c0-2.4-0.1-10.3-0.1-18.6
		c-27.8,6-33.7-11.8-33.7-11.8c-4.5-11.6-11.1-14.6-11.1-14.6c-9.1-6.2,0.7-6.1,0.7-6.1c10,0.7,15.3,10.3,15.3,10.3
		c8.9,15.3,23.4,10.9,29.1,8.3c0.9-6.5,3.5-10.9,6.3-13.4c-22.2-2.5-45.6-11.1-45.6-49.4c0-10.9,3.9-19.8,10.3-26.8
		c-1-2.5-4.5-12.7,1-26.5c0,0,8.4-2.7,27.5,10.3c8-2.2,16.5-3.3,25-3.4c8.5,0,17.1,1.1,25.1,3.4c19.1-12.9,27.5-10.3,27.5-10.3
		c5.4,13.8,2,23.9,1,26.5c6.4,7,10.3,15.9,10.3,26.8c0,38.4-23.4,46.9-45.7,49.3c3.6,3.1,6.8,9.2,6.8,18.5c0,13.4-0.1,24.1-0.1,27.4
		c0,2.7,1.8,5.8,6.9,4.8c39.7-13.2,68.3-50.7,68.3-94.9C200,47.2,155.2,2.5,100,2.5z"/>
	<path class="st1" d="M37.9,146c-0.2,0.5-1,0.6-1.7,0.3c-0.7-0.3-1.1-1-0.9-1.5c0.2-0.5,1-0.7,1.7-0.3
		C37.7,144.9,38.1,145.5,37.9,146L37.9,146z M36.6,145.1"/>
	<path class="st1" d="M41.9,150.6c-0.5,0.4-1.4,0.2-2-0.5c-0.7-0.7-0.8-1.6-0.3-2.1c0.5-0.4,1.4-0.2,2.1,0.5
		C42.3,149.2,42.4,150.1,41.9,150.6L41.9,150.6z M41,149.5"/>
	<path class="st1" d="M45.9,156.3c-0.6,0.4-1.6,0-2.2-0.9c-0.6-0.9-0.6-2,0-2.4c0.6-0.4,1.6,0,2.2,0.8
		C46.5,154.8,46.5,155.9,45.9,156.3L45.9,156.3z M45.9,156.3"/>
	<path class="st1" d="M51.3,161.9c-0.5,0.6-1.7,0.4-2.6-0.4c-0.9-0.8-1.1-2-0.6-2.6c0.6-0.6,1.7-0.4,2.6,0.4
		C51.6,160.1,51.9,161.3,51.3,161.9L51.3,161.9z M51.3,161.9"/>
	<path class="st1" d="M58.7,165.1c-0.2,0.8-1.4,1.1-2.5,0.8c-1.1-0.3-1.9-1.3-1.6-2.1c0.2-0.8,1.4-1.2,2.5-0.8
		C58.2,163.4,59,164.3,58.7,165.1L58.7,165.1z M58.7,165.1"/>
	<path class="st1" d="M66.9,165.7c0,0.8-0.9,1.5-2.1,1.5c-1.2,0-2.2-0.6-2.2-1.5c0-0.8,0.9-1.5,2.1-1.5
		C65.9,164.2,66.9,164.9,66.9,165.7L66.9,165.7z M66.9,165.7"/>
	<path class="st1" d="M74.5,164.4c0.1,0.8-0.7,1.6-1.9,1.9c-1.2,0.2-2.2-0.3-2.4-1.1c-0.1-0.8,0.7-1.7,1.9-1.9
		C73.3,163.1,74.4,163.6,74.5,164.4L74.5,164.4z M74.5,164.4"/>
</g>
</svg>
