<svg width="300" height="240" viewBox="0 0 300 240" fill="none" xmlns="http://www.w3.org/2000/svg">
<path d="M151.867 145.056H114.756V76.2274C114.756 74.9941 113.762 74 112.529 74H93.2919C92.0585 74 91.0645 74.9941 91.0645 76.2274V163.723C91.0645 164.956 92.0585 165.95 93.2919 165.95H141.651C142.81 165.95 143.86 165.306 144.412 164.293L153.34 147.505C153.929 146.4 153.119 145.056 151.867 145.056Z" fill="black"/>
<path d="M215.064 74H194.3C193.14 74 192.091 74.6443 191.538 75.6568L175.339 106.104L159.176 75.6568C158.643 74.6443 157.575 74 156.415 74H135.65C134.38 74 133.589 75.3438 134.178 76.4483L163.521 131.655V163.723C163.521 164.956 164.515 165.95 165.748 165.95H184.967C186.2 165.95 187.194 164.956 187.194 163.723V131.655L216.555 76.4483C217.145 75.3438 216.335 74 215.083 74H215.064Z" fill="black"/>
</svg>
