<?xml version="1.0" encoding="utf-8"?>
<!-- Generator: Adobe Illustrator 28.0.0, SVG Export Plug-In . SVG Version: 6.00 Build 0)  -->
<svg version="1.1" id="Layer_1" xmlns="http://www.w3.org/2000/svg" xmlns:xlink="http://www.w3.org/1999/xlink" x="0px" y="0px"
	 viewBox="0 0 122.8 122.8" style="enable-background:new 0 0 122.8 122.8;" xml:space="preserve">
<style type="text/css">
	.st0{fill:#FFFFFF;}
</style>
<g>
	<g>
		<path class="st0" d="M25.8,77.6c0,7.1-5.8,12.9-12.9,12.9S0,84.7,0,77.6c0-7.1,5.8-12.9,12.9-12.9h12.9V77.6z"/>
		<path class="st0" d="M32.3,77.6c0-7.1,5.8-12.9,12.9-12.9s12.9,5.8,12.9,12.9v32.3c0,7.1-5.8,12.9-12.9,12.9s-12.9-5.8-12.9-12.9
			C32.3,109.9,32.3,77.6,32.3,77.6z"/>
	</g>
	<g>
		<path class="st0" d="M45.2,25.8c-7.1,0-12.9-5.8-12.9-12.9S38.1,0,45.2,0s12.9,5.8,12.9,12.9v12.9H45.2z"/>
		<path class="st0" d="M45.2,32.3c7.1,0,12.9,5.8,12.9,12.9s-5.8,12.9-12.9,12.9H12.9C5.8,58.1,0,52.3,0,45.2s5.8-12.9,12.9-12.9
			C12.9,32.3,45.2,32.3,45.2,32.3z"/>
	</g>
	<g>
		<path class="st0" d="M97,45.2c0-7.1,5.8-12.9,12.9-12.9c7.1,0,12.9,5.8,12.9,12.9s-5.8,12.9-12.9,12.9H97V45.2z"/>
		<path class="st0" d="M90.5,45.2c0,7.1-5.8,12.9-12.9,12.9c-7.1,0-12.9-5.8-12.9-12.9V12.9C64.7,5.8,70.5,0,77.6,0
			c7.1,0,12.9,5.8,12.9,12.9V45.2z"/>
	</g>
	<g>
		<path class="st0" d="M77.6,97c7.1,0,12.9,5.8,12.9,12.9c0,7.1-5.8,12.9-12.9,12.9c-7.1,0-12.9-5.8-12.9-12.9V97H77.6z"/>
		<path class="st0" d="M77.6,90.5c-7.1,0-12.9-5.8-12.9-12.9c0-7.1,5.8-12.9,12.9-12.9h32.3c7.1,0,12.9,5.8,12.9,12.9
			c0,7.1-5.8,12.9-12.9,12.9H77.6z"/>
	</g>
</g>
</svg>
