<svg xmlns="http://www.w3.org/2000/svg" xmlns:xlink="http://www.w3.org/1999/xlink" id="レイヤー_1" x="0" y="0" version="1.1" viewBox="0 0 251 154" xml:space="preserve" style="enable-background:new 0 0 251 154"><style type="text/css">.st0{fill:#679e63}.st1,.st2{fill-rule:evenodd;clip-rule:evenodd;fill:#fff}.st2{fill:#679e63}.st3{clip-path:url(#XMLID_3_)}.st4{fill:none}.st5{fill:url(#SVGID_1_)}.st6{fill:url(#SVGID_2_)}.st7{fill:url(#SVGID_3_)}.st8{fill:url(#SVGID_4_)}.st9{fill:url(#SVGID_5_)}.st10{fill:url(#SVGID_6_)}</style><g><g><path d="M124.3,128.6c-0.6,0-1.1-0.1-1.6-0.4l-5.1-3c-0.8-0.4-0.4-0.6-0.1-0.7c1-0.4,1.2-0.4,2.3-1 c0.1-0.1,0.3,0,0.4,0l3.9,2.3c0.1,0.1,0.3,0.1,0.5,0l15.2-8.8c0.1-0.1,0.2-0.2,0.2-0.4V99c0-0.2-0.1-0.3-0.2-0.4l-15.2-8.8 c-0.1-0.1-0.3-0.1-0.5,0l-15.2,8.8c-0.1,0.1-0.2,0.2-0.2,0.4v17.6c0,0.2,0.1,0.3,0.2,0.4l4.2,2.4c2.3,1.1,3.6-0.2,3.6-1.5v-17.3 c0-0.2,0.2-0.4,0.4-0.4h1.9c0.2,0,0.4,0.2,0.4,0.4v17.3c0,3-1.6,4.7-4.5,4.7c-0.9,0-1.6,0-3.5-1l-4-2.3c-1-0.6-1.6-1.6-1.6-2.8V99 c0-1.1,0.6-2.2,1.6-2.8l15.2-8.8c1-0.5,2.2-0.5,3.2,0l15.2,8.8c1,0.6,1.6,1.6,1.6,2.8v17.6c0,1.1-0.6,2.2-1.6,2.8l-15.2,8.8 C125.4,128.4,124.9,128.6,124.3,128.6z" class="st0"/><path d="M129,116.5c-6.7,0-8-3.1-8-5.6c0-0.2,0.2-0.4,0.4-0.4h2c0.2,0,0.4,0.2,0.4,0.4c0.3,2,1.2,3,5.2,3 c3.2,0,4.6-0.7,4.6-2.4c0-1-0.4-1.7-5.4-2.2c-4.2-0.4-6.7-1.3-6.7-4.7c0-3.1,2.6-4.9,6.9-4.9c4.9,0,7.3,1.7,7.6,5.3 c0,0.1,0,0.2-0.1,0.3c-0.1,0.1-0.2,0.1-0.3,0.1h-2c-0.2,0-0.4-0.1-0.4-0.3c-0.5-2.1-1.6-2.8-4.7-2.8c-3.5,0-3.9,1.2-3.9,2.1 c0,1.1,0.5,1.4,5.2,2.1c4.7,0.6,6.9,1.5,6.9,4.8C136.6,114.6,133.8,116.5,129,116.5z" class="st0"/></g><g><path d="M150.9,98.1c0,1.6-1.3,2.9-2.9,2.9c-1.6,0-2.9-1.3-2.9-2.9c0-1.7,1.4-2.9,2.9-2.9 C149.6,95.1,150.9,96.4,150.9,98.1z M145.5,98.1c0,1.4,1.1,2.5,2.4,2.5c1.4,0,2.5-1.1,2.5-2.5c0-1.4-1.1-2.4-2.5-2.4 C146.7,95.6,145.5,96.7,145.5,98.1z M146.9,96.4h1.1c0.4,0,1.1,0,1.1,0.9c0,0.6-0.4,0.7-0.6,0.8c0.5,0,0.5,0.3,0.5,0.7 c0,0.3,0.1,0.7,0.2,0.9h-0.7c0-0.2-0.1-1-0.1-1c0-0.2-0.1-0.3-0.3-0.3h-0.6v1.3h-0.6V96.4z M147.5,97.9h0.5c0.4,0,0.5-0.3,0.5-0.5 c0-0.5-0.3-0.5-0.5-0.5h-0.5V97.9z" class="st0"/></g><path d="M77.2,59.9c0-0.7-0.4-1.3-1-1.7l-16.1-9.3c-0.3-0.2-0.6-0.2-0.9-0.3c0,0-0.1,0-0.2,0c-0.3,0-0.6,0.1-0.9,0.3 L42,58.2c-0.6,0.3-1,1-1,1.7l0,25c0,0.3,0.2,0.7,0.5,0.8c0.3,0.2,0.7,0.2,1,0l9.6-5.5c0.6-0.4,1-1,1-1.7V66.9c0-0.7,0.4-1.3,1-1.7 l4.1-2.4c0.3-0.2,0.6-0.3,1-0.3c0.3,0,0.7,0.1,1,0.3l4.1,2.4c0.6,0.3,1,1,1,1.7v11.7c0,0.7,0.4,1.3,1,1.7l9.6,5.5 c0.3,0.2,0.7,0.2,1,0c0.3-0.2,0.5-0.5,0.5-0.8L77.2,59.9z" class="st1"/><path d="M154.8,25.6c-0.3-0.2-0.7-0.2-1,0c-0.3,0.2-0.5,0.5-0.5,0.8v24.7c0,0.2-0.1,0.5-0.3,0.6 c-0.2,0.1-0.5,0.1-0.7,0l-4-2.3c-0.6-0.3-1.3-0.3-1.9,0l-16.1,9.3c-0.6,0.3-1,1-1,1.7V79c0,0.7,0.4,1.3,1,1.7l16.1,9.3 c0.6,0.3,1.3,0.3,1.9,0l16.1-9.3c0.6-0.3,1-1,1-1.7V32.6c0-0.7-0.4-1.4-1-1.7L154.8,25.6z M153.3,72.9c0,0.2-0.1,0.3-0.2,0.4 l-5.5,3.2c-0.2,0.1-0.3,0.1-0.5,0l-5.5-3.2c-0.2-0.1-0.2-0.2-0.2-0.4v-6.4c0-0.2,0.1-0.3,0.2-0.4l5.5-3.2c0.2-0.1,0.3-0.1,0.5,0 l5.5,3.2c0.2,0.1,0.2,0.2,0.2,0.4V72.9z" class="st1"/><g><path d="M208.5,66.4c0.6-0.3,1-1,1-1.7v-4.5c0-0.7-0.4-1.3-1-1.7l-16-9.3c-0.6-0.4-1.3-0.4-2,0l-16.1,9.3 c-0.6,0.3-1,1-1,1.7v18.6c0,0.7,0.4,1.3,1,1.7l16,9.1c0.6,0.3,1.3,0.3,1.9,0l9.7-5.4c0.3-0.2,0.5-0.5,0.5-0.8 c0-0.4-0.2-0.7-0.5-0.9l-16.2-9.3c-0.3-0.2-0.5-0.5-0.5-0.8v-5.8c0-0.3,0.2-0.7,0.5-0.8l5.1-2.9c0.3-0.2,0.7-0.2,1,0l5.1,2.9 c0.3,0.2,0.5,0.5,0.5,0.8v4.6c0,0.3,0.2,0.7,0.5,0.8c0.3,0.2,0.7,0.2,1,0L208.5,66.4z" class="st1"/><path d="M191.3,65.5c0.1-0.1,0.3-0.1,0.4,0l3.1,1.8c0.1,0.1,0.2,0.2,0.2,0.3v3.6c0,0.1-0.1,0.3-0.2,0.3l-3.1,1.8 c-0.1,0.1-0.3,0.1-0.4,0l-3.1-1.8c-0.1-0.1-0.2-0.2-0.2-0.3v-3.6c0-0.1,0.1-0.3,0.2-0.3L191.3,65.5z" class="st2"/></g><g><defs><path id="XMLID_143_" d="M104.2,49.3c-0.6-0.3-1.3-0.3-1.9,0l-16,9.3c-0.6,0.3-1,1-1,1.7v18.5c0,0.7,0.4,1.3,1,1.7l16,9.3 c0.6,0.3,1.3,0.3,1.9,0l16-9.3c0.6-0.3,1-1,1-1.7V60.2c0-0.7-0.4-1.3-1-1.7L104.2,49.3z"/></defs><linearGradient id="XMLID_2_" x1="109.743" x2="95.252" y1="56.151" y2="85.712" gradientUnits="userSpaceOnUse"><stop offset="0" style="stop-color:#3f873f"/><stop offset=".33" style="stop-color:#3f8b3d"/><stop offset=".637" style="stop-color:#3e9638"/><stop offset=".934" style="stop-color:#3da92e"/><stop offset="1" style="stop-color:#3dae2b"/></linearGradient><use xlink:href="#XMLID_143_" style="overflow:visible;fill-rule:evenodd;clip-rule:evenodd;fill:url(#XMLID_2_)"/><clipPath id="XMLID_3_"><use xlink:href="#XMLID_143_" style="overflow:visible"/></clipPath><g class="st3"><path d="M102.2,49.3l-16.1,9.3c-0.6,0.3-1,1-1,1.7v18.5c0,0.5,0.2,0.9,0.5,1.2l18.1-30.9 C103.2,48.9,102.7,49,102.2,49.3z" class="st4"/><path d="M103.8,89.8c0.2,0,0.3-0.1,0.5-0.2l16.1-9.3c0.6-0.3,1-1,1-1.7V60.2c0-0.5-0.2-1-0.6-1.3L103.8,89.8z" class="st4"/><linearGradient id="SVGID_1_" x1="100.78" x2="141.44" y1="71.622" y2="41.581" gradientUnits="userSpaceOnUse"><stop offset=".138" style="stop-color:#3f873f"/><stop offset=".402" style="stop-color:#52a044"/><stop offset=".713" style="stop-color:#64b749"/><stop offset=".908" style="stop-color:#6abf4b"/></linearGradient><path d="M120.3,58.5l-16.1-9.3c-0.2-0.1-0.3-0.2-0.5-0.2L85.6,80c0.2,0.2,0.3,0.3,0.5,0.4l16.1,9.3 c0.5,0.3,1,0.3,1.5,0.2l16.9-31C120.6,58.7,120.4,58.6,120.3,58.5z" class="st5"/></g><g class="st3"><path d="M121.3,78.7V60.2c0-0.7-0.4-1.3-1-1.7l-16.1-9.3c-0.2-0.1-0.4-0.2-0.6-0.2l17.6,30.1 C121.3,79,121.3,78.9,121.3,78.7z" class="st4"/><path d="M86.1,58.5c-0.6,0.3-1,1-1,1.7v18.5c0,0.7,0.4,1.3,1,1.7l16.1,9.3c0.4,0.2,0.8,0.3,1.2,0.2L86.1,58.5 L86.1,58.5z" class="st4"/><linearGradient id="SVGID_2_" x1="84.679" x2="121.764" y1="45.919" y2="45.919" gradientUnits="userSpaceOnUse"><stop offset=".092" style="stop-color:#6abf4b"/><stop offset=".287" style="stop-color:#64b749"/><stop offset=".598" style="stop-color:#52a044"/><stop offset=".862" style="stop-color:#3f873f"/></linearGradient><polygon points="101.7 45.9 101.5 46 101.8 46" class="st6"/><linearGradient id="SVGID_3_" x1="84.679" x2="121.764" y1="69.451" y2="69.451" gradientUnits="userSpaceOnUse"><stop offset=".092" style="stop-color:#6abf4b"/><stop offset=".287" style="stop-color:#64b749"/><stop offset=".598" style="stop-color:#52a044"/><stop offset=".862" style="stop-color:#3f873f"/></linearGradient><path d="M120.3,80.4c0.5-0.3,0.8-0.7,0.9-1.2L103.6,49c-0.5-0.1-0.9,0-1.4,0.2l-16,9.2l17.3,31.4 c0.2,0,0.5-0.1,0.7-0.2L120.3,80.4z" class="st7"/><linearGradient id="SVGID_4_" x1="84.679" x2="121.764" y1="80.038" y2="80.038" gradientUnits="userSpaceOnUse"><stop offset=".092" style="stop-color:#6abf4b"/><stop offset=".287" style="stop-color:#64b749"/><stop offset=".598" style="stop-color:#52a044"/><stop offset=".862" style="stop-color:#3f873f"/></linearGradient><polygon points="121.8 80.1 121.7 79.9 121.7 80.2" class="st8"/><linearGradient id="SVGID_5_" x1="84.679" x2="121.764" y1="84.823" y2="84.823" gradientUnits="userSpaceOnUse"><stop offset=".092" style="stop-color:#6abf4b"/><stop offset=".287" style="stop-color:#64b749"/><stop offset=".598" style="stop-color:#52a044"/><stop offset=".862" style="stop-color:#3f873f"/></linearGradient><path d="M120.3,80.4l-16.1,9.3c-0.2,0.1-0.5,0.2-0.7,0.2l0.3,0.6l17.8-10.3v-0.2l-0.4-0.8 C121.1,79.7,120.7,80.1,120.3,80.4z" class="st9"/><linearGradient id="SVGID_6_" x1="127.166" x2="104.295" y1="55.275" y2="101.933" gradientUnits="userSpaceOnUse"><stop offset="0" style="stop-color:#3f873f"/><stop offset=".33" style="stop-color:#3f8b3d"/><stop offset=".637" style="stop-color:#3e9638"/><stop offset=".934" style="stop-color:#3da92e"/><stop offset="1" style="stop-color:#3dae2b"/></linearGradient><path d="M120.3,80.4l-16.1,9.3c-0.2,0.1-0.5,0.2-0.7,0.2l0.3,0.6l17.8-10.3v-0.2l-0.4-0.8 C121.1,79.7,120.7,80.1,120.3,80.4z" class="st10"/></g></g></g></svg>