<svg xmlns="http://www.w3.org/2000/svg" xmlns:xlink="http://www.w3.org/1999/xlink" id="レイヤー_1" data-name="レイヤー 1" viewBox="0 0 251 154"><defs><style>.cls-1,.cls-6{fill:url(#linear-gradient)}.cls-1{clip-rule:evenodd}.cls-2,.cls-8{fill:none}.cls-2{opacity:.8;isolation:isolate}.cls-3,.cls-5{fill:#679e63}.cls-4{fill:#333}.cls-4,.cls-5,.cls-6{fill-rule:evenodd}.cls-7{clip-path:url(#clip-path)}.cls-9{fill:url(#linear-gradient-3)}.cls-10{fill:url(#linear-gradient-4)}.cls-11{fill:url(#linear-gradient-5)}.cls-12{fill:url(#linear-gradient-6)}.cls-13{fill:url(#linear-gradient-7)}.cls-14{fill:url(#linear-gradient-8)}</style><linearGradient id="linear-gradient" x1="110.02" x2="95.57" y1="56.21" y2="85.69" gradientUnits="userSpaceOnUse"><stop offset="0" stop-color="#3f873f"/><stop offset=".33" stop-color="#3f8b3d"/><stop offset=".64" stop-color="#3e9637"/><stop offset=".93" stop-color="#3da92e"/><stop offset="1" stop-color="#3dae2b"/></linearGradient><clipPath id="clip-path"><path d="M104.48,49.34a1.91,1.91,0,0,0-1.93,0l-16,9.23a1.93,1.93,0,0,0-1,1.67V78.71a2,2,0,0,0,1,1.68l16,9.23a1.91,1.91,0,0,0,1.93,0l16-9.23a2,2,0,0,0,1-1.68V60.24a1.92,1.92,0,0,0-1-1.67Z" class="cls-1"/></clipPath><linearGradient id="linear-gradient-3" x1="101.08" x2="141.62" y1="71.64" y2="41.68" gradientUnits="userSpaceOnUse"><stop offset=".14" stop-color="#3f873f"/><stop offset=".4" stop-color="#529f44"/><stop offset=".71" stop-color="#63b649"/><stop offset=".91" stop-color="#6abf4b"/></linearGradient><linearGradient id="linear-gradient-4" x1="85.02" x2="122" y1="46.01" y2="46.01" gradientUnits="userSpaceOnUse"><stop offset=".09" stop-color="#6abf4b"/><stop offset=".29" stop-color="#63b649"/><stop offset=".6" stop-color="#529f44"/><stop offset=".86" stop-color="#3f873f"/></linearGradient><linearGradient id="linear-gradient-5" x1="85.02" x2="122" y1="69.47" y2="69.47" xlink:href="#linear-gradient-4"/><linearGradient id="linear-gradient-6" x1="85.02" x2="122" y1="80.03" y2="80.03" xlink:href="#linear-gradient-4"/><linearGradient id="linear-gradient-7" x1="85.02" x2="122" y1="84.8" y2="84.8" xlink:href="#linear-gradient-4"/><linearGradient id="linear-gradient-8" x1="127.39" x2="104.58" y1="55.34" y2="101.86" xlink:href="#linear-gradient"/></defs><rect width="251" height="154" class="cls-2"/><path d="M124.54,128.42A3.15,3.15,0,0,1,123,128l-5.07-3c-.75-.42-.38-.57-.13-.66a10.1,10.1,0,0,0,2.28-1,.4.4,0,0,1,.38,0l3.89,2.31a.49.49,0,0,0,.47,0l15.17-8.75a.49.49,0,0,0,.23-.41V99a.46.46,0,0,0-.24-.41l-15.16-8.75a.47.47,0,0,0-.46,0l-15.16,8.75a.47.47,0,0,0-.24.41v17.51a.46.46,0,0,0,.24.4l4.15,2.4c2.26,1.13,3.64-.2,3.64-1.53V100.47a.43.43,0,0,1,.44-.44h1.92a.44.44,0,0,1,.44.44v17.28c0,3-1.64,4.73-4.49,4.73a6.46,6.46,0,0,1-3.49-1l-4-2.29a3.2,3.2,0,0,1-1.59-2.76V99a3.21,3.21,0,0,1,1.59-2.76L123,87.45a3.27,3.27,0,0,1,3.18,0l15.17,8.76A3.21,3.21,0,0,1,142.89,99v17.51a3.21,3.21,0,0,1-1.59,2.76L126.13,128A3.15,3.15,0,0,1,124.54,128.42Z" class="cls-3"/><path d="M129.22,116.37c-6.64,0-8-3.05-8-5.6a.44.44,0,0,1,.44-.44h2a.45.45,0,0,1,.44.37c.29,2,1.18,3,5.19,3,3.2,0,4.56-.72,4.56-2.41,0-1-.39-1.71-5.35-2.19-4.15-.41-6.72-1.33-6.72-4.65,0-3.06,2.58-4.88,6.9-4.88,4.86,0,7.27,1.68,7.57,5.3a.45.45,0,0,1-.12.34.45.45,0,0,1-.32.14h-2a.44.44,0,0,1-.42-.35c-.47-2.1-1.62-2.77-4.74-2.77-3.49,0-3.89,1.22-3.89,2.13,0,1.1.48,1.42,5.19,2s6.87,1.48,6.87,4.76S134,116.37,129.22,116.37Z" class="cls-3"/><path d="M151.09,98a2.93,2.93,0,1,1-2.92-2.92A2.93,2.93,0,0,1,151.09,98Zm-5.37,0a2.44,2.44,0,0,0,2.44,2.46,2.45,2.45,0,1,0,0-4.9A2.44,2.44,0,0,0,145.72,98Zm1.35-1.63h1.13c.38,0,1.14,0,1.14.87a.74.74,0,0,1-.62.8c.45,0,.48.33.54.75a3.63,3.63,0,0,0,.17.86h-.69c0-.15-.13-1-.13-1,0-.19-.1-.28-.34-.28h-.57v1.31h-.63Zm.62,1.44h.51a.44.44,0,0,0,.49-.46c0-.45-.31-.45-.48-.45h-.52Z" class="cls-3"/><path d="M77.57,60a1.93,1.93,0,0,0-1-1.69L60.52,49a2,2,0,0,0-.88-.26h-.17a2,2,0,0,0-.89.26L42.51,58.26a2,2,0,0,0-1,1.69l0,24.92a1,1,0,0,0,.48.84,1,1,0,0,0,1,0l9.55-5.48a2,2,0,0,0,1-1.68V66.91a1.9,1.9,0,0,1,1-1.68l4.06-2.35a2,2,0,0,1,1-.26,1.92,1.92,0,0,1,1,.26l4.07,2.35a1.92,1.92,0,0,1,1,1.68V78.55a1.94,1.94,0,0,0,1,1.68l9.55,5.48a1,1,0,0,0,1,0,1,1,0,0,0,.48-.84Z" class="cls-4"/><path d="M154.94,25.7a1,1,0,0,0-1,0,1,1,0,0,0-.48.84V51.22a.7.7,0,0,1-.33.59.69.69,0,0,1-.68,0l-4-2.32a1.92,1.92,0,0,0-1.94,0l-16.09,9.28a2,2,0,0,0-1,1.69V79a2,2,0,0,0,1,1.68L146.51,90a2,2,0,0,0,1.94,0l16.09-9.29a2,2,0,0,0,1-1.68V32.74a1.93,1.93,0,0,0-1-1.7Zm-1.49,47.22a.48.48,0,0,1-.25.42l-5.52,3.19a.51.51,0,0,1-.48,0l-5.53-3.19a.47.47,0,0,1-.24-.42V66.55a.47.47,0,0,1,.24-.42l5.53-3.19a.46.46,0,0,1,.48,0l5.52,3.19a.48.48,0,0,1,.25.42Z" class="cls-4"/><path d="M208.5,66.38a2,2,0,0,0,1-1.68V60.2a2,2,0,0,0-1-1.68l-16-9.28a1.94,1.94,0,0,0-2,0l-16.08,9.28a2,2,0,0,0-1,1.68V78.77a2,2,0,0,0,1,1.69l16,9.1a1.94,1.94,0,0,0,1.91,0l9.66-5.37a1,1,0,0,0,0-1.69l-16.18-9.29a1,1,0,0,1-.49-.84V66.56a1,1,0,0,1,.49-.84l5-2.9a.94.94,0,0,1,1,0l5,2.9a1,1,0,0,1,.49.84v4.58a1,1,0,0,0,.49.84,1,1,0,0,0,1,0Z" class="cls-4"/><path d="M191.31,65.51a.35.35,0,0,1,.37,0l3.09,1.78a.38.38,0,0,1,.18.32v3.57a.38.38,0,0,1-.18.32l-3.09,1.78a.35.35,0,0,1-.37,0l-3.09-1.78a.38.38,0,0,1-.18-.32V67.61a.38.38,0,0,1,.18-.32Z" class="cls-5"/><path d="M104.48,49.34a1.91,1.91,0,0,0-1.93,0l-16,9.23a1.93,1.93,0,0,0-1,1.67V78.71a2,2,0,0,0,1,1.68l16,9.23a1.91,1.91,0,0,0,1.93,0l16-9.23a2,2,0,0,0,1-1.68V60.24a1.92,1.92,0,0,0-1-1.67Z" class="cls-6"/><g class="cls-7"><path d="M102.51,49.34l-16,9.23a2,2,0,0,0-1,1.67V78.71a1.88,1.88,0,0,0,.5,1.23l18-30.8A1.94,1.94,0,0,0,102.51,49.34Z" class="cls-8"/><path d="M104.05,89.81a1.49,1.49,0,0,0,.45-.19l16-9.23a2,2,0,0,0,1-1.68V60.24a1.89,1.89,0,0,0-.59-1.34Z" class="cls-8"/><path d="M120.5,58.57l-16-9.23a1.54,1.54,0,0,0-.5-.2L86,79.94a2.31,2.31,0,0,0,.54.45l16.07,9.23a1.9,1.9,0,0,0,1.49.19L120.93,58.9A2,2,0,0,0,120.5,58.57Z" class="cls-9"/><path d="M121.52,78.71V60.24a2,2,0,0,0-1-1.67l-16-9.23a1.75,1.75,0,0,0-.59-.22l17.59,30A2.22,2.22,0,0,0,121.52,78.71Z" class="cls-8"/><path d="M86.49,58.57a2,2,0,0,0-1,1.67V78.71a2,2,0,0,0,1,1.68l16.07,9.23a1.91,1.91,0,0,0,1.23.24L86.58,58.51Z" class="cls-8"/><polygon points="102.02 45.94 101.8 46.07 102.09 46.07 102.02 45.94" class="cls-10"/><path d="M120.51,80.39a2,2,0,0,0,.95-1.23l-17.59-30a2,2,0,0,0-1.36.22L86.58,58.51l17.21,31.35a1.81,1.81,0,0,0,.71-.24Z" class="cls-11"/><polygon points="122 80.09 121.9 79.91 121.9 80.15 122 80.09" class="cls-12"/><path d="M120.51,80.39l-16,9.23a1.81,1.81,0,0,1-.71.24l.32.59,17.79-10.3v-.24l-.44-.75A2,2,0,0,1,120.51,80.39Z" class="cls-13"/><path d="M120.51,80.39l-16,9.23a1.81,1.81,0,0,1-.71.24l.32.59,17.79-10.3v-.24l-.44-.75A2,2,0,0,1,120.51,80.39Z" class="cls-14"/></g></svg>