<svg xmlns="http://www.w3.org/2000/svg" xmlns:xlink="http://www.w3.org/1999/xlink" id="Layer_1" x="0" y="0" version="1.1" viewBox="0 0 254.5 225" xml:space="preserve" style="enable-background:new 0 0 254.5 225"><style type="text/css">.st0{fill:url(#SVGID_1_)}.st1{fill:url(#SVGID_2_)}.st2{fill:#646464}.st3{fill:#2e597d}.st4{fill:#366a96}.st5{fill:#3679b0}.st6{fill:#ffc836}.st7{fill:#ffd855}</style><linearGradient id="SVGID_1_" x1="84.91" x2="150.406" y1="104.595" y2="104.595" gradientUnits="userSpaceOnUse"><stop offset="0" style="stop-color:#3679b0"/><stop offset="1" style="stop-color:#366a96"/></linearGradient><path d="M105.1,137.3c-0.3,0-0.6,0.1-0.8,0.1c-2.1,0-4.2,0-6.3,0c-2.5,0-4.9-0.7-6.9-2.3c-1.2-1-2.1-2.2-2.9-3.6	c-1-1.9-1.6-3.9-2.1-5.9c-0.7-3-1.2-6-1.2-9.1c0-2.2,0.1-4.5,0.5-6.7c0.3-1.7,0.7-3.4,1.1-5.1c0.8-3,2.4-5.6,4.9-7.5	c2.2-1.7,4.7-2.5,7.4-2.6c0.5,0,0.9,0,1.4,0c9.2,0,18.5,0,27.7,0c0.3,0,0.6,0,1,0c0.1-0.9,0.1-1.7,0-2.6c-1.2,0-2.4,0-3.6,0	c-1.2,0-2.4,0-3.5,0c-1.2,0-2.4,0-3.5,0c-1.2,0-2.3,0-3.5,0c-1.2,0-2.4,0-3.5,0c-1.2,0-2.3,0-3.6,0c0-0.3-0.1-0.5-0.1-0.7	c0-2.8,0-5.6,0-8.4c0-0.9,0.1-1.8,0.3-2.7c0.5-2.4,1.8-4.2,3.9-5.3c1.7-0.9,3.6-1.5,5.5-1.8c5.1-1,10.2-1.2,15.4-0.9	c2.5,0.1,5.1,0.4,7.6,0.9c3.1,0.7,5.8,2.2,7.8,4.7c1.4,1.8,2.2,3.8,2.2,6.1c0,6.7,0,13.5,0,20.2c0,5.4-4,9.9-9.4,10.6	c-0.5,0.1-1,0.1-1.6,0.1c-7,0-13.9,0-20.9,0c-6,0-11.3,4-13,9.8c-0.3,1.2-0.5,2.4-0.5,3.6c0,2.8,0,5.6,0,8.5	C105.1,136.7,105.1,136.9,105.1,137.3z M113.1,82.4c0,2.2,1.8,4,4,4c2.2,0,4-1.8,4-4c0-2.3-1.7-4-4-4	C114.8,78.4,113.1,80.1,113.1,82.4z" class="st0"/><linearGradient id="SVGID_2_" x1="107.868" x2="173.28" y1="127.382" y2="127.382" gradientUnits="userSpaceOnUse"><stop offset="0" style="stop-color:#ffd855"/><stop offset="1" style="stop-color:#ffc836"/></linearGradient><path d="M146,137.2c-5.3,0-10.5,0-15.8,0c-1.1,0-1.1,0-1.1,1.1c0,0.4,0,0.8,0,1.2c0,0.3,0.2,0.5,0.5,0.5	c0.2,0,0.5,0,0.7,0c6.3,0,12.6,0,18.9,0c1.4,0,1.3-0.1,1.3,1.3c0,2.2,0,4.4,0,6.6c0,2.5-0.9,4.7-2.7,6.5c-1.3,1.3-2.8,2.2-4.4,2.9	c-2.4,1.1-5,1.7-7.6,2.3c-3.1,0.6-6.2,0.8-9.3,0.5c-3.9-0.3-7.7-1.1-11.3-2.7c-1.9-0.8-3.6-2-5-3.6c-1.4-1.6-2.2-3.3-2.2-5.4	c0-7,0-14,0-21c0-2.6,1-4.8,2.7-6.6c1.6-1.8,3.5-2.9,5.8-3.3c0.7-0.1,1.5-0.2,2.2-0.2c7,0,13.9-0.1,20.9,0	c6.2,0.1,12.2-4.7,13.3-11.4c0.1-0.7,0.2-1.5,0.2-2.2c0-2.7,0-5.4,0-8.1c0-0.2,0-0.4,0-0.6c0-0.3,0.2-0.4,0.4-0.4c0.1,0,0.2,0,0.4,0	c2.5,0,5.1,0,7.6,0c2.4,0,4.4,0.9,6.1,2.5c1.2,1.1,2,2.5,2.7,4c1,2.3,1.5,4.6,2,7c0.6,3,1,6,0.9,9.1c0,2.8-0.4,5.5-1.2,8.1	c-0.8,2.5-1.6,5-2.9,7.2c-0.6,1-1.3,2-2.2,2.7c-1.5,1.2-3.2,1.9-5.1,1.9c-4.8,0-9.7,0-14.5,0C146.8,137.2,146.4,137.2,146,137.2	C146,137.2,146,137.2,146,137.2z M145.1,149.4c0.1-2.2-1.7-4.1-3.9-4.2c-2.2-0.1-4.2,1.7-4.2,4c0,2.2,1.5,4.1,4,4.2	C143.3,153.5,145,151.7,145.1,149.4z" class="st1"/><path d="M73.9,54.3c0,1.5,0,2.9,0,4.2c0,1.4,0,2.7,0,4.1c0,1.4,0,2.7,0,4.1c-0.3-0.1-0.5-0.1-0.7-0.2	c-0.8-0.3-1.5-0.5-2.3-0.8c-0.6-0.2-0.6-0.2-0.6-0.9c0-0.1,0-0.2,0-0.4c0-8.7,0-17.4,0-26.1c0-0.7,0.2-1.3,0.8-1.7	c0.5-0.3,0.9-0.7,1.4-1c2.8-1.6,5.8-2.1,9.1-1.8c2,0.2,3.6,1.2,4.8,2.8c1.1,1.5,1.8,3.1,2.1,5c0.5,2.6,0.5,5.3-0.2,7.9	c-0.5,1.6-1.3,3-2.4,4.3c-1.4,1.5-3.2,2.2-5.2,2.3c-2.1,0.1-4-0.4-5.8-1.4C74.5,54.7,74.3,54.6,73.9,54.3z M73.9,44.9	c0,2.1,0,4.1,0,6.2c0,0,0,0,0,0.1c0,0.3,0,0.6,0.4,0.8c1.3,0.8,2.6,1.4,4.1,1.6c2.1,0.3,4.3-0.4,5.4-3c0.2-0.5,0.4-1.1,0.5-1.7	c0.5-2.5,0.5-5.1,0-7.6c-0.2-1-0.5-2-1-2.9c-0.8-1.3-1.9-2-3.3-2.1c-1.9-0.2-3.7,0.3-5.4,1.2c-0.5,0.3-0.7,0.6-0.7,1.2	C73.9,40.8,73.9,42.8,73.9,44.9z" class="st2"/><path d="M96.2,33.8c0,0.5,0,0.8,0,1.1c0,4.4,0,8.9,0,13.3c0,0.5,0,0.9,0.1,1.4c0.2,1.8,1.3,3,3,3.6	c1.4,0.5,2.8,0.5,4.2,0.1c1.1-0.3,2-0.8,2.9-1.3c0.3-0.2,0.4-0.4,0.4-0.7c0-0.2,0-0.4,0-0.6c0-5.1,0-10.2,0-15.2c0-0.3,0-0.6,0-1	c1.2-0.2,2.3-0.1,3.5-0.1c0,0.3,0.1,0.5,0.1,0.7c0,6.9,0,13.9,0,20.8c0,1.4-0.2,2.8-0.5,4.2c-0.4,2-1.5,3.4-3.2,4.4	c-1.6,1-3.4,1.6-5.3,1.9c-0.7,0.1-1.4,0.2-2.1,0.3c-0.4,0-0.6-0.1-0.7-0.5c-0.1-0.6-0.3-1.1-0.4-1.8c0.3-0.1,0.5-0.1,0.7-0.2	c1-0.2,2-0.3,3-0.6c0.7-0.2,1.4-0.4,2-0.8c1.5-0.7,2.4-1.9,2.7-3.6c0.3-1.6,0.3-3.1,0.2-4.8c-0.3,0.1-0.6,0.2-0.8,0.3	c-2.2,0.9-4.5,1.3-6.9,1.2c-2.1,0-3.9-0.9-5.3-2.4c-1-1-1.4-2.3-1.4-3.7c0-2,0-4,0-6.1c0-2.7,0-5.4,0-8c0-0.7,0-0.8,0.7-1	C94.2,34.5,95.1,34.2,96.2,33.8z" class="st2"/><path d="M128.5,55.7c0-0.4,0-0.6,0-0.9c0-10.4,0-20.7,0-31.1c0-0.2,0-0.4,0-0.6c0-0.1,0.1-0.3,0.2-0.3	c1.1-0.4,2.1-0.7,3.3-1c0,0.4,0.1,0.7,0.1,1c0,4.3,0,8.6,0,12.8c0,0.3,0,0.5,0.1,0.9c0.3-0.2,0.6-0.3,0.8-0.5	c2.1-1.3,4.3-1.9,6.7-1.9c3.5,0,5.7,2.7,6.1,5.2c0.1,0.5,0.1,1,0.1,1.5c0,4.6,0,9.2,0,13.8c0,0.3,0,0.5,0,0.8	c-1.2,0.1-2.3,0.1-3.6,0c0-0.4,0-0.7,0-1c0-4,0-8,0-12c0-0.8-0.1-1.7-0.3-2.5c-0.1-0.6-0.4-1.1-0.7-1.6c-0.8-1.4-2.2-2.1-3.9-1.8	c-1.4,0.2-2.7,0.8-3.9,1.6c-1.5,0.9-1.5,0.9-1.5,2.6c0,4.5,0,9,0,13.5c0,1.5,0.2,1.3-1.3,1.3c-0.5,0-1,0-1.5,0	C129.1,55.7,128.8,55.7,128.5,55.7z" class="st2"/><path d="M149.1,45c0-3,0.7-5.5,2.5-7.7c1.7-2.2,4-3.2,6.8-3.4c6.1-0.3,9.5,4.3,10.1,8.6c0.3,2.3,0.2,4.6-0.5,6.8	c-0.5,1.4-1.1,2.6-2.1,3.7c-2.1,2.5-4.8,3.3-8,3.1c-4.4-0.4-6.8-3.1-8.2-7C149.2,47.8,149.1,46.4,149.1,45z M164.6,45	c0-0.5,0-1,0-1.6c-0.1-1.5-0.5-3-1.3-4.4c-1.1-1.8-2.7-2.8-4.7-2.7c-2.2,0.1-3.9,1.2-4.8,3.2c-0.2,0.4-0.4,0.9-0.5,1.4	c-0.6,2.8-0.6,5.5,0.2,8.2c0.3,1,0.7,1.9,1.3,2.7c2,2.8,6.4,2.4,8.1,0c0.5-0.7,0.9-1.5,1.1-2.3C164.5,48.1,164.7,46.5,164.6,45z" class="st2"/><path d="M175.4,55.6c-0.2,0-0.3,0.1-0.5,0.1c-0.9,0-1.7,0-2.6,0c-0.5,0-0.5-0.1-0.6-0.5c0-0.2,0-0.3,0-0.5	c0-5.5,0-10.9,0-16.4c0-0.7,0.2-1.1,0.8-1.5c2.4-1.6,5-2.6,7.9-2.9c1.4-0.1,2.7-0.1,4.1,0.3c1.1,0.3,2.1,0.8,2.9,1.6	c1.1,1,1.6,2.2,1.6,3.6c0,5.2,0,10.5,0,15.7c0,0.2,0,0.3,0,0.6c-1.1,0.2-2.3,0.1-3.5,0.1c0-0.4-0.1-0.7-0.1-1c0-4.5,0-8.9,0-13.4	c0-0.6-0.1-1.2-0.2-1.7c-0.5-1.9-2-3.1-4-3.3c-1.9-0.2-3.6,0.2-5.2,1.2c-0.5,0.3-0.6,0.6-0.6,1.1c0,5.4,0,10.7,0,16.1	C175.4,55,175.4,55.3,175.4,55.6z" class="st2"/><path d="M125.3,171.5c0.6,0.2,1.1,0.4,1.7,0.6c0,0.3-0.1,0.5-0.1,0.7c-1.4,5-2.8,9.9-4.2,14.9c-0.1,0.5-0.4,0.8-0.9,0.9	c-0.5,0.1-1.1,0.4-1.7,0.6c-1.4-4.4-2.9-8.7-4.3-13c-0.1,0-0.1,0-0.2,0c-0.1,0.3-0.2,0.6-0.3,0.9c-1,3.5-2,7-3,10.5	c-0.2,0.6-0.4,1-1.1,1.1c-0.5,0.1-1,0.3-1.5,0.5c-1.8-5.6-3.6-11-5.4-16.6c0.9-0.4,1.7-0.7,2.6-0.9c1.5,4.2,2.8,8.5,4.2,12.6	c0,0,0.1,0,0.1,0c0.1-0.2,0.2-0.4,0.2-0.6c1-3.5,2-6.9,2.9-10.4c0.1-0.5,0.4-0.8,0.9-1c0.6-0.2,1.2-0.4,1.9-0.7	c1.4,4.3,2.8,8.5,4.2,12.7c0,0,0.1,0,0.1,0c0.1-0.2,0.2-0.4,0.2-0.6c1-3.7,2.1-7.4,3.1-11.1C125.1,172.2,125.2,171.9,125.3,171.5z" class="st3"/><path d="M185.7,172.6c0-0.4,0-0.7,0-0.9c0-2.7,0-5.4,0-8.1c0-0.7,0-0.7,0.7-1c0.6-0.2,1.3-0.4,2-0.7	c0,0.3,0.1,0.6,0.1,0.8c0,7.6,0,15.1,0,22.7c0,0.5-0.2,0.9-0.6,1.2c-2.3,1.6-4.8,2.5-7.6,2.5c-1.8,0-3.3-0.7-4.5-2.2	c-1.1-1.4-1.7-3-2-4.7c-0.3-2.1-0.2-4.1,0.6-6.1c0.5-1.1,1.1-2.1,2-3c1-1,2.3-1.5,3.7-1.6c1.6-0.1,3.1,0.2,4.6,0.8	C185.1,172.4,185.3,172.5,185.7,172.6z M185.7,180.4c0-1.6,0-3.2,0-4.9c0-0.3,0-0.6-0.4-0.8c-1-0.6-2.1-1.1-3.2-1.2	c-1.6-0.2-2.9,0.3-3.8,1.6c-0.3,0.5-0.6,1-0.8,1.6c-0.7,1.9-0.9,3.9-0.5,6c0.2,1.1,0.6,2.2,1.3,3.2c0.9,1.2,2.1,1.7,3.5,1.6	c1.2-0.1,2.3-0.6,3.3-1.2c0.4-0.2,0.6-0.5,0.6-1C185.7,183.6,185.7,182,185.7,180.4z" class="st3"/><path d="M73.2,187.7c0,3.3,0,6.5,0,9.8c-0.2,0-0.4,0-0.5-0.1c-0.6-0.2-1.1-0.4-1.7-0.6c-0.4-0.1-0.6-0.4-0.6-0.8	c0-0.2,0-0.4,0-0.6c0-6.7,0-13.4,0-20.1c0-0.6,0.2-1.1,0.7-1.5c1.4-1.2,3-1.8,4.8-2.1c0.9-0.1,1.9-0.2,2.9-0.2	c1.9,0,3.3,0.9,4.4,2.4c0.7,1,1.2,2.2,1.5,3.4c0.4,2,0.5,4,0.1,6c-0.3,1.5-1,2.8-2.1,3.9c-1.4,1.5-3.2,2-5.1,1.8	c-1.3-0.1-2.4-0.5-3.6-1.1C73.7,188,73.5,187.9,73.2,187.7z M73.2,180.2c0,1.6,0,3.2,0,4.9c0,0.4,0.1,0.7,0.5,0.9	c0.9,0.5,1.7,0.8,2.7,1c2.2,0.4,4-0.5,4.8-2.6c0.1-0.4,0.2-0.7,0.3-1.1c0.4-1.9,0.4-3.8,0-5.7c-0.1-0.7-0.4-1.5-0.7-2.1	c-0.6-1.4-1.8-2-3.3-2.1c-1.3,0-2.6,0.3-3.7,0.9c-0.5,0.2-0.7,0.5-0.7,1.1C73.2,177,73.2,178.6,73.2,180.2z" class="st3"/><path d="M120.3,27.2c0,2.4,0,4.7,0,7.1c1.3,0.1,2.6,0,3.8,0.1c0.2,0.5,0.2,1.3,0.1,2.2c-1.2,0.1-2.5,0-3.9,0.1	c0,0.3-0.1,0.5-0.1,0.8c0,4.3,0,8.6,0,12.8c0,0.5,0.1,1.1,0.2,1.6c0.2,0.9,0.8,1.5,1.7,1.8c0.5,0.2,1.1,0.2,1.6,0.3	c0.5,0.1,0.5,0.1,0.6,0.6c0,0.3,0,0.6,0,0.9c0,0.3-0.1,0.4-0.4,0.4c-1.5,0.1-3.1,0-4.5-0.7c-1.8-0.9-2.7-2.5-2.7-4.5	c0-1.7,0-3.5,0-5.2c0-2.7,0-5.3,0-8c0-0.3,0-0.6,0-0.9c-0.8,0-1.5-0.1-2.3-0.1c0-0.8,0-1.4,0-2.2c0.8,0,1.5-0.1,2.3-0.1	c0-0.3,0-0.6,0-0.8c0-1.5,0-3,0-4.4c0-0.6,0-0.6,0.6-0.9c0.8-0.3,1.5-0.5,2.3-0.8C119.8,27.4,120,27.3,120.3,27.2z" class="st2"/><path d="M102.7,180c0,2.6-0.6,4.8-2.2,6.7c-1.3,1.5-2.9,2.3-4.9,2.4c-0.7,0-1.4,0-2-0.1c-1.9-0.3-3.3-1.2-4.4-2.7	c-2.2-2.9-2.4-8.1-0.5-11.2c2.9-4.7,9.8-4.6,12.6-0.3C102.3,176.4,102.7,178.2,102.7,180z M99.7,180.3c0,0-0.1,0-0.1,0	c0-0.5,0-0.9,0-1.4c-0.1-1.2-0.4-2.3-1-3.3c-0.9-1.4-2.1-2.1-3.8-2c-1.7,0.1-2.9,0.9-3.6,2.4c-0.2,0.4-0.4,0.9-0.5,1.3	c-0.4,1.7-0.3,3.5-0.1,5.2c0.2,1,0.5,2,1,2.9c1.6,2.8,5.6,2.4,6.9-0.1c0.3-0.6,0.5-1.2,0.7-1.8C99.4,182.5,99.5,181.4,99.7,180.3z" class="st3"/><path d="M141.9,180.1c-1.7,0-3.4,0-5.1,0c-1.7,0-3.3,0-5,0c-0.2,0.5-0.1,1-0.1,1.5c0,1.2,0.4,2.3,1,3.4	c1.1,1.8,2.8,2.5,4.8,2.2c1.1-0.2,2.2-0.5,3.2-1c0.2-0.1,0.4-0.2,0.6-0.3c0.4,0.4,0.5,0.6,0.7,1.3c-0.1,0.1-0.3,0.2-0.4,0.3	c-2.2,1.4-4.6,1.8-7.1,1.4c-2.4-0.4-3.9-1.9-5-4c-0.4-0.9-0.7-1.8-0.8-2.8c-0.2-2-0.1-4,0.6-6c0.2-0.5,0.4-0.9,0.6-1.4	c1.3-2.4,3.4-3.5,6.1-3.3c2.7,0.2,4.5,1.7,5.3,4.3c0.4,1.2,0.5,2.5,0.6,3.8C142,179.7,142,179.8,141.9,180.1z M139.1,178.3	c0-1.5-0.3-2.8-1.3-3.9c-1.1-1.3-3.2-1.4-4.4-0.2c-1.2,1.1-1.4,2.6-1.6,4.1C134.3,178.3,136.7,178.3,139.1,178.3z" class="st3"/><path d="M160.6,180.1c-0.1,2.4,0.2,4.5,2,6.1c1,1,2.3,1.2,3.7,1c1.1-0.2,2.2-0.5,3.3-1c0.2-0.1,0.5-0.2,0.8-0.3	c0.2,0.5,0.4,0.9,0.7,1.4c-0.4,0.2-0.8,0.5-1.2,0.7c-1.9,1.1-3.9,1.3-6.1,1.1c-1.9-0.2-3.3-1.2-4.5-2.6c-1-1.4-1.5-2.9-1.7-4.6	c-0.1-1.8,0-3.5,0.5-5.2c0.3-0.8,0.6-1.6,1.1-2.3c1.1-1.8,2.9-2.7,5-2.7c0.7,0,1.4,0.1,2.1,0.2c1.4,0.3,2.5,1.2,3.3,2.5	c0.7,1.1,1,2.4,1.1,3.7c0.1,0.6,0.1,1.3,0.2,2c-0.4,0-0.7,0.1-1,0.1c-2.8,0-5.6,0-8.4,0C161.3,180.1,161,180.1,160.6,180.1z M168,178.3c0-1.5-0.3-2.7-1.2-3.8c-1.3-1.5-3.4-1.2-4.3-0.4c-1.3,1.1-1.6,2.6-1.7,4.3C163.1,178.3,165.5,178.3,168,178.3z" class="st3"/><path d="M155.7,171.6c-0.4,0.7-0.7,1.3-1,2c-0.2,0.3-0.5,0.3-0.7,0.2c-0.8-0.2-1.5-0.1-2.3,0c-0.8,0.2-1.5,0.5-2.1,0.9	c-0.5,0.3-0.7,0.6-0.7,1.2c0,4,0,8,0,11.9c0,0.3,0,0.6-0.1,0.9c-0.9,0-1.8,0-2.8,0c0-0.3-0.1-0.5-0.1-0.8c0-4.2,0-8.3,0-12.5	c0-0.5,0.2-0.9,0.5-1.2c1.6-1.5,3.6-2.3,5.7-2.7C153.4,171.3,154.5,171.3,155.7,171.6z" class="st3"/><rect width="192.4" height="192.4" x="-103.4" y="-926.8" class="st4"/><rect width="192.4" height="192.4" x="-363.8" y="-926.8" class="st5"/><rect width="192.4" height="192.4" x="-103.4" y="-669.8" class="st6"/><rect width="192.4" height="192.4" x="-363.8" y="-669.8" class="st7"/></svg>