<svg width="32" height="32" viewBox="0 0 32 32" fill="none" xmlns="http://www.w3.org/2000/svg">
<path d="M8.00271 19.6392C8.00271 21.2342 6.69978 22.5371 5.10481 22.5371C3.50984 22.5371 2.20691 21.2342 2.20691 19.6392C2.20691 18.0443 3.50984 16.7413 5.10481 16.7413H8.00271V19.6392Z" fill="white"/>
<path d="M9.46289 19.6392C9.46289 18.0443 10.7658 16.7413 12.3608 16.7413C13.9558 16.7413 15.2587 18.0443 15.2587 19.6392V26.8952C15.2587 28.4902 13.9558 29.7931 12.3608 29.7931C10.7658 29.7931 9.46289 28.4902 9.46289 26.8952V19.6392Z" fill="white"/>
<path d="M12.3608 8.00271C10.7658 8.00271 9.46289 6.69977 9.46289 5.10481C9.46289 3.50984 10.7658 2.20691 12.3608 2.20691C13.9558 2.20691 15.2587 3.50984 15.2587 5.10481V8.00271H12.3608Z" fill="white"/>
<path d="M12.3608 9.46277C13.9558 9.46277 15.2587 10.7657 15.2587 12.3607C15.2587 13.9556 13.9558 15.2586 12.3608 15.2586H5.10481C3.50984 15.2586 2.20691 13.9556 2.20691 12.3607C2.20691 10.7657 3.50984 9.46277 5.10481 9.46277H12.3608Z" fill="white"/>
<path d="M23.9973 12.3607C23.9973 10.7657 25.3003 9.46277 26.8952 9.46277C28.4902 9.46277 29.7931 10.7657 29.7931 12.3607C29.7931 13.9556 28.4902 15.2586 26.8952 15.2586H23.9973V12.3607Z" fill="white"/>
<path d="M22.5372 12.3608C22.5372 13.9558 21.2342 15.2587 19.6393 15.2587C18.0443 15.2587 16.7414 13.9558 16.7414 12.3608V5.10481C16.7414 3.50984 18.0443 2.20691 19.6393 2.20691C21.2342 2.20691 22.5372 3.50984 22.5372 5.10481V12.3608Z" fill="white"/>
<path d="M19.6393 23.9974C21.2343 23.9974 22.5372 25.3004 22.5372 26.8953C22.5372 28.4903 21.2343 29.7932 19.6393 29.7932C18.0443 29.7932 16.7414 28.4903 16.7414 26.8953V23.9974H19.6393Z" fill="white"/>
<path d="M19.6393 22.5371C18.0443 22.5371 16.7414 21.2342 16.7414 19.6392C16.7414 18.0443 18.0443 16.7413 19.6393 16.7413H26.8952C28.4902 16.7413 29.7931 18.0443 29.7931 19.6392C29.7931 21.2342 28.4902 22.5371 26.8952 22.5371H19.6393Z" fill="white"/>
</svg>
