<?xml version="1.0" encoding="utf-8"?>
<!-- Generator: Adobe Illustrator 24.1.0, SVG Export Plug-In . SVG Version: 6.00 Build 0)  -->
<svg version="1.1" id="レイヤー_1" xmlns="http://www.w3.org/2000/svg" xmlns:xlink="http://www.w3.org/1999/xlink" x="0px"
	 y="0px" viewBox="0 0 800 600" style="enable-background:new 0 0 800 600;" xml:space="preserve">
<style type="text/css">
	.st0{fill:#FFFFFF;}
</style>
<path class="st0" d="M464,341.5L434,247h26.6l18,69.9h1l17.7-69.9h25.2l-29.6,94.4H464V341.5z"/>
<path class="st0" d="M545.9,342.6c-14.5,0-24.4-8.4-24.4-22.4c0-13.5,9.3-22.1,26.6-22.1h17.1V292c0-6-3.7-9.3-10-9.3
	s-10,3.5-10.3,8.5h-20.7c0.4-12,7.8-24.6,31.3-24.6c17.7,0,31.5,7.5,31.5,25.7v49.3h-20.8v-8.9h-1
	C562.7,337.8,556.7,342.6,545.9,342.6z M565.2,317.4v-7.3H554c-6.9,0-10.6,3.3-10.6,8.3c0,5.8,5,8.7,10.2,8.7
	C559.8,327.2,565.1,323.3,565.2,317.4L565.2,317.4z"/>
<path class="st0" d="M603,242.1h22.2v99.4H603V242.1z"/>
<path class="st0" d="M687.4,278.8h1v-36.7h22.2v99.4h-22.1v-11.6h-0.9c-3.2,7.6-10.9,12.4-21,12.4c-17.2,0-27.5-12.9-27.5-34.8v-6
	c0-21.7,10.5-34.7,27.5-34.7C676.7,266.8,684.4,271.6,687.4,278.8z M661.9,302.2v4.7c0,12.2,5.5,18.2,13.1,18.2
	c8,0,13.4-6.1,13.4-18.1v-4.8c0-11.7-5.5-18.2-13.5-18.2C667.5,284,661.9,290,661.9,302.2z"/>
<path class="st0" d="M223.8,212l6.8,11.5l3.4,5.7l3.5,5.7c2.3,3.8,4.7,7.5,7.1,11c2.4,3.4,5.1,6.6,8.2,9.4c2.3,1.8,4.9,3.1,7.7,3.9
	c0.9,0.2,1.9,0.4,2.9,0.6c1.9,0.3,3.7,0.3,5.6,0.1c4.1-0.8,8.1-2.1,11.9-3.8c4-1.7,7.9-3.7,11.8-5.7c4-2,7.9-4.1,11.8-6.2l11.8-6.3
	l23.6-12.7l7-3.8L303.7,145l-30,52.7l-30-52.7l-29.1,51.2L223.8,212z"/>
<path class="st0" d="M92.9,366.7l7.4-4.5c7.6-4.6,15.3-9.2,23-13.8s15.4-9.1,23.1-13.6l23.1-13.6l23.1-13.6l11.5-6.8l5.8-3.4
	l5.7-3.5c3.8-2.3,7.6-4.7,11-7.2c3.4-2.4,6.6-5.1,9.4-8.2c2.2-2.9,3.7-6.2,4.4-9.7c0.1-0.9,0.2-1.8,0.2-2.7c0-0.7,0-1.5,0-2.2v-0.5
	c0-0.2-0.1-0.4-0.1-0.7l-0.1-0.7v-0.2l0,0l-0.1-0.3c-0.3-1.7-0.8-3.3-1.3-4.9c-1.1-3.3-2.4-6.5-3.9-9.6c-1.5-3.2-3.2-6.4-4.8-9.6
	c-1.6-3.2-3.3-6.4-5-9.6l-5-9.4l-1.9-3.4c-2.2-3.9-4.4-7.8-6.5-11.7l-6.4-11.8l-6.4-11.8l-6.4-11.8c-3.6-6.8-7.2-13.5-10.8-20.2
	l-67.2,118h27.9L92.9,366.7z"/>
<path class="st0" d="M315.4,385.2l-6.8-11.5l-6.8-11.6c-4.5-7.7-9-15.5-13.4-23.2l-1.6-2.9l-5.7-9.6c-1.9-3.1-3.8-6.2-5.7-9.2
	c-1.9-3.1-3.8-6.2-5.7-9.1c-1.9-2.9-4-5.7-6.2-8.3c-0.6-0.6-1.1-1.3-1.7-1.9l-0.9-0.8c-0.3-0.3-0.7-0.6-1-0.9
	c-1.1-1-2.4-1.9-3.7-2.7c-1.4-0.8-2.9-1.5-4.5-2c-1.6-0.3-3.2-0.5-4.8-0.6c-0.8,0-1.6,0-2.2,0H244l-0.6,0.1l-0.7,0.1h-0.2l0,0
	l-0.3,0.1c-1.7,0.3-3.3,0.7-4.9,1.3c-3.3,1.1-6.5,2.4-9.6,3.9c-3.2,1.5-6.4,3.2-9.6,4.8c-3.2,1.7-6.4,3.3-9.6,5l-9.4,5l-3.4,1.9
	c-3.9,2.2-7.8,4.4-11.7,6.5l-11.8,6.4l-11.8,6.4l-11.8,6.4c-7.9,4.2-15.7,8.5-23.7,12.6s-15.8,8.4-23.7,12.5l-8.1,4.2h70.6V440
	c0,0.9,0.8,1.7,1.7,1.7l0,0h36.3c0.9,0,1.7-0.8,1.7-1.7l0,0v-71.9h20.3V440c0,0.9,0.7,1.7,1.7,1.7l0,0h36.3c0.9,0,1.7-0.8,1.7-1.7
	v-71.9h20.3V440c0,0.9,0.8,1.7,1.7,1.7h36.3c0.9,0,1.7-0.8,1.7-1.7v-41.1L315.4,385.2z"/>
<path class="st0" d="M372.5,265.8l-22.8-40.1l-7,4.1c-7.7,4.5-15.5,9-23.2,13.4l-2.9,1.6l-9.5,5.8c-3.1,1.9-6.2,3.8-9.3,5.7
	c-3.1,1.9-6.2,3.8-9.1,5.7c-2.9,1.9-5.7,4-8.3,6.2c-0.6,0.6-1.2,1.1-1.9,1.7l-0.9,0.9c-0.3,0.3-0.6,0.6-0.9,1
	c-1,1.1-1.9,2.4-2.7,3.7c-0.5,0.8-0.9,1.7-1.2,2.6c-0.5,1.6-0.9,3.2-1.1,4.8c-0.3,1.9-0.3,3.7-0.1,5.6c0.8,4.1,2.1,8.1,3.8,11.9
	c1.7,3.9,3.7,7.9,5.7,11.9s4.1,7.9,6.2,11.8l6.3,11.8l12.7,23.6l12.8,23.5c1.4,2.6,2.8,5.3,4.3,7.9V368H395l-50.4-102.2H372.5z"/>
<path class="st0" d="M464,341.5L434,247h26.6l18,69.9h1l17.7-69.9h25.2l-29.6,94.4H464V341.5z"/>
<path class="st0" d="M545.9,342.6c-14.5,0-24.4-8.4-24.4-22.4c0-13.5,9.3-22.1,26.6-22.1h17.1V292c0-6-3.7-9.3-10-9.3
	s-10,3.5-10.3,8.5h-20.7c0.4-12,7.8-24.6,31.3-24.6c17.7,0,31.5,7.5,31.5,25.7v49.3h-20.8v-8.9h-1
	C562.7,337.8,556.7,342.6,545.9,342.6z M565.2,317.4v-7.3H554c-6.9,0-10.6,3.3-10.6,8.3c0,5.8,5,8.7,10.2,8.7
	C559.8,327.2,565.1,323.3,565.2,317.4L565.2,317.4z"/>
<path class="st0" d="M603,242.1h22.2v99.4H603V242.1z"/>
<path class="st0" d="M687.4,278.8h1v-36.7h22.2v99.4h-22.1v-11.6h-0.9c-3.2,7.6-10.9,12.4-21,12.4c-17.2,0-27.5-12.9-27.5-34.8v-6
	c0-21.7,10.5-34.7,27.5-34.7C676.7,266.8,684.4,271.6,687.4,278.8z M661.9,302.2v4.7c0,12.2,5.5,18.2,13.1,18.2
	c8,0,13.4-6.1,13.4-18.1v-4.8c0-11.7-5.5-18.2-13.5-18.2C667.5,284,661.9,290,661.9,302.2z"/>
<path class="st0" d="M223.8,212l6.8,11.5l3.4,5.7l3.5,5.7c2.3,3.8,4.7,7.5,7.1,11c2.4,3.4,5.1,6.6,8.2,9.4c2.3,1.8,4.9,3.1,7.7,3.9
	c0.9,0.2,1.9,0.4,2.9,0.6c1.9,0.3,3.7,0.3,5.6,0.1c4.1-0.8,8.1-2.1,11.9-3.8c4-1.7,7.9-3.7,11.8-5.7c4-2,7.9-4.1,11.8-6.2l11.8-6.3
	l23.6-12.7l7-3.8L303.7,145l-30,52.7l-30-52.7l-29.1,51.2L223.8,212z"/>
<path class="st0" d="M92.9,366.7l7.4-4.5c7.6-4.6,15.3-9.2,23-13.8s15.4-9.1,23.1-13.6l23.1-13.6l23.1-13.6l11.5-6.8l5.8-3.4
	l5.7-3.5c3.8-2.3,7.6-4.7,11-7.2c3.4-2.4,6.6-5.1,9.4-8.2c2.2-2.9,3.7-6.2,4.4-9.7c0.1-0.9,0.2-1.8,0.2-2.7c0-0.7,0-1.5,0-2.2v-0.5
	c0-0.2-0.1-0.4-0.1-0.7l-0.1-0.7v-0.2l0,0l-0.1-0.3c-0.3-1.7-0.8-3.3-1.3-4.9c-1.1-3.3-2.4-6.5-3.9-9.6c-1.5-3.2-3.2-6.4-4.8-9.6
	c-1.6-3.2-3.3-6.4-5-9.6l-5-9.4l-1.9-3.4c-2.2-3.9-4.4-7.8-6.5-11.7l-6.4-11.8l-6.4-11.8l-6.4-11.8c-3.6-6.8-7.2-13.5-10.8-20.2
	l-67.2,118h27.9L92.9,366.7z"/>
<path class="st0" d="M315.4,385.2l-6.8-11.5l-6.8-11.6c-4.5-7.7-9-15.5-13.4-23.2l-1.6-2.9l-5.7-9.6c-1.9-3.1-3.8-6.2-5.7-9.2
	c-1.9-3.1-3.8-6.2-5.7-9.1c-1.9-2.9-4-5.7-6.2-8.3c-0.6-0.6-1.1-1.3-1.7-1.9l-0.9-0.8c-0.3-0.3-0.7-0.6-1-0.9
	c-1.1-1-2.4-1.9-3.7-2.7c-1.4-0.8-2.9-1.5-4.5-2c-1.6-0.3-3.2-0.5-4.8-0.6c-0.8,0-1.6,0-2.2,0H244l-0.6,0.1l-0.7,0.1h-0.2l0,0
	l-0.3,0.1c-1.7,0.3-3.3,0.7-4.9,1.3c-3.3,1.1-6.5,2.4-9.6,3.9c-3.2,1.5-6.4,3.2-9.6,4.8c-3.2,1.7-6.4,3.3-9.6,5l-9.4,5l-3.4,1.9
	c-3.9,2.2-7.8,4.4-11.7,6.5l-11.8,6.4l-11.8,6.4l-11.8,6.4c-7.9,4.2-15.7,8.5-23.7,12.6s-15.8,8.4-23.7,12.5l-8.1,4.2h70.6V440
	c0,0.9,0.8,1.7,1.7,1.7l0,0h36.3c0.9,0,1.7-0.8,1.7-1.7l0,0v-71.9h20.3V440c0,0.9,0.7,1.7,1.7,1.7l0,0h36.3c0.9,0,1.7-0.8,1.7-1.7
	v-71.9h20.3V440c0,0.9,0.8,1.7,1.7,1.7h36.3c0.9,0,1.7-0.8,1.7-1.7v-41.1L315.4,385.2z"/>
<path class="st0" d="M372.5,265.8l-22.8-40.1l-7,4.1c-7.7,4.5-15.5,9-23.2,13.4l-2.9,1.6l-9.5,5.8c-3.1,1.9-6.2,3.8-9.3,5.7
	c-3.1,1.9-6.2,3.8-9.1,5.7c-2.9,1.9-5.7,4-8.3,6.2c-0.6,0.6-1.2,1.1-1.9,1.7l-0.9,0.9c-0.3,0.3-0.6,0.6-0.9,1
	c-1,1.1-1.9,2.4-2.7,3.7c-0.5,0.8-0.9,1.7-1.2,2.6c-0.5,1.6-0.9,3.2-1.1,4.8c-0.3,1.9-0.3,3.7-0.1,5.6c0.8,4.1,2.1,8.1,3.8,11.9
	c1.7,3.9,3.7,7.9,5.7,11.9s4.1,7.9,6.2,11.8l6.3,11.8l12.7,23.6l12.8,23.5c1.4,2.6,2.8,5.3,4.3,7.9V368H395l-50.4-102.2H372.5z"/>
</svg>
