<svg id="レイヤー_1" data-name="レイヤー 1" xmlns="http://www.w3.org/2000/svg" xmlns:xlink="http://www.w3.org/1999/xlink" width="800" height="600" viewBox="0 0 800 600">
  <defs>
    <style>
      .cls-1 {
        fill: #303030;
      }

      .cls-2 {
        fill: url(#名称未設定グラデーション_77);
      }

      .cls-3 {
        fill: url(#名称未設定グラデーション_77-2);
      }

      .cls-4 {
        fill: url(#名称未設定グラデーション_77-3);
      }

      .cls-5 {
        fill: url(#名称未設定グラデーション_77-4);
      }
    </style>
    <linearGradient id="名称未設定グラデーション_77" data-name="名称未設定グラデーション 77" x1="214.452" y1="202.5" x2="347.076" y2="202.5" gradientUnits="userSpaceOnUse">
      <stop offset="0" stop-color="#00bab1"/>
      <stop offset="1" stop-color="#006076"/>
    </linearGradient>
    <linearGradient id="名称未設定グラデーション_77-2" x1="92.896" y1="257.221" x2="240.692" y2="257.221" xlink:href="#名称未設定グラデーション_77"/>
    <linearGradient id="名称未設定グラデーション_77-3" x1="93.146" y1="366.224" x2="323.478" y2="366.224" xlink:href="#名称未設定グラデーション_77"/>
    <linearGradient id="名称未設定グラデーション_77-4" x1="271.434" y1="308.276" x2="394.955" y2="308.276" xlink:href="#名称未設定グラデーション_77"/>
  </defs>
  <title>vald</title>
  <g>
    <path class="cls-1" d="M463.971,341.481l-30.032-94.456h26.572L478.5,316.915h0.969l17.715-69.891h25.188l-29.617,94.456H463.971Z"/>
    <path class="cls-1" d="M545.846,342.588c-14.462,0-24.427-8.373-24.427-22.421,0-13.493,9.342-22.074,26.572-22.074h17.092v-6.158c0-6.021-3.737-9.342-9.964-9.342-6.3,0-10.034,3.46-10.311,8.511h-20.69c0.415-12.04,7.819-24.635,31.278-24.635,17.715,0,31.554,7.474,31.554,25.742v49.27H566.121v-8.857h-0.969C562.661,337.744,556.71,342.588,545.846,342.588ZM565.083,317.4v-7.266h-11.21c-6.851,0-10.587,3.321-10.587,8.3,0,5.813,4.982,8.719,10.172,8.719C559.755,327.156,565.083,323.281,565.083,317.4Z"/>
    <path class="cls-1" d="M602.943,242.042h22.213v99.438H602.943V242.042Z"/>
    <path class="cls-1" d="M687.368,278.786h0.969V242.042H710.55v99.438H688.476V329.856h-0.9c-3.183,7.611-10.864,12.386-21.036,12.386-17.23,0-27.472-12.87-27.472-34.807v-5.951c0-21.729,10.449-34.737,27.472-34.737C676.643,266.746,684.324,271.59,687.368,278.786ZM661.9,302.176v4.705c0,12.248,5.536,18.2,13.079,18.2,8.027,0,13.424-6.158,13.424-18.13v-4.774c0-11.694-5.467-18.2-13.494-18.2C667.439,283.977,661.9,290,661.9,302.176Z"/>
  </g>
  <g>
    <path class="cls-2" d="M223.808,212.012l6.819,11.509,3.434,5.725,3.49,5.722c2.328,3.788,4.663,7.543,7.159,11.03a52.708,52.708,0,0,0,8.227,9.38,22.194,22.194,0,0,0,7.669,3.889,28.855,28.855,0,0,0,2.846.562,19.544,19.544,0,0,0,5.6.061,52.624,52.624,0,0,0,11.937-3.785c3.951-1.687,7.869-3.694,11.842-5.743q5.928-3.068,11.831-6.214l11.789-6.33,23.569-12.731,7.052-3.83-43.45-76.32L273.61,197.659l-30.016-52.722-29.143,51.189Z"/>
    <path class="cls-3" d="M92.9,366.7l7.406-4.5c7.641-4.644,15.348-9.173,23.024-13.754s15.406-9.065,23.1-13.607l23.124-13.551,23.082-13.594,11.509-6.82,5.725-3.434,5.721-3.49c3.788-2.328,7.543-4.663,11.03-7.159a52.7,52.7,0,0,0,9.38-8.227,24.123,24.123,0,0,0,4.444-9.746c0.121-.89.2-1.779,0.24-2.66a21.7,21.7,0,0,0-.045-2.25l-0.03-.516c-0.02-.2-0.063-0.44-0.093-0.658l-0.1-.672-0.025-.168-0.006-.04-0.062-.3a43.032,43.032,0,0,0-1.265-4.882,79.7,79.7,0,0,0-3.888-9.63c-1.5-3.184-3.162-6.4-4.817-9.615s-3.317-6.422-5-9.623l-4.951-9.367-1.912-3.361c-2.2-3.894-4.355-7.816-6.513-11.732l-6.453-11.759-6.422-11.773L192.76,168c-3.6-6.752-7.218-13.491-10.8-20.253l-67.2,118.041H142.67Z"/>
    <path class="cls-4" d="M315.328,385.153l-6.835-11.537-6.758-11.583q-6.744-11.592-13.41-23.24l-1.616-2.888-5.745-9.556q-2.8-4.628-5.659-9.256c-1.892-3.075-3.79-6.157-5.74-9.09a79.125,79.125,0,0,0-6.23-8.308c-0.558-.641-1.137-1.254-1.718-1.864l-0.854-.848c-0.289-.286-0.652-0.61-0.975-0.913a20.668,20.668,0,0,0-3.729-2.665,28.5,28.5,0,0,0-4.5-1.986,28.886,28.886,0,0,0-4.786-.6,21.568,21.568,0,0,0-2.251.045l-0.516.03c-0.2.02-.44,0.063-0.658,0.093l-0.672.1-0.168.025-0.034,0-0.3.063a43.009,43.009,0,0,0-4.882,1.265,79.649,79.649,0,0,0-9.63,3.888c-3.184,1.5-6.4,3.162-9.615,4.818s-6.422,3.317-9.623,5l-9.364,4.949L195.7,313c-3.894,2.2-7.816,4.355-11.732,6.513l-11.759,6.453-11.773,6.422-11.813,6.345c-7.889,4.2-15.753,8.45-23.666,12.608s-15.8,8.365-23.733,12.481l-8.074,4.217h70.564v71.906a1.7,1.7,0,0,0,1.695,1.695h36.316a1.7,1.7,0,0,0,1.695-1.695V368.042h20.327v71.906a1.7,1.7,0,0,0,1.695,1.695h36.316a1.7,1.7,0,0,0,1.695-1.695V368.042h20.327v71.906a1.7,1.7,0,0,0,1.695,1.695h36.316a1.7,1.7,0,0,0,1.695-1.695V398.842Q319.4,392,315.328,385.153Z"/>
    <path class="cls-5" d="M372.427,265.785l-22.818-40.079-6.953,4.057q-11.593,6.744-23.241,13.41l-2.889,1.617-9.555,5.744q-4.628,2.8-9.257,5.659c-3.074,1.893-6.157,3.79-9.09,5.74a79.107,79.107,0,0,0-8.308,6.23c-0.641.558-1.254,1.137-1.864,1.718l-0.848.854c-0.286.289-.61,0.652-0.914,0.975a20.669,20.669,0,0,0-2.664,3.729,27.6,27.6,0,0,0-1.239,2.582,30.653,30.653,0,0,0-1.12,4.809,19.544,19.544,0,0,0-.061,5.6,52.625,52.625,0,0,0,3.786,11.937c1.687,3.951,3.694,7.869,5.742,11.842q3.068,5.928,6.214,11.831l6.33,11.79L306.411,359.4,319.2,382.955q2.13,3.95,4.276,7.891v-22.8h71.477L344.52,265.785h27.907Z"/>
  </g>
</svg>
